<?xml version="1.0" encoding="utf-8"?>
<!-- Generator: Adobe Illustrator 16.0.0, SVG Export Plug-In . SVG Version: 6.00 Build 0)  -->
<!DOCTYPE svg PUBLIC "-//W3C//DTD SVG 1.1//EN" "http://www.w3.org/Graphics/SVG/1.1/DTD/svg11.dtd">
<svg version="1.1" id="Layer_1" xmlns="http://www.w3.org/2000/svg" xmlns:xlink="http://www.w3.org/1999/xlink" x="0px" y="0px"
	 width="165px" height="165px" viewBox="0 0 165 165" enable-background="new 0 0 165 165" xml:space="preserve">
<g>
	<linearGradient id="SVGID_1_" gradientUnits="userSpaceOnUse" x1="3.8398" y1="82.5" x2="161.1602" y2="82.5">
		<stop  offset="0" style="stop-color:#675ADF"/>
		<stop  offset="0.1898" style="stop-color:#6166E3"/>
		<stop  offset="0.5359" style="stop-color:#5287EE"/>
		<stop  offset="0.9964" style="stop-color:#3ABCFF"/>
		<stop  offset="1" style="stop-color:#3ABCFF"/>
	</linearGradient>
	<path fill="none" stroke="url(#SVGID_1_)" stroke-width="5" stroke-miterlimit="10" d="M158.66,82.5
		c0,42.063-34.102,76.16-76.158,76.16c-42.063,0-76.162-34.097-76.162-76.16c0-42.063,34.1-76.16,76.162-76.16
		C124.559,6.34,158.66,40.438,158.66,82.5z"/>
	<g>
		<linearGradient id="SVGID_2_" gradientUnits="userSpaceOnUse" x1="66.166" y1="82.5" x2="98.834" y2="82.5">
			<stop  offset="0" style="stop-color:#675ADF"/>
			<stop  offset="0.1898" style="stop-color:#6166E3"/>
			<stop  offset="0.5359" style="stop-color:#5287EE"/>
			<stop  offset="0.9964" style="stop-color:#3ABCFF"/>
			<stop  offset="1" style="stop-color:#3ABCFF"/>
		</linearGradient>
		<path fill="url(#SVGID_2_)" d="M77.293,98.016c-0.319-0.833-0.593-1.904-0.818-3.203c-0.225-1.303-0.339-2.61-0.339-3.928
			c0-1.639,0.261-3.124,0.772-4.457c0.514-1.334,1.186-2.595,2.025-3.781c0.835-1.189,1.807-2.329,2.912-3.424
			c1.111-1.093,2.263-2.198,3.45-3.323c0.961-0.898,1.884-1.815,2.77-2.748c0.883-0.929,1.662-1.929,2.333-2.988
			c0.677-1.06,1.224-2.192,1.643-3.396c0.417-1.206,0.625-2.498,0.625-3.878c0-1.67-0.297-3.148-0.892-4.433
			c-0.595-1.283-1.407-2.371-2.458-3.254c-1.042-0.884-2.281-1.557-3.708-2.024c-1.429-0.466-2.964-0.699-4.602-0.699
			c-2.892,0-5.56,0.521-7.999,1.566c-2.447,1.044-4.721,2.58-6.842,4.604v-6.843c2.378-1.639,4.824-2.859,7.348-3.663
			c2.519-0.802,5.211-1.205,8.071-1.205c2.406,0,4.664,0.33,6.767,0.986c2.105,0.661,3.93,1.634,5.476,2.918
			c1.538,1.285,2.755,2.865,3.657,4.745c0.901,1.878,1.35,4.056,1.35,6.53c0,1.801-0.25,3.455-0.744,4.963
			c-0.503,1.51-1.16,2.908-1.979,4.191c-0.819,1.284-1.74,2.492-2.768,3.614c-1.03,1.125-2.092,2.201-3.183,3.229
			c-1.38,1.318-2.595,2.499-3.639,3.541c-1.046,1.044-1.92,2.05-2.622,3.015c-0.711,0.963-1.247,1.941-1.615,2.936
			c-0.372,0.999-0.561,2.106-0.561,3.327c0,1.477,0.16,2.818,0.463,4.022c0.304,1.205,0.617,2.227,0.941,3.06H77.293z
			 M80.283,118.063c-0.611,0-1.186-0.111-1.736-0.337c-0.547-0.227-1.03-0.547-1.443-0.962c-0.424-0.418-0.76-0.911-1.012-1.474
			c-0.257-0.56-0.389-1.161-0.389-1.804c0-0.675,0.125-1.295,0.358-1.857c0.248-0.561,0.573-1.042,0.989-1.445
			c0.422-0.402,0.906-0.723,1.473-0.965c0.561-0.239,1.148-0.358,1.76-0.358c0.61,0,1.199,0.111,1.757,0.336
			c0.563,0.226,1.062,0.546,1.493,0.963c0.435,0.42,0.781,0.909,1.037,1.47c0.259,0.563,0.387,1.183,0.387,1.857
			c0,0.643-0.128,1.244-0.387,1.804c-0.256,0.563-0.603,1.056-1.037,1.474c-0.432,0.415-0.93,0.735-1.493,0.962
			C81.482,117.951,80.894,118.063,80.283,118.063z"/>
	</g>
</g>
</svg>
