<?xml version="1.0" encoding="utf-8"?>
<!-- Generator: Adobe Illustrator 16.0.0, SVG Export Plug-In . SVG Version: 6.00 Build 0)  -->
<!DOCTYPE svg PUBLIC "-//W3C//DTD SVG 1.1//EN" "http://www.w3.org/Graphics/SVG/1.1/DTD/svg11.dtd">
<svg version="1.1" id="Layer_1" xmlns="http://www.w3.org/2000/svg" xmlns:xlink="http://www.w3.org/1999/xlink" x="0px" y="0px"
	 width="65px" height="65px" viewBox="0 0 65 65" enable-background="new 0 0 65 65" xml:space="preserve">
<g>
	<circle fill="#22C9FF" stroke="#FFFFFF" stroke-miterlimit="10" cx="32.5" cy="32.5" r="30"/>
	<g>
		<g>
			<path fill="#FFFFFF" stroke="#22C9FF" stroke-width="0.5" stroke-miterlimit="10" d="M46.545,22.667h-7.021v-1.404
				c0-1.551-1.263-2.81-2.812-2.81h-8.43c-1.548,0-2.808,1.259-2.808,2.81v1.404h-7.024c-1.548,0-2.808,1.26-2.808,2.809v18.262
				c0,1.549,1.26,2.81,2.808,2.81h28.094c1.552,0,2.812-1.261,2.812-2.81V25.476C49.356,23.927,48.097,22.667,46.545,22.667z
				 M26.878,21.263c0-0.774,0.633-1.404,1.405-1.404h8.43c0.773,0,1.406,0.63,1.406,1.404v1.404H26.878V21.263z M47.951,43.737
				c0,0.774-0.633,1.405-1.406,1.405H18.451c-0.772,0-1.405-0.631-1.405-1.405V33.513c0.417,0.243,0.892,0.392,1.405,0.392h11.238
				v2.106c0,0.39,0.313,0.702,0.702,0.702h4.217c0.386,0,0.702-0.313,0.702-0.702v-2.106h11.234c0.515,0,0.989-0.148,1.406-0.392
				V43.737L47.951,43.737z M31.095,35.31V32.5h2.808v2.81H31.095z M47.951,31.095c0,0.775-0.633,1.405-1.406,1.405H35.311v-0.702
				c0-0.389-0.316-0.703-0.702-0.703h-4.217c-0.39,0-0.702,0.314-0.702,0.703V32.5H18.451c-0.772,0-1.405-0.63-1.405-1.405v-5.619
				c0-0.772,0.633-1.405,1.405-1.405h28.094c0.773,0,1.406,0.633,1.406,1.405V31.095z"/>
		</g>
	</g>
</g>
</svg>
