<?xml version="1.0" encoding="utf-8"?>
<!-- Generator: Adobe Illustrator 16.0.0, SVG Export Plug-In . SVG Version: 6.00 Build 0)  -->
<!DOCTYPE svg PUBLIC "-//W3C//DTD SVG 1.1//EN" "http://www.w3.org/Graphics/SVG/1.1/DTD/svg11.dtd">
<svg version="1.1" id="Layer_1" xmlns="http://www.w3.org/2000/svg" xmlns:xlink="http://www.w3.org/1999/xlink" x="0px" y="0px"
	 width="165px" height="165px" viewBox="0 0 165 165" enable-background="new 0 0 165 165" xml:space="preserve">
<g>
	<linearGradient id="SVGID_1_" gradientUnits="userSpaceOnUse" x1="3.8389" y1="82.5" x2="161.1611" y2="82.5">
		<stop  offset="0" style="stop-color:#675ADF"/>
		<stop  offset="0.1898" style="stop-color:#6166E3"/>
		<stop  offset="0.5359" style="stop-color:#5287EE"/>
		<stop  offset="0.9964" style="stop-color:#3ABCFF"/>
		<stop  offset="1" style="stop-color:#3ABCFF"/>
	</linearGradient>
	<path fill="none" stroke="url(#SVGID_1_)" stroke-width="5" stroke-miterlimit="10" d="M158.661,82.5
		c0,42.063-34.102,76.16-76.16,76.16c-42.066,0-76.162-34.098-76.162-76.16c0-42.062,34.096-76.159,76.162-76.159
		C124.56,6.34,158.661,40.438,158.661,82.5z"/>
	<linearGradient id="SVGID_2_" gradientUnits="userSpaceOnUse" x1="56.6992" y1="82.5" x2="108.3018" y2="82.5">
		<stop  offset="0" style="stop-color:#675ADF"/>
		<stop  offset="0.1898" style="stop-color:#6166E3"/>
		<stop  offset="0.5359" style="stop-color:#5287EE"/>
		<stop  offset="0.9964" style="stop-color:#3ABCFF"/>
		<stop  offset="1" style="stop-color:#3ABCFF"/>
	</linearGradient>
	<path fill="url(#SVGID_2_)" d="M108.025,87.272c-1.223-7.266-6.555-8.672-8.871-8.937c-1.646-2.21-4.021-3.424-6.758-3.424
		c-0.658,0-1.275,0.07-1.826,0.17c-1.629-1.866-3.906-2.877-6.441-2.877c-0.057,0-0.227,0-0.227,0v-2.221
		c3.697-2.318,6.135-6.39,6.135-11.021c0-7.203-5.826-13.06-13.023-13.06c-7.209,0-13.107,5.859-13.107,13.062
		c0,4.595,2.498,8.64,5.947,10.973v10.81l-0.104-0.25c-1.332-2.161-3.434-3.396-5.84-3.396c-2.586,0-5.068,1.461-6.342,3.724
		c-1.217,2.161-1.152,4.679,0.17,6.921l15.363,29.425c0.613,1.175,1.82,1.926,3.146,1.926h21.623c1.871,0,3.418-1.486,3.539-3.349
		l0.502-8.198C107.271,99.293,109.049,93.378,108.025,87.272L108.025,87.272z M66.883,58.965c0-5.571,4.561-10.104,10.131-10.104
		c5.572,0,10.051,4.534,10.051,10.104c0,2.856-1.188,5.437-3.162,7.277v-3.149c0-0.752-0.203-2.135-0.203-2.135
		c0.182-0.634,0.309-1.302,0.309-1.993c0-3.856-3.121-6.981-6.973-6.981c-3.857,0-6.977,3.125-6.977,6.981
		c0,0.633,0.088,1.247,0.242,1.828c0,0.013-0.045,0.028-0.051,0.039c-0.225,0.704-0.396,1.463-0.396,2.262v3.075
		C68.133,64.333,66.883,61.783,66.883,58.965L66.883,58.965z M99.096,106.441c-0.057,0.085-0.094,0.184-0.1,0.286l-0.539,8.839
		c-0.023,0.305-0.275,0.572-0.586,0.572H76.248c-0.221,0-0.424-0.146-0.523-0.338L60.33,86.315c-1.959-3.225,0.797-6.25,3.609-6.25
		c1.248,0,2.504,0.588,3.365,2.014l1.971,3.027c0.406,0.626,0.969,0.904,1.588,0.904c1.01,0,1.951-0.761,1.951-1.991V63.093
		c0-2.719,2.025-4.079,4.066-4.079c2.037,0,4.066,1.359,4.066,4.079v11.895c0,0.334,0.334,0.589,0.648,0.589
		c0.055,0,0.15-0.011,0.209-0.031c0.574-0.185,1.434-0.385,2.377-0.385c1.613,0,3.543,0.598,4.889,2.912
		c0.113,0.195,0.322,0.31,0.537,0.31c0.072,0,0.145-0.012,0.209-0.038c0.545-0.198,1.492-0.475,2.576-0.475
		c1.514,0,3.289,0.537,4.621,2.563c0.314,0.484,0.854,0.776,1.432,0.811c1.832,0.101,5.729,0.986,6.658,6.52
		C106,93.075,104.459,98.312,99.096,106.441L99.096,106.441z M99.096,106.441"/>
</g>
</svg>
