<?xml version="1.0" encoding="utf-8"?>
<!-- Generator: Adobe Illustrator 16.0.0, SVG Export Plug-In . SVG Version: 6.00 Build 0)  -->
<!DOCTYPE svg PUBLIC "-//W3C//DTD SVG 1.1//EN" "http://www.w3.org/Graphics/SVG/1.1/DTD/svg11.dtd">
<svg version="1.1" id="Layer_1" xmlns="http://www.w3.org/2000/svg" xmlns:xlink="http://www.w3.org/1999/xlink" x="0px" y="0px"
	 width="65px" height="65px" viewBox="0 0 65 65" enable-background="new 0 0 65 65" xml:space="preserve">
<g>
	<circle fill="#22C9FF" stroke="#FFFFFF" stroke-miterlimit="10" cx="32.5" cy="32.5" r="30"/>
	<g>
		<g>
			<defs>
				<rect id="SVGID_1_" x="20.688" y="15.764" width="23.626" height="33.472"/>
			</defs>
			<clipPath id="SVGID_2_">
				<use xlink:href="#SVGID_1_"  overflow="visible"/>
			</clipPath>
			<path clip-path="url(#SVGID_2_)" fill="#FFFFFF" stroke="#22C9FF" stroke-width="0.5" stroke-miterlimit="10" d="M44.12,34.651
				c-0.558-3.317-2.991-3.96-4.05-4.08c-0.751-1.01-1.836-1.563-3.084-1.563c-0.303,0-0.583,0.031-0.835,0.077
				c-0.743-0.852-1.784-1.313-2.941-1.313c-0.024,0-0.103,0-0.103,0v-1.014c1.688-1.059,2.801-2.918,2.801-5.031
				c0-3.288-2.66-5.963-5.946-5.963c-3.291,0-5.983,2.676-5.983,5.964c0,2.098,1.141,3.944,2.716,5.009v4.935l-0.048-0.114
				c-0.607-0.985-1.568-1.549-2.665-1.549c-1.181,0-2.314,0.666-2.897,1.699c-0.555,0.987-0.524,2.136,0.079,3.16L28.176,48.3
				c0.281,0.537,0.832,0.88,1.437,0.88h9.873c0.854,0,1.561-0.679,1.614-1.529l0.23-3.743C43.775,40.138,44.587,37.438,44.12,34.651
				L44.12,34.651z M25.337,21.728c0-2.544,2.083-4.613,4.625-4.613c2.545,0,4.589,2.069,4.589,4.613
				c0,1.304-0.541,2.482-1.443,3.322v-1.438c0-0.343-0.094-0.975-0.094-0.975c0.084-0.289,0.141-0.594,0.141-0.909
				c0-1.761-1.424-3.188-3.183-3.188c-1.761,0-3.185,1.427-3.185,3.188c0,0.289,0.04,0.569,0.11,0.834
				c0,0.006-0.021,0.013-0.023,0.018c-0.103,0.321-0.18,0.668-0.18,1.032v1.404C25.908,24.178,25.337,23.014,25.337,21.728
				L25.337,21.728z M40.043,43.401c-0.025,0.039-0.043,0.084-0.045,0.131l-0.247,4.035c-0.01,0.14-0.124,0.262-0.266,0.262h-9.873
				c-0.1,0-0.193-0.066-0.237-0.154l-7.029-13.461c-0.895-1.473,0.364-2.854,1.647-2.854c0.57,0,1.144,0.269,1.537,0.919l0.9,1.382
				c0.187,0.286,0.441,0.413,0.724,0.413c0.461,0,0.891-0.348,0.891-0.909v-9.554c0-1.241,0.926-1.861,1.857-1.861
				c0.93,0,1.856,0.62,1.856,1.861v5.432c0,0.151,0.153,0.269,0.296,0.269c0.025,0,0.068-0.005,0.096-0.014
				c0.261-0.084,0.653-0.177,1.085-0.177c0.735,0,1.618,0.273,2.23,1.33c0.053,0.089,0.148,0.142,0.247,0.142
				c0.032,0,0.064-0.007,0.095-0.018c0.249-0.091,0.681-0.218,1.175-0.218c0.691,0,1.502,0.245,2.11,1.171
				c0.144,0.221,0.39,0.354,0.653,0.369c0.837,0.047,2.615,0.451,3.04,2.977C43.196,37.3,42.492,39.69,40.043,43.401L40.043,43.401z
				 M40.043,43.401"/>
			<use xlink:href="#SVGID_1_"  overflow="visible" fill="none" stroke="#22C9FF" stroke-width="0.5" stroke-miterlimit="10"/>
		</g>
	</g>
</g>
</svg>
