<?xml version="1.0" encoding="utf-8"?>
<!-- Generator: Adobe Illustrator 16.0.0, SVG Export Plug-In . SVG Version: 6.00 Build 0)  -->
<!DOCTYPE svg PUBLIC "-//W3C//DTD SVG 1.1//EN" "http://www.w3.org/Graphics/SVG/1.1/DTD/svg11.dtd">
<svg version="1.1" id="Layer_1" xmlns="http://www.w3.org/2000/svg" xmlns:xlink="http://www.w3.org/1999/xlink" x="0px" y="0px"
	 width="58.242px" height="37.926px" viewBox="0 0 58.242 37.926" enable-background="new 0 0 58.242 37.926" xml:space="preserve">
<g>
	<path fill="#FFFFFF" d="M42.703,15.425c6.389,0,11.203-2.482,11.203-5.781c0-3.297-4.814-5.781-11.203-5.781
		S31.502,6.347,31.502,9.644C31.502,12.943,36.314,15.425,42.703,15.425L42.703,15.425z M42.703,6.347
		c5.328,0,8.729,1.957,8.729,3.309c0,1.35-3.4,3.307-8.729,3.307s-8.729-1.957-8.729-3.307C33.975,8.304,37.375,6.347,42.703,6.347
		L42.703,6.347z M42.703,6.347"/>
	<path fill="#FFFFFF" d="M52.967,15.277c-0.639-0.236-1.35,0.092-1.586,0.732c-0.525,1.432-3.988,2.977-8.668,2.977
		c-4.555,0-7.967-1.463-8.625-2.875c-0.289-0.617-1.031-0.887-1.648-0.598c-0.619,0.289-0.887,1.031-0.598,1.648
		c1.205,2.576,5.574,4.3,10.871,4.3c2.525,0,4.977-0.414,6.926-1.176c2.145-0.835,3.555-2.021,4.07-3.433
		C53.936,16.224,53.605,15.513,52.967,15.277L52.967,15.277z M52.967,15.277"/>
	<path fill="#FFFFFF" d="M52.967,21.573c-0.639-0.236-1.35,0.094-1.586,0.732c-0.525,1.434-3.988,2.979-8.668,2.979
		c-4.555,0-7.967-1.463-8.625-2.875c-0.289-0.619-1.031-0.887-1.648-0.598c-0.619,0.287-0.887,1.029-0.598,1.648
		c1.205,2.576,5.574,4.297,10.871,4.297c2.525,0,4.977-0.412,6.926-1.174c2.145-0.836,3.555-2.021,4.07-3.432
		C53.936,22.522,53.605,21.811,52.967,21.573L52.967,21.573z M52.967,21.573"/>
	<path fill="#FFFFFF" d="M52.967,27.881c-0.639-0.238-1.35,0.092-1.586,0.73c-0.525,1.432-3.988,2.979-8.668,2.979
		c-4.555,0-7.967-1.463-8.625-2.875c-0.289-0.619-1.031-0.887-1.648-0.598c-0.619,0.289-0.887,1.031-0.598,1.648
		c1.205,2.576,5.574,4.297,10.871,4.297c2.525,0,4.977-0.412,6.926-1.174c2.145-0.836,3.555-2.02,4.07-3.432
		C53.936,28.819,53.605,28.108,52.967,27.881L52.967,27.881z M52.967,27.881"/>
	<path fill="#FFFFFF" d="M25.793,27.881c-0.641-0.238-1.352,0.092-1.588,0.73c-0.525,1.432-3.988,2.979-8.666,2.979
		c-4.557,0-7.967-1.463-8.627-2.875c-0.287-0.619-1.029-0.887-1.648-0.598c-0.617,0.289-0.887,1.031-0.598,1.648
		c1.205,2.576,5.576,4.297,10.873,4.297c2.523,0,4.977-0.412,6.924-1.174c2.145-0.836,3.557-2.02,4.07-3.432
		C26.762,28.819,26.432,28.108,25.793,27.881L25.793,27.881z M25.793,27.881"/>
	<path fill="#FFFFFF" d="M15.539,15.308c-6.391,0-11.203,2.482-11.203,5.78c0,3.299,4.813,5.783,11.203,5.783
		c6.389,0,11.201-2.484,11.201-5.783C26.74,17.791,21.928,15.308,15.539,15.308L15.539,15.308z M15.539,24.397
		c-5.328,0-8.729-1.959-8.729-3.309c0-1.351,3.4-3.308,8.729-3.308s8.727,1.957,8.727,3.308
		C24.266,22.438,20.867,24.397,15.539,24.397L15.539,24.397z M15.539,24.397"/>
</g>
</svg>
