<?xml version="1.0" encoding="utf-8"?>
<!-- Generator: Adobe Illustrator 16.0.0, SVG Export Plug-In . SVG Version: 6.00 Build 0)  -->
<!DOCTYPE svg PUBLIC "-//W3C//DTD SVG 1.1//EN" "http://www.w3.org/Graphics/SVG/1.1/DTD/svg11.dtd">
<svg version="1.1" id="Layer_1" xmlns="http://www.w3.org/2000/svg" xmlns:xlink="http://www.w3.org/1999/xlink" x="0px" y="0px"
	 width="165px" height="165px" viewBox="0 0 165 165" enable-background="new 0 0 165 165" xml:space="preserve">
<text transform="matrix(1 0 0 1 -896.5332 -862.1323)"><tspan x="0" y="0" font-family="'NirmalaUI-Semilight'" font-size="51.9193">Idea Zone:</tspan><tspan x="0" y="62.303" font-family="'NirmalaUI-Semilight'" font-size="51.9193">1) Post &amp; Explore Ideas</tspan><tspan x="0" y="124.606" font-family="'NirmalaUI-Semilight'" font-size="51.9193">2) Validate Idea</tspan><tspan x="0" y="186.909" font-family="'NirmalaUI-Semilight'" font-size="51.9193">3) Gather Support</tspan><tspan x="0" y="249.212" font-family="'NirmalaUI-Semilight'" font-size="51.9193">4) Execute Business</tspan><tspan x="0" y="373.819" font-family="'NirmalaUI-Semilight'" font-size="51.9193">Gain:</tspan><tspan x="0" y="436.122" font-family="'NirmalaUI-Semilight'" font-size="51.9193">1) Create Profile</tspan><tspan x="0" y="498.425" font-family="'NirmalaUI-Semilight'" font-size="51.9193">2) Choose Opportunity</tspan><tspan x="0" y="560.728" font-family="'NirmalaUI-Semilight'" font-size="51.9193">3) Gather Support</tspan><tspan x="0" y="623.031" font-family="'NirmalaUI-Semilight'" font-size="51.9193">4) Execute Business</tspan><tspan x="0" y="809.94" font-family="'NirmalaUI-Semilight'" font-size="51.9193">Earn:</tspan><tspan x="0" y="872.244" font-family="'NirmalaUI-Semilight'" font-size="51.9193">1) Create Profile</tspan><tspan x="0" y="934.546" font-family="'NirmalaUI-Semilight'" font-size="51.9193">2) Maintain Trust factor</tspan><tspan x="0" y="996.85" font-family="'NirmalaUI-Semilight'" font-size="51.9193">3) Show Interest &amp; Get Work</tspan><tspan x="0" y="1059.153" font-family="'NirmalaUI-Semilight'" font-size="51.9193">4) Perform &amp; Earn</tspan><tspan x="0" y="1183.759" font-family="'NirmalaUI-Semilight'" font-size="51.9193">Learn: </tspan><tspan x="0" y="1246.062" font-family="'NirmalaUI-Semilight'" font-size="51.9193">1) Create Profile / Select Skills</tspan><tspan x="0" y="1308.365" font-family="'NirmalaUI-Semilight'" font-size="51.9193">2) Share your knowledge</tspan><tspan x="0" y="1370.668" font-family="'NirmalaUI-Semilight'" font-size="51.9193">3) Ask your Questions</tspan><tspan x="0" y="1432.971" font-family="'NirmalaUI-Semilight'" font-size="51.9193">4) Learn from each other / Apply at work</tspan></text>
<g>
	<linearGradient id="SVGID_1_" gradientUnits="userSpaceOnUse" x1="52.0459" y1="82.5" x2="112.9541" y2="82.5">
		<stop  offset="0" style="stop-color:#675ADF"/>
		<stop  offset="0.1898" style="stop-color:#6166E3"/>
		<stop  offset="0.5359" style="stop-color:#5287EE"/>
		<stop  offset="0.9964" style="stop-color:#3ABCFF"/>
		<stop  offset="1" style="stop-color:#3ABCFF"/>
	</linearGradient>
	<path fill="none" stroke="url(#SVGID_1_)" stroke-width="4" stroke-miterlimit="10" d="M110.954,117.051H54.046v-3.031
		c0-3.483,1.9-6.687,4.955-8.354l12.088-6.592c2.025-1.104,3.281-3.22,3.281-5.523v-5.446l0,0l-0.265-0.316l-0.048-0.058
		c-0.004-0.005-0.088-0.109-0.229-0.286c-0.003-0.012-0.013-0.023-0.024-0.032c-0.072-0.094-0.152-0.207-0.248-0.339
		c-0.007-0.005-0.007-0.009-0.007-0.009c-0.201-0.278-0.457-0.645-0.735-1.083c-0.009-0.007-0.013-0.021-0.024-0.029
		c-0.131-0.208-0.269-0.433-0.414-0.674c-0.01-0.015-0.021-0.035-0.034-0.054c-0.306-0.515-0.629-1.093-0.951-1.738l-0.007-0.001
		c-0.167-0.345-0.339-0.709-0.51-1.087l0,0c-0.022-0.053-0.045-0.103-0.07-0.159l0,0c-0.071-0.169-0.146-0.344-0.225-0.528
		c-0.026-0.067-0.053-0.136-0.082-0.204c-0.069-0.177-0.139-0.353-0.217-0.56c-0.139-0.371-0.27-0.756-0.394-1.154l-0.073-0.24
		c-0.014-0.025-0.02-0.052-0.024-0.082c-0.128-0.429-0.252-0.864-0.354-1.315l-0.123-0.538l-0.462-0.298
		c-0.788-0.505-1.254-1.354-1.254-2.27v-5.42c0-0.759,0.321-1.471,0.91-2l0.442-0.405v-8.436v-0.479l-0.032-0.027
		c-0.049-0.979,0.009-3.976,2.193-6.474c2.249-2.557,6.082-3.858,11.391-3.858c5.288,0,9.113,1.292,11.36,3.831
		c2.641,2.984,2.203,6.799,2.195,6.829l-0.006,8.614l0.446,0.407c0.584,0.527,0.907,1.239,0.907,1.998v5.42
		c0,1.182-0.773,2.216-1.928,2.571L94.8,77.828l-0.213,0.67c-0.91,2.819-2.201,5.424-3.843,7.74
		c-0.402,0.572-0.793,1.077-1.131,1.464l-0.341,0.382v5.592c0,2.396,1.332,4.552,3.475,5.625l12.949,6.469
		c3.242,1.623,5.258,4.885,5.258,8.512V117.051z"/>
	<linearGradient id="SVGID_2_" gradientUnits="userSpaceOnUse" x1="3.8398" y1="82.5" x2="161.1602" y2="82.5">
		<stop  offset="0" style="stop-color:#675ADF"/>
		<stop  offset="0.1898" style="stop-color:#6166E3"/>
		<stop  offset="0.5359" style="stop-color:#5287EE"/>
		<stop  offset="0.9964" style="stop-color:#3ABCFF"/>
		<stop  offset="1" style="stop-color:#3ABCFF"/>
	</linearGradient>
	<path fill="none" stroke="url(#SVGID_2_)" stroke-width="5" stroke-miterlimit="10" d="M158.66,82.5
		c0,42.062-34.102,76.16-76.16,76.16c-42.063,0-76.16-34.098-76.16-76.16C6.34,40.438,40.438,6.34,82.5,6.34
		C124.559,6.34,158.66,40.438,158.66,82.5z"/>
</g>
</svg>
