<?xml version="1.0" encoding="utf-8"?>
<!-- Generator: Adobe Illustrator 16.0.0, SVG Export Plug-In . SVG Version: 6.00 Build 0)  -->
<!DOCTYPE svg PUBLIC "-//W3C//DTD SVG 1.1//EN" "http://www.w3.org/Graphics/SVG/1.1/DTD/svg11.dtd">
<svg version="1.1" id="Layer_1" xmlns="http://www.w3.org/2000/svg" xmlns:xlink="http://www.w3.org/1999/xlink" x="0px" y="0px"
	 width="70px" height="70px" viewBox="0 0 70 70" enable-background="new 0 0 70 70" xml:space="preserve">
<g>
	<circle fill="#22C9FF" stroke="#FFFFFF" stroke-miterlimit="10" cx="35" cy="35" r="30"/>
	<g>
		
			<rect x="20.466" y="19.836" fill="#22C9FF" stroke="#FFFFFF" stroke-width="0.7" stroke-miterlimit="10" width="28.934" height="29.326"/>
		<path fill="#FFFFFF" stroke="#22C9FF" stroke-width="0.2" stroke-miterlimit="10" d="M42.411,46.004"/>
		<path fill="#FFFFFF" stroke="#22C9FF" stroke-width="0.2" stroke-miterlimit="10" d="M42.61,25.096h-9.901
			c-0.304,0-0.55-0.242-0.55-0.551c0-0.303,0.246-0.547,0.55-0.547h9.901c0.303,0,0.551,0.244,0.551,0.547
			C43.161,24.854,42.913,25.096,42.61,25.096L42.61,25.096z M42.61,25.096"/>
		<path fill="#FFFFFF" stroke="#22C9FF" stroke-width="0.2" stroke-miterlimit="10" d="M42.61,32.799h-9.901
			c-0.304,0-0.55-0.244-0.55-0.549c0-0.307,0.246-0.551,0.55-0.551h9.901c0.303,0,0.551,0.244,0.551,0.551
			C43.161,32.555,42.913,32.799,42.61,32.799L42.61,32.799z M42.61,32.799"/>
		<path fill="#FFFFFF" stroke="#22C9FF" stroke-width="0.2" stroke-miterlimit="10" d="M25.046,34.451
			c-0.116,0-0.231-0.039-0.33-0.111l-2.515-1.887c-0.241-0.182-0.293-0.527-0.11-0.77s0.526-0.293,0.771-0.111l2.104,1.578
			l3.436-4.012c0.198-0.23,0.546-0.254,0.776-0.059c0.23,0.199,0.258,0.545,0.059,0.775l-3.771,4.402
			C25.354,34.383,25.202,34.451,25.046,34.451L25.046,34.451z M25.046,34.451"/>
		<path fill="#FFFFFF" stroke="#22C9FF" stroke-width="0.2" stroke-miterlimit="10" d="M25.046,27.299
			c-0.116,0-0.231-0.037-0.33-0.111l-2.515-1.885c-0.241-0.184-0.293-0.529-0.11-0.771s0.526-0.293,0.771-0.109l2.104,1.576
			l3.436-4.01c0.198-0.232,0.546-0.256,0.776-0.061c0.23,0.199,0.258,0.545,0.059,0.777l-3.771,4.4
			C25.354,27.23,25.202,27.299,25.046,27.299L25.046,27.299z M25.046,27.299"/>
		<path fill="#FFFFFF" stroke="#22C9FF" stroke-width="0.2" stroke-miterlimit="10" d="M25.046,42.701
			c-0.116,0-0.231-0.037-0.33-0.109l-2.515-1.889c-0.241-0.18-0.293-0.525-0.11-0.77c0.183-0.242,0.526-0.291,0.771-0.109
			l2.104,1.578l3.436-4.012c0.198-0.23,0.546-0.254,0.776-0.059c0.23,0.199,0.258,0.545,0.059,0.777l-3.771,4.398
			C25.354,42.635,25.202,42.701,25.046,42.701L25.046,42.701z M25.046,42.701"/>
		<g>
			<path fill="#FFFFFF" stroke="#FFFFFF" stroke-width="0.7" stroke-miterlimit="10" d="M32.709,39.4
				c-0.304,0-0.55,0.246-0.55,0.551s0.246,0.551,0.55,0.551h2.849c0.064-0.379,0.16-0.746,0.285-1.102H32.709z"/>
			<path fill="none" stroke="#FFFFFF" stroke-width="0.7" stroke-miterlimit="10" d="M35.559,40.611
				c-0.054,0.322-0.089,0.652-0.089,0.99c0,3.283,2.662,5.947,5.946,5.947c3.286,0,5.948-2.664,5.948-5.947
				c0-3.285-2.662-5.947-5.948-5.947c-2.588,0-4.784,1.656-5.601,3.965"/>
		</g>
		<path fill="#FFFFFF" stroke="#22C9FF" stroke-width="0.2" stroke-miterlimit="10" d="M44.757,38.281
			c-0.25-0.176-0.592-0.113-0.766,0.137l-3.078,4.424l-2.174-1.783c-0.233-0.193-0.58-0.158-0.773,0.074
			c-0.193,0.236-0.158,0.584,0.078,0.775l2.633,2.162c0.1,0.08,0.22,0.125,0.349,0.125c0.024,0,0.048-0.002,0.075-0.006
			c0.15-0.021,0.287-0.105,0.377-0.23l3.416-4.914C45.068,38.797,45.007,38.455,44.757,38.281L44.757,38.281z M44.757,38.281"/>
	</g>
</g>
</svg>
