<?xml version="1.0" encoding="utf-8"?>
<!-- Generator: Adobe Illustrator 16.0.0, SVG Export Plug-In . SVG Version: 6.00 Build 0)  -->
<!DOCTYPE svg PUBLIC "-//W3C//DTD SVG 1.1//EN" "http://www.w3.org/Graphics/SVG/1.1/DTD/svg11.dtd">
<svg version="1.1" id="Layer_1" xmlns="http://www.w3.org/2000/svg" xmlns:xlink="http://www.w3.org/1999/xlink" x="0px" y="0px"
	 width="50px" height="50px" viewBox="0 0 50 50" enable-background="new 0 0 50 50" xml:space="preserve">
<g>
	<linearGradient id="SVGID_1_" gradientUnits="userSpaceOnUse" x1="3.1035" y1="25" x2="46.8965" y2="25">
		<stop  offset="0" style="stop-color:#675ADF"/>
		<stop  offset="1" style="stop-color:#3ABCFF"/>
	</linearGradient>
	<circle fill="url(#SVGID_1_)" cx="25" cy="25.001" r="21.896"/>
	<g>
		<g>
			<g>
				<path fill="#FFFFFF" d="M30.318,14.701H28.34v-1.186c0-0.219-0.177-0.396-0.395-0.396h-6.33c-0.219,0-0.395,0.178-0.395,0.396
					v10.68c0,0.219,0.176,0.396,0.395,0.396h1.979v1.186c0,0.219,0.176,0.396,0.395,0.396h6.33c0.218,0,0.395-0.177,0.395-0.396
					v-10.68C30.713,14.878,30.536,14.701,30.318,14.701z M27.549,13.91v0.719c-0.335-0.119-0.6-0.383-0.719-0.719H27.549z
					 M22.012,13.91h0.717c-0.119,0.336-0.383,0.6-0.717,0.719V13.91z M22.012,23.8v-0.719c0.334,0.119,0.598,0.383,0.717,0.719
					H22.012z M23.554,23.8c-0.16-0.777-0.767-1.385-1.542-1.543v-6.805c0.775-0.16,1.382-0.766,1.542-1.543h2.452
					c0.16,0.777,0.767,1.383,1.543,1.543v6.805c-0.776,0.158-1.383,0.766-1.543,1.543H23.554z M27.549,23.082V23.8H26.83
					C26.949,23.464,27.214,23.201,27.549,23.082z M29.922,25.382h-5.537v-0.791h3.561c0.218,0,0.395-0.178,0.395-0.396v-8.701h1.582
					V25.382z"/>
			</g>
		</g>
		<g>
			<g>
				<path fill="#FFFFFF" d="M24.779,17.076c-0.873,0-1.582,0.707-1.582,1.582c0,0.873,0.709,1.582,1.582,1.582
					c0.875,0,1.582-0.709,1.582-1.582C26.361,17.783,25.654,17.076,24.779,17.076z M24.779,19.449c-0.436,0-0.791-0.355-0.791-0.791
					c0-0.438,0.355-0.791,0.791-0.791c0.438,0,0.793,0.354,0.793,0.791C25.572,19.093,25.217,19.449,24.779,19.449z"/>
			</g>
		</g>
		<g>
			<g>
				<rect x="19.639" y="13.119" fill="#FFFFFF" width="0.789" height="3.164"/>
			</g>
		</g>
		<g>
			<g>
				<rect x="18.055" y="13.119" fill="#FFFFFF" width="0.791" height="1.582"/>
			</g>
		</g>
		<g>
			<g>
				<rect x="31.506" y="13.91" fill="#FFFFFF" width="0.789" height="3.166"/>
			</g>
		</g>
		<g>
			<g>
				<rect x="33.088" y="13.119" fill="#FFFFFF" width="0.791" height="1.582"/>
			</g>
		</g>
		<g>
			<g>
				<path fill="#FFFFFF" d="M37.309,27.489c-0.336-0.336-0.793-0.525-1.269-0.525h-0.104c-0.396,0-0.781,0.131-1.094,0.371
					l-3.84,2.955c-0.558,0.428-1.211,0.713-1.903,0.834l-5.036,0.861c-0.227,0.031-0.435-0.129-0.465-0.355
					c-0.004-0.018-0.004-0.037-0.004-0.055c0-0.195,0.137-0.363,0.327-0.406l3.86-0.826c0.922-0.197,1.51-1.104,1.313-2.025
					c-0.168-0.789-0.864-1.354-1.67-1.354h-2.979c-0.861,0-1.719,0.107-2.555,0.316l-3.045,0.76v-0.68
					c0-0.219-0.177-0.396-0.395-0.396h-3.957c-0.217,0-0.395,0.178-0.395,0.396v9.098c0,0.219,0.178,0.396,0.395,0.396H28.26
					c0.656,0,1.291-0.234,1.792-0.66l7.257-6.168C38.01,29.327,38.01,28.19,37.309,27.489z M18.055,36.061h-3.164v-8.305h3.164
					V36.061z M36.772,29.446l-7.233,6.146c-0.357,0.303-0.811,0.469-1.279,0.469h-9.414v-7.205l3.238-0.811
					c0.771-0.191,1.565-0.291,2.361-0.289h2.979c0.506,0,0.916,0.412,0.915,0.918c-0.001,0.432-0.303,0.803-0.724,0.895
					l-3.861,0.828c-0.65,0.141-1.062,0.783-0.92,1.434c0.135,0.617,0.725,1.025,1.35,0.936l5.049-0.865
					c0.82-0.141,1.593-0.479,2.253-0.984l3.839-2.953c0.175-0.135,0.39-0.207,0.611-0.207h0.104c0.554,0,1.003,0.447,1.003,1.002
					C37.045,29.014,36.947,29.258,36.772,29.446z"/>
			</g>
		</g>
	</g>
</g>
</svg>
