<?xml version="1.0" encoding="utf-8"?>
<!-- Generator: Adobe Illustrator 16.0.0, SVG Export Plug-In . SVG Version: 6.00 Build 0)  -->
<!DOCTYPE svg PUBLIC "-//W3C//DTD SVG 1.1//EN" "http://www.w3.org/Graphics/SVG/1.1/DTD/svg11.dtd">
<svg version="1.1" id="Layer_1" xmlns="http://www.w3.org/2000/svg" xmlns:xlink="http://www.w3.org/1999/xlink" x="0px" y="0px"
	 width="25px" height="23px" viewBox="0 0 25 23" enable-background="new 0 0 25 23" xml:space="preserve">
<path fill="#22C9FF" d="M21.252,3.697c-2.081-2.082-5.453-2.082-7.533,0L3.359,14.055c-1.563,1.561-1.563,4.09,0,5.65
	c1.285,1.287,3.226,1.496,4.742,0.66c0.16-0.01,0.314-0.068,0.438-0.186L18.898,9.818c1.039-1.041,1.039-2.727,0-3.768
	c-1.041-1.039-2.728-1.039-3.769,0l-8.476,8.479c-0.26,0.258-0.26,0.68,0,0.939s0.681,0.26,0.943,0l8.475-8.477
	c0.521-0.52,1.365-0.52,1.883,0c0.521,0.523,0.521,1.363,0,1.883l-9.889,9.891c-1.039,1.041-2.727,1.041-3.766,0
	c-1.041-1.041-1.041-2.727,0-3.768L14.66,4.637c1.561-1.561,4.09-1.561,5.65,0s1.561,4.092,0,5.65l-9.418,9.418
	c-0.26,0.26-0.26,0.682,0,0.943c0.26,0.258,0.682,0.258,0.942,0l9.417-9.42C23.334,9.148,23.334,5.775,21.252,3.697z"/>
</svg>
