<?xml version="1.0" encoding="utf-8"?>
<!-- Generator: Adobe Illustrator 16.0.0, SVG Export Plug-In . SVG Version: 6.00 Build 0)  -->
<!DOCTYPE svg PUBLIC "-//W3C//DTD SVG 1.1//EN" "http://www.w3.org/Graphics/SVG/1.1/DTD/svg11.dtd">
<svg version="1.1" id="Layer_1" xmlns="http://www.w3.org/2000/svg" xmlns:xlink="http://www.w3.org/1999/xlink" x="0px" y="0px"
	 width="115.864px" height="115.511px" viewBox="0 0 115.864 115.511" enable-background="new 0 0 115.864 115.511"
	 xml:space="preserve">
<g>
	<g>
		<g>
			<path fill="#FFFFFF" d="M77.316,11.937h-8.813V6.65c0-0.973-0.787-1.762-1.762-1.762H38.547c-0.973,0-1.762,0.789-1.762,1.762
				v47.58c0,0.973,0.789,1.762,1.762,1.762h8.811v5.287c0,0.975,0.789,1.762,1.764,1.762h28.195c0.971,0,1.762-0.787,1.762-1.762
				v-47.58C79.078,12.726,78.287,11.937,77.316,11.937z M64.98,8.412v3.201c-1.492-0.533-2.668-1.707-3.201-3.201H64.98z
				 M40.309,8.412h3.201c-0.533,1.494-1.709,2.668-3.201,3.201V8.412z M40.309,52.468v-3.201c1.494,0.533,2.668,1.709,3.201,3.201
				H40.309z M47.182,52.468c-0.713-3.459-3.414-6.16-6.873-6.873v-30.31c3.459-0.713,6.16-3.414,6.873-6.873h10.926
				c0.713,3.459,3.414,6.16,6.873,6.873v30.31c-3.459,0.713-6.16,3.414-6.873,6.873H47.182z M64.98,49.267v3.201h-3.201
				C62.313,50.976,63.488,49.8,64.98,49.267z M75.555,59.517H50.883v-3.525h15.859c0.975,0,1.762-0.789,1.762-1.762V15.46h7.051
				V59.517z"/>
		</g>
	</g>
	<g>
		<g>
			<path fill="#FFFFFF" d="M52.645,22.509c-3.893,0-7.049,3.156-7.049,7.049c0,3.895,3.156,7.049,7.049,7.049
				s7.049-3.154,7.049-7.049C59.693,25.665,56.537,22.509,52.645,22.509z M52.645,33.083c-1.947,0-3.523-1.578-3.523-3.525
				c0-1.945,1.576-3.523,3.523-3.523s3.525,1.578,3.525,3.523C56.17,31.505,54.592,33.083,52.645,33.083z"/>
		</g>
	</g>
	<g>
		<g>
			<rect x="29.736" y="4.888" fill="#FFFFFF" width="3.523" height="14.097"/>
		</g>
	</g>
	<g>
		<g>
			<rect x="22.688" y="4.888" fill="#FFFFFF" width="3.523" height="7.049"/>
		</g>
	</g>
	<g>
		<g>
			<rect x="82.604" y="8.412" fill="#FFFFFF" width="3.523" height="14.097"/>
		</g>
	</g>
	<g>
		<g>
			<rect x="89.652" y="4.888" fill="#FFFFFF" width="3.523" height="7.049"/>
		</g>
	</g>
	<g>
		<g>
			<path fill="#FFFFFF" d="M108.459,68.905c-1.498-1.498-3.533-2.34-5.652-2.34h-0.467c-1.762,0.002-3.475,0.584-4.873,1.656
				L80.365,81.378c-2.484,1.908-5.395,3.182-8.482,3.713l-22.434,3.842c-1.01,0.135-1.938-0.572-2.076-1.582
				c-0.01-0.082-0.016-0.164-0.016-0.246c0.004-0.869,0.611-1.619,1.459-1.805l17.197-3.688c4.107-0.875,6.729-4.918,5.852-9.025
				c-0.748-3.512-3.85-6.021-7.438-6.021H51.156c-3.838,0.002-7.66,0.477-11.381,1.41l-13.564,3.383v-3.031
				c0-0.973-0.789-1.762-1.762-1.762H6.826c-0.973,0-1.762,0.789-1.762,1.762v40.531c0,0.973,0.789,1.764,1.762,1.764h61.318
				c2.926-0.002,5.756-1.043,7.986-2.938l32.328-27.477C111.58,77.089,111.58,72.028,108.459,68.905z M22.688,107.097h-14.1V70.091
				h14.1V107.097z M106.07,77.62L73.85,105.001c-1.594,1.354-3.615,2.096-5.705,2.096H26.211V74.991l14.42-3.605
				c3.443-0.861,6.977-1.297,10.525-1.295H64.42c2.256,0.004,4.082,1.836,4.076,4.092c-0.002,1.922-1.346,3.582-3.223,3.984
				l-17.197,3.688c-2.896,0.631-4.732,3.492-4.102,6.391c0.6,2.752,3.225,4.57,6.012,4.17l22.494-3.852
				c3.652-0.627,7.096-2.135,10.035-4.391l17.102-13.156c0.781-0.598,1.738-0.924,2.723-0.926h0.463
				c2.467,0.002,4.467,2,4.471,4.467C107.283,75.694,106.852,76.792,106.07,77.62z"/>
		</g>
	</g>
</g>
</svg>
