<?xml version="1.0" encoding="utf-8"?>
<!-- Generator: Adobe Illustrator 16.0.0, SVG Export Plug-In . SVG Version: 6.00 Build 0)  -->
<!DOCTYPE svg PUBLIC "-//W3C//DTD SVG 1.1//EN" "http://www.w3.org/Graphics/SVG/1.1/DTD/svg11.dtd">
<svg version="1.1" id="Layer_1" xmlns="http://www.w3.org/2000/svg" xmlns:xlink="http://www.w3.org/1999/xlink" x="0px" y="0px"
	 width="30px" height="30px" viewBox="0 0 30 30" enable-background="new 0 0 30 30" xml:space="preserve">
<g>
	<g>
		<g>
			<polygon fill="#2637FF" points="15,23.229 22.562,26.544 22.478,26.605 21.576,18.397 21.572,18.358 21.599,18.33 27.131,12.203 
				27.177,12.346 19.104,10.616 19.078,10.61 19.065,10.587 15,3.401 19.169,10.528 19.13,10.499 27.213,12.176 27.361,12.207 
				27.26,12.319 21.727,18.445 21.748,18.379 22.597,26.592 22.607,26.696 22.513,26.653 			"/>
		</g>
	</g>
	<g>
		<g>
			<polygon fill="#2637FF" points="15,3.401 10.935,10.587 10.921,10.61 10.896,10.616 2.822,12.345 2.869,12.203 8.402,18.33 
				8.429,18.358 8.424,18.397 7.522,26.605 7.438,26.544 15,23.229 7.487,26.653 7.393,26.696 7.403,26.592 8.252,18.379 
				8.273,18.446 2.741,12.319 2.64,12.207 2.787,12.176 10.87,10.5 10.831,10.528 			"/>
		</g>
	</g>
</g>
</svg>
