<?xml version="1.0" encoding="UTF-8"?>
<svg width="127px" height="153px" viewBox="0 0 127 153" version="1.1" xmlns="http://www.w3.org/2000/svg" xmlns:xlink="http://www.w3.org/1999/xlink">
    <!-- Generator: Sketch 49.2 (51160) - http://www.bohemiancoding.com/sketch -->
    <title>entrepreneur</title>
    <desc>Created with Sketch.</desc>
    <defs>
        <linearGradient x1="-3.38154762%" y1="49.9047285%" x2="102.847917%" y2="49.9047285%" id="linearGradient-1">
            <stop stop-color="#675ADF" offset="0%"></stop>
            <stop stop-color="#3ABCFF" offset="100%"></stop>
        </linearGradient>
        <linearGradient x1="-0.991050112%" y1="49.9230363%" x2="100.708369%" y2="49.9230363%" id="linearGradient-2">
            <stop stop-color="#675ADF" offset="0%"></stop>
            <stop stop-color="#3ABCFF" offset="100%"></stop>
        </linearGradient>
    </defs>
    <g id="Page-1" stroke="none" stroke-width="1" fill="none" fill-rule="evenodd">
        <g id="Artboard" transform="translate(-587.000000, -183.000000)" fill="#FFFFFF">
            <g id="Banner" transform="translate(86.000000, 110.000000)">
                <g id="Group">
                    <g transform="translate(416.000000, 0.000000)" id="entrepreneur">
                        <g transform="translate(87.000000, 74.000000)">
                            <g id="Group">
                                <path d="M104.3,17.2 C104.3,26.5 96.8,34 87.5,34 C78.2,34 70.7,26.5 70.7,17.2 C70.7,7.9 78.2,0.4 87.5,0.4 C96.7,0.3 104.3,7.9 104.3,17.2 Z" id="Shape" stroke="url(#linearGradient-1)" stroke-width="2" fill-rule="nonzero"></path>
                                <path d="M79.5,32.9 L74.5,31 L22.1,18.2 L14.7,21.9 L18.2,27.4 L66,32.1 C59.6,32.8 52.9,34.9 46.8,38.4 C37.6,43.6 31.3,51.1 29,59.4 C29,59.5 28.9,59.7 28.9,59.8 C28.2,59.6 27.5,59.7 26.9,60.3 L25.2,61.9 L18.3,54.6 L0.1,71.6 L23.1,96.2 L41.3,79.2 L34.4,71.9 L36.1,70.3 C36.9,69.6 36.9,68.5 36.4,67.6 C38.8,67.2 40.9,65.4 41.5,62.9 C42.8,58 47.1,53.3 53.1,49.8 C54.4,49 55.8,48.4 57.2,47.8 L48.2,76.1 C47.7,77.8 47.6,79.5 47.8,81.1 L41.4,98.1 L21.6,99.1 C17.3,99.3 14.1,102.9 14.3,107.2 C14.5,111.3 17.9,114.6 22,114.6 C22.1,114.6 22.3,114.6 22.4,114.6 L47.3,113.4 C50.4,113.3 53.1,111.3 54.2,108.4 L59.7,93.6 C60.4,93.8 61,93.9 61.7,94 L71.8,108.6 L63.1,140.8 C62,144.9 64.4,149.2 68.6,150.3 C69.3,150.5 70,150.6 70.6,150.6 C74,150.6 77.1,148.3 78,144.9 L87.6,109.3 C88.2,107.1 87.8,104.8 86.5,102.9 L76.7,88 C77.2,87.2 77.6,86.4 77.9,85.4 L86.3,59.2 C88.8,60.8 91.6,62.1 94.8,62.9 C97.8,63.7 100.8,64.1 103.8,64.1 C110.5,64.1 116.8,62.1 121.2,58.4 C124,56.1 124.3,51.9 122,49.2 C119.7,46.4 115.5,46.1 112.8,48.4 C109.7,51 103.8,51.8 98.3,50.3 C93.9,49.1 90.6,46.6 89.6,43.7 C89.5,43.4 89.4,43.2 89.3,42.9 C88.2,39.3 85.5,36.3 82.5,34.3 C81.8,33.7 81,33.2 80.1,32.9 C79.7,32.7 79.1,32.5 79.1,32.5 L79.5,32.9 Z M35.1,69 L33.4,70.6 L26.5,63.2 L28.2,61.6 C28.3,61.5 28.6,61.5 28.7,61.6 L29,61.9 C29.3,64.5 31.1,66.8 33.8,67.5 C34,67.6 34.2,67.6 34.4,67.6 L34.5,67.7 L35.2,68.5 C35.3,68.6 35.3,68.8 35.1,69 Z" id="Shape" stroke="url(#linearGradient-2)" stroke-width="2" fill-rule="nonzero"></path>
                            </g>
                        </g>
                    </g>
                </g>
            </g>
        </g>
    </g>
</svg>