<?xml version="1.0" encoding="utf-8"?>
<!-- Generator: Adobe Illustrator 16.0.0, SVG Export Plug-In . SVG Version: 6.00 Build 0)  -->
<!DOCTYPE svg PUBLIC "-//W3C//DTD SVG 1.1//EN" "http://www.w3.org/Graphics/SVG/1.1/DTD/svg11.dtd">
<svg version="1.1" id="Layer_1" xmlns="http://www.w3.org/2000/svg" xmlns:xlink="http://www.w3.org/1999/xlink" x="0px" y="0px"
	 width="70px" height="70px" viewBox="0 0 70 70" enable-background="new 0 0 70 70" xml:space="preserve">
<g>
	<circle fill="#22C9FF" stroke="#FFFFFF" stroke-miterlimit="10" cx="35" cy="35" r="30"/>
	<g>
		<g>
			<g>
				<path fill="#FFFFFF" stroke="#22C9FF" stroke-width="0.6" stroke-miterlimit="10" d="M49.95,45.98l-4.581-4.582
					c-0.844-0.844-2.092-1.006-3.085-0.529l-1.717-1.717c1.762-2.055,2.831-4.723,2.831-7.637c0-6.477-5.271-11.744-11.746-11.744
					c-6.477,0-11.744,5.268-11.744,11.744c0,6.475,5.268,11.744,11.744,11.744c2.913,0,5.582-1.066,7.639-2.83l1.715,1.717
					c-0.476,0.994-0.314,2.24,0.53,3.086c0.429,0.428,4.127,4.127,4.582,4.58c1.056,1.057,2.774,1.057,3.832,0
					C51.009,48.754,51.01,47.039,49.95,45.98z M31.652,41.453c-5.479,0-9.937-4.459-9.937-9.938s4.457-9.938,9.937-9.938
					s9.938,4.459,9.938,9.938C41.59,36.996,37.132,41.453,31.652,41.453z M42.814,43.955c-0.354-0.354-0.354-0.926,0-1.279
					c0.354-0.352,0.925-0.352,1.277,0l0.639,0.641l-1.277,1.277L42.814,43.955z M48.673,48.537c-0.353,0.352-0.926,0.35-1.277,0
					l-2.666-2.666l1.279-1.277l2.664,2.664C49.023,47.609,49.023,48.182,48.673,48.537z"/>
			</g>
		</g>
		<g>
			<g>
				<path fill="#FFFFFF" stroke="#22C9FF" stroke-width="0.6" stroke-miterlimit="10" d="M34.273,30.387
					c0.613-0.648,0.993-1.523,0.993-2.484c0-1.992-1.621-3.613-3.614-3.613c-1.992,0-3.613,1.621-3.613,3.613
					c0,0.961,0.379,1.836,0.993,2.484c-1.668,0.924-2.8,2.703-2.8,4.742v1.807c0,0.5,0.404,0.904,0.903,0.904h9.033
					c0.5,0,0.903-0.404,0.903-0.904v-1.807C37.072,33.09,35.941,31.311,34.273,30.387z M31.652,26.094
					c0.997,0,1.807,0.813,1.807,1.809s-0.81,1.807-1.807,1.807c-0.996,0-1.807-0.811-1.807-1.807S30.656,26.094,31.652,26.094z
					 M35.267,36.033h-7.228v-0.904c0-1.992,1.621-3.613,3.613-3.613c1.993,0,3.614,1.621,3.614,3.613V36.033z"/>
			</g>
		</g>
	</g>
</g>
</svg>
