<?xml version="1.0" encoding="utf-8"?>
<!-- Generator: Adobe Illustrator 16.0.0, SVG Export Plug-In . SVG Version: 6.00 Build 0)  -->
<!DOCTYPE svg PUBLIC "-//W3C//DTD SVG 1.1//EN" "http://www.w3.org/Graphics/SVG/1.1/DTD/svg11.dtd">
<svg version="1.1" id="Layer_1" xmlns="http://www.w3.org/2000/svg" xmlns:xlink="http://www.w3.org/1999/xlink" x="0px" y="0px"
	 width="11.407px" height="23.303px" viewBox="0 0 11.407 23.303" enable-background="new 0 0 11.407 23.303" xml:space="preserve">
<g>
	<path id="Facebook_2_" fill="#8C96A9" d="M2.966,5.321c0,0.52,0,2.846,0,2.846H0.88v3.479h2.086v10.34h4.283v-10.34h2.873
		c0,0,0.27-1.668,0.4-3.492c-0.375,0-3.256,0-3.256,0s0-2.023,0-2.379s0.465-0.832,0.926-0.832s1.434,0,2.334,0
		c0-0.475,0-2.113,0-3.625c-1.201,0-2.57,0-3.172,0C2.86,1.317,2.966,4.802,2.966,5.321z"/>
</g>
</svg>
