<?xml version="1.0" encoding="UTF-8"?>
<svg width="118px" height="172px" viewBox="0 0 118 172" version="1.1" xmlns="http://www.w3.org/2000/svg" xmlns:xlink="http://www.w3.org/1999/xlink">
    <!-- Generator: Sketch 49.2 (51160) - http://www.bohemiancoding.com/sketch -->
    <title>freelancer</title>
    <desc>Created with Sketch.</desc>
    <defs>
        <linearGradient x1="-2.36689684%" y1="49.1860096%" x2="102.994846%" y2="49.1860096%" id="linearGradient-1">
            <stop stop-color="#675ADF" offset="0%"></stop>
            <stop stop-color="#3ABCFF" offset="100%"></stop>
        </linearGradient>
        <linearGradient x1="-3.25684932%" y1="49.8191163%" x2="103.312329%" y2="49.8191163%" id="linearGradient-2">
            <stop stop-color="#675ADF" offset="0%"></stop>
            <stop stop-color="#3ABCFF" offset="100%"></stop>
        </linearGradient>
        <linearGradient x1="-0.811379453%" y1="49.9300777%" x2="101.011044%" y2="49.9300777%" id="linearGradient-3">
            <stop stop-color="#675ADF" offset="0%"></stop>
            <stop stop-color="#3ABCFF" offset="100%"></stop>
        </linearGradient>
    </defs>
    <g id="Page-1" stroke="none" stroke-width="1" fill="none" fill-rule="evenodd">
        <g id="Artboard" transform="translate(-1008.000000, -162.000000)" fill="#FFFFFF">
            <g id="Banner" transform="translate(86.000000, 110.000000)">
                <g id="Group">
                    <g transform="translate(832.000000, 0.000000)" id="freelancer">
                        <g transform="translate(91.000000, 53.000000)">
                            <g id="Group">
                                <path d="M1.8,156.5 C-0.7,160.2 0.3,165.2 3.9,167.7 C7.6,170.2 12.6,169.2 15.1,165.6 C16.3,163.8 28.9,145.4 41.2,127.4 L31.4,113.1 C17.3,133.8 2.8,155.1 1.8,156.5 Z" id="Shape" stroke="url(#linearGradient-1)" stroke-width="2" fill-rule="nonzero"></path>
                                <path d="M24.6,15.2 C24.6,23.2 31.1,29.8 39.2,29.8 C47.2,29.8 53.8,23.3 53.8,15.2 C53.8,7.2 47.3,0.7 39.2,0.7 C31.2,0.6 24.6,7.2 24.6,15.2 Z" id="Shape" stroke="url(#linearGradient-2)" stroke-width="2" fill-rule="nonzero"></path>
                                <path d="M112.1,96.4 L100.7,96.4 L100.7,90.6 C100.7,89 99.4,87.7 97.8,87.7 L91.7,87.7 C91.9,86.3 91.5,84.9 90.7,83.6 C89.6,82 60.1,39.1 60.1,39.1 C57.9,35.9 54.8,34.5 51.4,34.5 L28.4,34.5 C25.5,34.5 22.3,35.7 20.4,38.3 C20.4,38.3 6.6,57.1 3.6,61.3 C2.7,62.5 2.3,64 2.5,65.4 C2.5,68.4 2.5,83.7 2.5,88.3 C2.5,91.7 5.2,94.4 8.5,94.4 C11.8,94.4 14.6,91.7 14.6,88.4 C14.6,87 14.6,73.5 14.6,66.9 C16.4,64.5 19.8,59.8 23.3,55 L23.3,84 C23.3,90.6 24.1,96 27.5,100.9 C37.6,115.7 69.8,162.6 71.8,165.6 C74.3,169.3 79.3,170.2 83,167.7 C86.7,165.2 87.6,160.2 85.1,156.5 C84.5,155.6 77.7,145.6 68.9,132.9 L112,132.9 C114,132.9 115.7,131.2 115.7,129.2 L115.7,100.1 C115.8,98 114.2,96.4 112.1,96.4 Z M72.4,90.5 L72.4,96.3 L61.4,96.3 C59.4,96.3 57.7,98 57.7,100 L57.7,116.4 C56.5,114.6 55.3,112.8 54,111.1 L54,51.5 C61.9,63 74,80.6 78.9,87.7 L75.2,87.7 C73.7,87.7 72.4,88.9 72.4,90.5 Z M95.1,96.4 L78.2,96.4 L78.2,93.4 L95.1,93.4 L95.1,96.4 Z" id="Shape" stroke="url(#linearGradient-3)" stroke-width="2" fill-rule="nonzero"></path>
                            </g>
                        </g>
                    </g>
                </g>
            </g>
        </g>
    </g>
</svg>