<?xml version="1.0" encoding="utf-8"?>
<!-- Generator: Adobe Illustrator 16.0.0, SVG Export Plug-In . SVG Version: 6.00 Build 0)  -->
<!DOCTYPE svg PUBLIC "-//W3C//DTD SVG 1.1//EN" "http://www.w3.org/Graphics/SVG/1.1/DTD/svg11.dtd">
<svg version="1.1" id="Layer_1" xmlns="http://www.w3.org/2000/svg" xmlns:xlink="http://www.w3.org/1999/xlink" x="0px" y="0px"
	 width="30px" height="30px" viewBox="0 0 30 30" enable-background="new 0 0 30 30" xml:space="preserve">
<g>
	<g>
		<linearGradient id="SVGID_1_" gradientUnits="userSpaceOnUse" x1="2.8037" y1="15" x2="27.1963" y2="15">
			<stop  offset="0" style="stop-color:#675ADF"/>
			<stop  offset="1" style="stop-color:#3ABCFF"/>
		</linearGradient>
		<polygon fill="url(#SVGID_1_)" points="27.196,12.261 19.116,10.558 14.999,3.401 10.882,10.558 2.804,12.261 8.337,18.388 
			7.462,26.599 14.999,23.23 22.536,26.599 21.661,18.388 		"/>
		<g>
			<path fill="#2637FF" d="M27.196,12.261l-8.084-1.684l-0.009-0.002l-0.005-0.008l-4.134-7.146h0.068l-4.1,7.166L10.92,10.61
				l-0.025,0.006L2.82,12.339l0.043-0.131l5.548,6.113l0.03,0.033l-0.006,0.044l-0.894,8.208L7.43,26.526l7.545-3.351l0.024-0.011
				l0.024,0.011l7.529,3.388l-0.057,0.041l-0.855-8.213v-0.009l0.006-0.007L27.196,12.261z M27.196,12.261l-5.521,6.14l0.006-0.015
				l0.895,8.208l0.008,0.069l-0.064-0.028l-7.545-3.351h0.049l-7.528,3.387l-0.128,0.057l0.015-0.139l0.856-8.213l0.024,0.077
				l-5.519-6.141l-0.092-0.103l0.135-0.028l8.082-1.684l-0.039,0.029l4.135-7.146l0.034-0.061l0.034,0.061l4.101,7.166l-0.014-0.01
				L27.196,12.261z"/>
		</g>
	</g>
</g>
</svg>
