<?xml version="1.0" encoding="utf-8"?>
<!-- Generator: Adobe Illustrator 16.0.0, SVG Export Plug-In . SVG Version: 6.00 Build 0)  -->
<!DOCTYPE svg PUBLIC "-//W3C//DTD SVG 1.1//EN" "http://www.w3.org/Graphics/SVG/1.1/DTD/svg11.dtd">
<svg version="1.1" id="Layer_1" xmlns="http://www.w3.org/2000/svg" xmlns:xlink="http://www.w3.org/1999/xlink" x="0px" y="0px"
	 width="129.186px" height="128.607px" viewBox="0 0 129.186 128.607" enable-background="new 0 0 129.186 128.607"
	 xml:space="preserve">
<g>
	<g>
		<g>
			<path fill="#FFFFFF" d="M105.202,6.547c-9.453,0-17.145,7.691-17.145,17.146s7.691,17.146,17.145,17.146
				c9.455,0,17.148-7.691,17.148-17.146S114.657,6.547,105.202,6.547z M105.202,30.258c-1.41,0-2.559-0.947-2.559-2.113
				c0-1.246-1.01-2.256-2.257-2.256c-1.245,0-2.255,1.01-2.255,2.256c0,2.914,2.02,5.393,4.814,6.277v1.701
				c-5.894-1.068-10.377-6.232-10.377-12.43c0-6.195,4.483-11.359,10.377-12.428v1.861c-2.795,0.885-4.814,3.363-4.814,6.277
				c0,3.654,3.171,6.627,7.07,6.627c1.412,0,2.559,0.947,2.559,2.113S106.614,30.258,105.202,30.258z M107.46,36.123v-1.701
				c2.795-0.885,4.814-3.363,4.814-6.277c0-3.654-3.172-6.627-7.072-6.627c-1.41,0-2.559-0.947-2.559-2.113
				c0-1.164,1.148-2.113,2.559-2.113c1.412,0,2.559,0.949,2.559,2.113c0,1.246,1.012,2.256,2.258,2.256
				c1.243,0,2.256-1.01,2.256-2.256c0-2.914-2.02-5.393-4.814-6.277v-1.861c5.893,1.068,10.377,6.232,10.377,12.428
				C117.837,29.891,113.353,35.055,107.46,36.123z"/>
		</g>
	</g>
	<g>
		<g>
			<path fill="#FFFFFF" d="M87.153,35.734h-8.832c-1.246,0-2.256,1.01-2.256,2.256s1.01,2.256,2.256,2.256h3.385L57.585,64.369
				L45.329,52.113c-0.881-0.881-2.311-0.881-3.192,0L17.601,76.65c-0.881,0.879-0.881,2.309,0,3.189
				c0.441,0.439,1.02,0.66,1.596,0.66c0.578,0,1.156-0.221,1.596-0.66l22.941-22.941l12.256,12.256c0.881,0.883,2.309,0.883,3.188,0
				l25.72-25.717v3.387c0,1.244,1.01,2.254,2.256,2.254s2.256-1.01,2.256-2.254V37.99C89.409,36.744,88.399,35.734,87.153,35.734z"
				/>
		</g>
	</g>
	<g>
		<g>
			<g>
				<path fill="#FFFFFF" d="M120.093,117.549h-1.805V51.67c0-1.246-1.01-2.256-2.256-2.256H97.983c-1.246,0-2.256,1.01-2.256,2.256
					v24.141c0,1.246,1.01,2.256,2.256,2.256s2.256-1.01,2.256-2.256V53.926h13.537v63.623h-13.537V97.918
					c0-1.248-1.01-2.256-2.256-2.256s-2.256,1.008-2.256,2.256v19.631h-5.416V66.561c0-1.246-1.01-2.256-2.256-2.256H70.007
					c-1.246,0-2.256,1.01-2.256,2.256v50.988h-6.316v-37c0-1.246-1.01-2.256-2.258-2.256H41.128c-1.244,0-2.256,1.01-2.256,2.256v37
					h-5.414V94.988c0-1.246-1.01-2.258-2.256-2.258H13.153c-1.246,0-2.256,1.012-2.256,2.258v22.561H9.091
					c-1.244,0-2.256,1.01-2.256,2.256s1.012,2.256,2.256,2.256h111.002c1.246,0,2.256-1.01,2.256-2.256
					S121.339,117.549,120.093,117.549z M28.946,117.549H15.409V97.244h13.537V117.549z M56.921,117.549H43.386V82.805h13.535
					V117.549z M85.8,117.549H72.262V68.816H85.8V117.549z"/>
			</g>
		</g>
		<rect x="95.728" y="64.373" fill="#FFFFFF" width="4.512" height="42.5"/>
	</g>
</g>
</svg>
