<?xml version="1.0" encoding="utf-8"?>
<!-- Generator: Adobe Illustrator 16.0.0, SVG Export Plug-In . SVG Version: 6.00 Build 0)  -->
<!DOCTYPE svg PUBLIC "-//W3C//DTD SVG 1.1//EN" "http://www.w3.org/Graphics/SVG/1.1/DTD/svg11.dtd">
<svg version="1.1" id="Layer_1" xmlns="http://www.w3.org/2000/svg" xmlns:xlink="http://www.w3.org/1999/xlink" x="0px" y="0px"
	 width="50px" height="50px" viewBox="0 0 50 50" enable-background="new 0 0 50 50" xml:space="preserve">
<g>
	<linearGradient id="SVGID_1_" gradientUnits="userSpaceOnUse" x1="3.1035" y1="25" x2="46.8965" y2="25">
		<stop  offset="0" style="stop-color:#675ADF"/>
		<stop  offset="1" style="stop-color:#3ABCFF"/>
	</linearGradient>
	<circle fill="url(#SVGID_1_)" cx="25" cy="25" r="21.896"/>
	<g>
		<g>
			<g>
				<path fill="#FFFFFF" d="M33.508,11.777c-1.945,0-3.527,1.582-3.527,3.526s1.582,3.526,3.527,3.526
					c1.943,0,3.525-1.582,3.525-3.526S35.451,11.777,33.508,11.777z M33.508,16.653c-0.291,0-0.527-0.194-0.527-0.435
					c0-0.256-0.207-0.464-0.463-0.464c-0.258,0-0.465,0.208-0.465,0.464c0,0.6,0.416,1.109,0.99,1.291v0.35
					c-1.211-0.219-2.133-1.281-2.133-2.556s0.922-2.337,2.133-2.556v0.383c-0.574,0.182-0.99,0.691-0.99,1.291
					c0,0.752,0.652,1.362,1.455,1.362c0.289,0,0.525,0.194,0.525,0.435S33.797,16.653,33.508,16.653z M33.971,17.859v-0.35
					c0.576-0.182,0.99-0.691,0.99-1.291c0-0.752-0.652-1.362-1.453-1.362c-0.291,0-0.527-0.194-0.527-0.435s0.236-0.436,0.527-0.436
					c0.289,0,0.525,0.195,0.525,0.436c0,0.256,0.207,0.464,0.465,0.464c0.256,0,0.463-0.208,0.463-0.464
					c0-0.6-0.414-1.109-0.99-1.291v-0.383c1.213,0.219,2.135,1.281,2.135,2.556S35.184,17.641,33.971,17.859z"/>
			</g>
		</g>
		<g>
			<g>
				<path fill="#FFFFFF" d="M29.795,17.779h-1.816c-0.256,0-0.463,0.207-0.463,0.465c0,0.256,0.207,0.463,0.463,0.463h0.697
					l-4.961,4.961l-2.52-2.521c-0.182-0.181-0.475-0.181-0.656,0l-5.047,5.046c-0.182,0.182-0.182,0.475,0,0.656
					c0.092,0.09,0.211,0.136,0.328,0.136c0.119,0,0.238-0.046,0.328-0.136l4.719-4.718l2.52,2.521c0.182,0.182,0.475,0.182,0.656,0
					l5.289-5.289v0.697c0,0.256,0.207,0.463,0.463,0.463c0.258,0,0.465-0.207,0.465-0.463v-1.816
					C30.26,17.986,30.053,17.779,29.795,17.779z"/>
			</g>
		</g>
		<g>
			<g>
				<g>
					<path fill="#FFFFFF" d="M36.568,34.604h-0.371V21.057c0-0.256-0.207-0.464-0.463-0.464h-3.713
						c-0.256,0-0.463,0.208-0.463,0.464v4.965c0,0.256,0.207,0.463,0.463,0.463c0.258,0,0.465-0.207,0.465-0.463v-4.501h2.783
						v13.083h-2.783v-4.037c0-0.256-0.207-0.463-0.465-0.463c-0.256,0-0.463,0.207-0.463,0.463v4.037h-1.113V24.119
						c0-0.257-0.209-0.465-0.465-0.465H26.27c-0.256,0-0.465,0.208-0.465,0.465v10.484h-1.299v-7.607
						c0-0.258-0.207-0.465-0.463-0.465H20.33c-0.256,0-0.463,0.207-0.463,0.465v7.607h-1.113v-4.639
						c0-0.257-0.207-0.465-0.465-0.465h-3.711c-0.256,0-0.465,0.208-0.465,0.465v4.639h-0.371c-0.256,0-0.463,0.208-0.463,0.464
						c0,0.257,0.207,0.464,0.463,0.464h22.826c0.258,0,0.465-0.207,0.465-0.464C37.033,34.812,36.826,34.604,36.568,34.604z
						 M17.826,34.604h-2.783v-4.175h2.783V34.604z M23.578,34.604h-2.783v-7.145h2.783V34.604z M29.518,34.604h-2.783V24.582h2.783
						V34.604z"/>
				</g>
			</g>
			<rect x="31.559" y="23.669" fill="#FFFFFF" width="0.928" height="8.739"/>
		</g>
	</g>
</g>
</svg>
