<?xml version="1.0" encoding="utf-8"?>
<!-- Generator: Adobe Illustrator 16.0.0, SVG Export Plug-In . SVG Version: 6.00 Build 0)  -->
<!DOCTYPE svg PUBLIC "-//W3C//DTD SVG 1.1//EN" "http://www.w3.org/Graphics/SVG/1.1/DTD/svg11.dtd">
<svg version="1.1" id="Layer_1" xmlns="http://www.w3.org/2000/svg" xmlns:xlink="http://www.w3.org/1999/xlink" x="0px" y="0px"
	 width="162.709px" height="162.708px" viewBox="0 0 162.709 162.708" enable-background="new 0 0 162.709 162.708"
	 xml:space="preserve">
<linearGradient id="SVGID_1_" gradientUnits="userSpaceOnUse" x1="5.4902" y1="81.3535" x2="157.2188" y2="81.3535">
	<stop  offset="0" style="stop-color:#385CAA"/>
	<stop  offset="1" style="stop-color:#49BDEA"/>
</linearGradient>
<circle fill="none" stroke="url(#SVGID_1_)" stroke-width="3" stroke-miterlimit="10" cx="81.354" cy="81.353" r="74.364"/>
<g>
	<g>
		<g>
			<g>
				<linearGradient id="SVGID_2_" gradientUnits="userSpaceOnUse" x1="35.2373" y1="81.3545" x2="127.4707" y2="81.3545">
					<stop  offset="0" style="stop-color:#385CAA"/>
					<stop  offset="1" style="stop-color:#49BDEA"/>
				</linearGradient>
				<path fill="url(#SVGID_2_)" d="M127.039,66.056L109.15,48.167c-0.576-0.576-1.508-0.576-2.084,0l-8.945,8.945
					c-0.275,0.273-0.43,0.648-0.43,1.041c0,0.391,0.154,0.764,0.43,1.041l0.895,0.893l-2.051,2.049
					c-1.332,1.33-3.395,1.695-5.139,0.902c-1.633-0.742-3.449-1.135-5.254-1.135c-2.141,0-4.232,0.539-6.09,1.559
					c-0.775-0.191-1.57-0.289-2.377-0.289c-1.16,0-2.301,0.199-3.391,0.594c-1.736,0.633-3.604,0.24-4.863-1.02l-3.682-3.684
					l0.439-0.438c0.275-0.275,0.43-0.65,0.43-1.041c0-0.393-0.154-0.766-0.43-1.043l-8.943-8.943c-0.578-0.574-1.512-0.574-2.086,0
					L35.668,67.511c-0.574,0.576-0.574,1.508,0,2.082l8.943,8.945c0.277,0.275,0.654,0.432,1.043,0.432
					c0.393,0,0.766-0.156,1.041-0.432l0.533-0.533l2.6,2.596c0.652,0.656,1.088,1.475,1.254,2.365
					c0.863,4.627,3.078,8.834,6.408,12.166l0.488,0.488c-0.939,0.988-1.457,2.277-1.457,3.646c0,1.416,0.555,2.748,1.555,3.75
					c1.035,1.033,2.391,1.549,3.75,1.549c0.086,0,0.176-0.002,0.262-0.006c-0.07,1.443,0.445,2.912,1.545,4.014
					c1.002,1,2.334,1.553,3.75,1.553c0.039,0,0.078-0.004,0.117-0.004c-0.029,1.396,0.486,2.803,1.549,3.865
					c1,1.002,2.332,1.553,3.748,1.553s2.748-0.551,3.748-1.553c0.084-0.084,0.164-0.172,0.242-0.26
					c0.521,0.184,1.072,0.279,1.631,0.279c1.324,0,2.568-0.518,3.502-1.453c0.496-0.496,0.875-1.08,1.119-1.717l0.15,0.15
					c0.965,0.967,2.232,1.449,3.502,1.449c1.268,0,2.535-0.482,3.502-1.449c0.512-0.512,0.898-1.117,1.143-1.777
					c0.863,0.629,1.887,0.941,2.91,0.941c1.268,0,2.537-0.482,3.504-1.447c0.934-0.936,1.449-2.18,1.449-3.502
					c0-0.4-0.049-0.793-0.139-1.172c0.941-0.191,1.811-0.654,2.506-1.352c0.934-0.936,1.451-2.18,1.451-3.502
					c0-1.041-0.324-2.033-0.916-2.865l1.182-1.182c3.367-3.371,5.594-7.629,6.436-12.316c0.141-0.785,0.529-1.516,1.125-2.109
					l4.395-4.395l0.773,0.773c0.287,0.287,0.664,0.432,1.041,0.432s0.756-0.145,1.043-0.432l8.943-8.945
					c0.277-0.275,0.432-0.65,0.432-1.041S127.316,66.331,127.039,66.056z M45.654,75.413l-6.859-6.861l17.828-17.826l6.859,6.859
					L45.654,75.413z M63.49,100.933c-0.92,0.918-2.412,0.92-3.33,0c-0.445-0.445-0.691-1.035-0.691-1.666
					c0-0.629,0.246-1.219,0.691-1.664c0.459-0.461,1.061-0.689,1.666-0.689c0.602,0,1.205,0.229,1.664,0.689
					C64.41,98.521,64.41,100.015,63.49,100.933z M69.047,106.491c-0.443,0.443-1.035,0.688-1.664,0.688s-1.223-0.244-1.666-0.688
					c-0.92-0.92-0.92-2.414,0-3.332c0.459-0.461,1.061-0.689,1.666-0.689c0.604,0,1.205,0.229,1.664,0.689
					C69.965,104.077,69.965,105.571,69.047,106.491z M74.463,111.903c-0.445,0.445-1.037,0.691-1.666,0.691
					s-1.221-0.246-1.666-0.691c-0.918-0.916-0.918-2.412,0-3.33c0.459-0.459,1.061-0.689,1.666-0.689
					c0.602,0,1.207,0.23,1.666,0.689C75.381,109.491,75.381,110.987,74.463,111.903z M99.48,100.597
					c-0.377,0.379-0.881,0.588-1.416,0.588s-1.039-0.209-1.42-0.588L82.354,86.308c-0.574-0.574-1.508-0.574-2.08,0
					c-0.576,0.576-0.576,1.51,0,2.084l15.393,15.391c0.379,0.381,0.588,0.883,0.588,1.42s-0.209,1.039-0.588,1.418
					c-0.781,0.783-2.055,0.783-2.838,0l-2.598-2.598c-0.014-0.014-0.027-0.029-0.043-0.043c-0.004-0.004-0.01-0.008-0.014-0.014
					L78.236,92.028c-0.576-0.574-1.508-0.574-2.082,0c-0.578,0.576-0.578,1.508,0,2.084l11.975,11.977
					c0.365,0.375,0.568,0.871,0.568,1.398c0,0.535-0.211,1.039-0.588,1.418c-0.781,0.781-2.053,0.781-2.836,0L72.287,95.919
					c-0.576-0.576-1.508-0.576-2.084,0c-0.574,0.576-0.574,1.508,0,2.084l9.629,9.625c0,0.002,0.002,0.006,0.006,0.008
					c0.379,0.379,0.586,0.883,0.586,1.416c0,0.537-0.207,1.039-0.588,1.42c-0.379,0.379-0.881,0.588-1.418,0.588
					c-0.129,0-0.256-0.014-0.381-0.037c0.238-1.605-0.258-3.299-1.492-4.533c-1-1-2.332-1.553-3.748-1.553
					c-0.039,0-0.078,0.002-0.117,0.002c0.029-1.395-0.486-2.801-1.549-3.863c-1.002-1.002-2.332-1.553-3.748-1.553
					c-0.09,0-0.178,0.002-0.266,0.006c0.07-1.443-0.443-2.91-1.545-4.012c-1.34-1.338-3.221-1.809-4.943-1.414l-1.057-1.055
					c-2.906-2.91-4.842-6.582-5.594-10.621c-0.275-1.48-0.992-2.832-2.068-3.91l-2.598-2.596l14.773-14.773l3.682,3.682
					c1.416,1.416,3.342,2.172,5.316,2.172c0.883,0,1.777-0.15,2.637-0.465c0.418-0.15,0.852-0.26,1.287-0.33l-9.119,9.123
					c-1.115,1.115-1.73,2.598-1.73,4.176s0.615,3.063,1.729,4.178c1.152,1.152,2.666,1.727,4.178,1.727
					c1.514,0,3.027-0.574,4.178-1.727l4.582-4.58l1.24,1.24l0,0l0.053,0.053l0.049,0.049c0,0,0,0,0,0.002h0.002
					c0.014,0.014,0.027,0.027,0.041,0.041l17.273,17.271c0.379,0.379,0.586,0.881,0.586,1.418S99.861,100.218,99.48,100.597z
					 M108.76,78.622c-1.021,1.021-1.693,2.291-1.941,3.67c-0.734,4.094-2.678,7.813-5.619,10.756l-1.131,1.131l-9.32-9.318
					c0.203,0.016,0.406,0.025,0.609,0.025c0.947,0,1.91-0.166,2.873-0.559c0.752-0.309,1.113-1.168,0.807-1.922
					c-0.309-0.754-1.17-1.115-1.922-0.805c-3.793,1.551-8.336-2.725-8.844-3.217c-0.008-0.01-0.018-0.018-0.025-0.025l-0.053-0.053
					l0,0l-0.045-0.045c0,0,0-0.002-0.002-0.002l-1.238-1.238l1.406-1.408c0.574-0.576,0.574-1.508,0-2.082
					c-0.576-0.574-1.508-0.576-2.082,0l-2.447,2.445c0,0-0.002,0-0.002,0.002c-0.002,0.002-0.002,0.002-0.002,0.002l-5.621,5.621
					c-1.156,1.154-3.033,1.154-4.188,0c-0.561-0.559-0.869-1.305-0.869-2.096s0.309-1.535,0.869-2.094l9.699-9.701
					c0.541-0.539,1.141-1.014,1.785-1.41c1.531-0.947,3.301-1.449,5.115-1.449c1.387,0,2.781,0.301,4.037,0.871
					c2.852,1.295,6.244,0.691,8.439-1.502l2.051-2.051l12.057,12.057L108.76,78.622z M117.053,73.956l-15.805-15.803l6.861-6.861
					l15.805,15.805L117.053,73.956z"/>
			</g>
		</g>
		<g>
			<g>
				<linearGradient id="SVGID_3_" gradientUnits="userSpaceOnUse" x1="117.0625" y1="68.2236" x2="120.0098" y2="68.2236">
					<stop  offset="0" style="stop-color:#385CAA"/>
					<stop  offset="1" style="stop-color:#49BDEA"/>
				</linearGradient>
				<circle fill="url(#SVGID_3_)" cx="118.537" cy="68.224" r="1.473"/>
			</g>
		</g>
	</g>
	<g>
		<g>
			<linearGradient id="SVGID_4_" gradientUnits="userSpaceOnUse" x1="43.4141" y1="69.6777" x2="46.3613" y2="69.6777">
				<stop  offset="0" style="stop-color:#385CAA"/>
				<stop  offset="1" style="stop-color:#49BDEA"/>
			</linearGradient>
			<circle fill="url(#SVGID_4_)" cx="44.887" cy="69.678" r="1.474"/>
		</g>
	</g>
</g>
</svg>
