<?xml version="1.0" encoding="utf-8"?>
<!-- Generator: Adobe Illustrator 16.0.0, SVG Export Plug-In . SVG Version: 6.00 Build 0)  -->
<!DOCTYPE svg PUBLIC "-//W3C//DTD SVG 1.1//EN" "http://www.w3.org/Graphics/SVG/1.1/DTD/svg11.dtd">
<svg version="1.1" id="Layer_1" xmlns="http://www.w3.org/2000/svg" xmlns:xlink="http://www.w3.org/1999/xlink" x="0px" y="0px"
	 width="30.939px" height="19.798px" viewBox="0 0 30.939 19.798" enable-background="new 0 0 30.939 19.798" xml:space="preserve">
<g>
	<path fill="#8C96A9" d="M11.164,11.804h4.511c-0.792,2.238-2.937,3.844-5.446,3.824c-3.046-0.021-5.563-2.459-5.682-5.502
		c-0.127-3.262,2.49-5.957,5.725-5.957c1.479,0,2.828,0.564,3.846,1.486c0.242,0.219,0.607,0.221,0.845-0.004l1.657-1.559
		c0.259-0.242,0.26-0.654,0.001-0.898c-1.613-1.529-3.777-2.482-6.165-2.529c-5.092-0.1-9.383,4.074-9.418,9.168
		c-0.036,5.129,4.111,9.301,9.234,9.301c4.926,0,8.95-3.857,9.219-8.717c0.008-0.061,0.013-2.119,0.013-2.119h-8.339
		c-0.342,0-0.619,0.277-0.619,0.619v2.268C10.545,11.527,10.822,11.804,11.164,11.804z"/>
	<path fill="#8C96A9" d="M27.145,8.505V6.289c0-0.299-0.242-0.541-0.542-0.541h-1.864c-0.301,0-0.543,0.242-0.543,0.541v2.217H21.98
		c-0.301,0-0.543,0.242-0.543,0.541v1.865c0,0.299,0.242,0.543,0.543,0.543h2.215v2.215c0,0.299,0.242,0.543,0.543,0.543h1.864
		c0.3,0,0.542-0.244,0.542-0.543v-2.215h2.217c0.299,0,0.541-0.244,0.541-0.543V9.046c0-0.299-0.242-0.541-0.541-0.541H27.145
		L27.145,8.505z"/>
</g>
</svg>
