<?xml version="1.0" encoding="utf-8"?>
<!-- Generator: Adobe Illustrator 16.0.0, SVG Export Plug-In . SVG Version: 6.00 Build 0)  -->
<!DOCTYPE svg PUBLIC "-//W3C//DTD SVG 1.1//EN" "http://www.w3.org/Graphics/SVG/1.1/DTD/svg11.dtd">
<svg version="1.1" id="Layer_1" xmlns="http://www.w3.org/2000/svg" xmlns:xlink="http://www.w3.org/1999/xlink" x="0px" y="0px"
	 width="176.966px" height="176.966px" viewBox="0 0 176.966 176.966" enable-background="new 0 0 176.966 176.966"
	 xml:space="preserve">
<g>
	<g>
		<g>
			<path fill="#525252" d="M137.007,24.879c-14.041-10.727-30.82-16.396-48.523-16.396c-21.369,0-41.459,8.322-56.568,23.432
				C16.804,47.026,8.483,67.114,8.483,88.483c0,21.396,8.338,41.504,23.482,56.619c0.506,0.506,1.174,0.762,1.838,0.762
				c0.668,0,1.334-0.256,1.844-0.766c1.016-1.016,1.014-2.664-0.004-3.68c-14.158-14.133-21.955-32.932-21.955-52.934
				c0-19.98,7.781-38.762,21.908-52.889S68.503,13.69,88.483,13.69c16.553,0,32.236,5.299,45.361,15.328
				c1.145,0.873,2.777,0.654,3.65-0.488C138.366,27.387,138.147,25.754,137.007,24.879z"/>
		</g>
	</g>
	<g>
		<g>
			<path fill="#525252" d="M145.118,31.983c-1.014-1.018-2.664-1.02-3.68-0.004c-1.018,1.016-1.02,2.664-0.004,3.682
				c14.086,14.119,21.844,32.879,21.844,52.822c0,19.979-7.781,38.762-21.908,52.889c-14.129,14.125-32.908,21.906-52.887,21.906
				c-16.494,0-32.139-5.268-45.236-15.232c-1.145-0.869-2.777-0.648-3.648,0.496c-0.871,1.143-0.648,2.775,0.496,3.646
				c14.012,10.66,30.744,16.295,48.389,16.295c21.369,0,41.457-8.322,56.568-23.432c15.109-15.109,23.432-35.199,23.432-56.568
				C168.483,67.151,160.187,47.084,145.118,31.983z"/>
		</g>
	</g>
	<g>
		<g>
			<g>
				<path fill="#525252" d="M103.401,107.444c-0.947-0.566-1.92-1.139-2.887-1.699c0.227-1.943,0.227-3.914,0-5.855
					c0.973-0.564,1.945-1.135,2.887-1.701c1.586-0.955,2.248-2.965,1.539-4.68l0,0l-2.07-4.996
					c-0.709-1.713-2.598-2.666-4.396-2.219c-1.068,0.266-2.156,0.547-3.244,0.838c-1.213-1.535-2.605-2.926-4.143-4.141
					c0.291-1.088,0.574-2.178,0.84-3.246c0.447-1.795-0.506-3.686-2.221-4.393l-4.996-2.07c-1.713-0.711-3.725-0.049-4.676,1.537
					c-0.568,0.945-1.141,1.916-1.701,2.891c-1.947-0.23-3.916-0.23-5.861-0.004c-0.559-0.977-1.133-1.947-1.697-2.887
					c-0.953-1.586-2.963-2.248-4.678-1.537l-4.996,2.07c-1.713,0.707-2.668,2.598-2.221,4.393c0.268,1.07,0.547,2.16,0.84,3.246
					c-1.535,1.213-2.93,2.605-4.141,4.141c-1.09-0.291-2.182-0.572-3.246-0.838c-1.795-0.447-3.686,0.506-4.396,2.219l-2.066,4.996
					c-0.713,1.715-0.049,3.725,1.535,4.678c0.945,0.568,1.916,1.141,2.891,1.703c-0.23,1.945-0.23,3.914-0.002,5.857
					c-0.973,0.561-1.943,1.133-2.889,1.697c-1.584,0.955-2.248,2.965-1.535,4.68l2.068,4.996c0.709,1.713,2.598,2.668,4.395,2.223
					c1.064-0.268,2.156-0.549,3.24-0.842c1.217,1.537,2.609,2.928,4.146,4.143c-0.293,1.088-0.572,2.178-0.84,3.244
					c-0.447,1.795,0.508,3.686,2.221,4.395l4.996,2.068c0.465,0.193,0.951,0.285,1.428,0.285c1.297,0,2.555-0.664,3.25-1.82
					c0.563-0.938,1.133-1.908,1.697-2.889c1.947,0.229,3.916,0.229,5.863,0c0.559,0.969,1.129,1.939,1.699,2.889
					c0.951,1.586,2.965,2.246,4.676,1.535l4.996-2.066c1.715-0.711,2.668-2.602,2.223-4.396c-0.266-1.061-0.547-2.152-0.842-3.244
					c1.535-1.213,2.93-2.604,4.143-4.143c1.088,0.293,2.176,0.572,3.244,0.842c1.797,0.445,3.688-0.51,4.396-2.223l2.07-4.996
					C105.649,110.409,104.987,108.399,103.401,107.444z M99.229,115.377c-1.025-0.258-2.072-0.529-3.111-0.811
					c-1.473-0.396-3.027,0.123-3.961,1.32c-1.07,1.377-2.313,2.617-3.686,3.688c-1.197,0.932-1.713,2.486-1.318,3.957
					c0.283,1.047,0.553,2.09,0.811,3.111l-4.594,1.902c-0.549-0.912-1.092-1.844-1.629-2.771c-0.758-1.322-2.225-2.053-3.729-1.867
					c-1.729,0.215-3.484,0.215-5.215,0c-1.512-0.188-2.971,0.545-3.732,1.865c-0.543,0.939-1.088,1.871-1.627,2.773l-4.594-1.902
					c0.256-1.025,0.525-2.072,0.807-3.111c0.398-1.473-0.119-3.027-1.318-3.961c-1.375-1.072-2.615-2.313-3.686-3.686
					c-0.932-1.197-2.49-1.715-3.959-1.318c-1.041,0.281-2.088,0.553-3.111,0.811l-1.902-4.596c0.906-0.543,1.84-1.088,2.773-1.625
					c1.32-0.762,2.053-2.225,1.865-3.732c-0.215-1.727-0.215-3.482,0-5.213c0.189-1.508-0.543-2.971-1.865-3.732
					c-0.934-0.537-1.867-1.084-2.773-1.629l1.898-4.592c1.025,0.254,2.074,0.525,3.117,0.807c1.471,0.396,3.025-0.119,3.959-1.32
					c1.07-1.375,2.313-2.615,3.686-3.686c1.197-0.932,1.713-2.486,1.316-3.959c-0.281-1.039-0.551-2.084-0.811-3.111l4.596-1.902
					c0.541,0.906,1.088,1.838,1.627,2.771c0.762,1.32,2.227,2.055,3.732,1.869c1.727-0.215,3.479-0.215,5.211,0
					c1.51,0.188,2.973-0.545,3.734-1.867c0.537-0.934,1.084-1.863,1.629-2.773l4.592,1.902c-0.256,1.027-0.529,2.072-0.809,3.113
					c-0.395,1.473,0.121,3.027,1.318,3.959c1.377,1.072,2.619,2.313,3.689,3.686c0.93,1.199,2.484,1.715,3.957,1.318
					c1.039-0.281,2.086-0.553,3.111-0.809l1.904,4.594c-0.91,0.541-1.84,1.088-2.773,1.629c-1.322,0.756-2.057,2.223-1.869,3.729
					c0.215,1.729,0.215,3.482,0,5.215c-0.188,1.506,0.547,2.973,1.867,3.732c0.932,0.535,1.861,1.082,2.775,1.627L99.229,115.377z"
					/>
			</g>
		</g>
		<g>
			<g>
				<path fill="#525252" d="M88.091,97.563L88.091,97.563c-2.896-6.998-10.945-10.332-17.943-7.434
					c-6.994,2.896-10.328,10.947-7.43,17.943c1.402,3.389,4.041,6.027,7.43,7.432c1.693,0.701,3.475,1.053,5.256,1.053
					c1.779,0,3.563-0.352,5.254-1.053C87.653,112.606,90.989,104.557,88.091,97.563z M79.116,111.78
					c-2.396,0.994-5.029,0.994-7.426,0c-2.395-0.988-4.26-2.855-5.25-5.248c-2.049-4.943,0.307-10.633,5.25-12.68
					c1.211-0.502,2.463-0.738,3.697-0.738c3.814,0,7.434,2.256,8.98,5.988C86.417,104.045,84.058,109.733,79.116,111.78z"/>
			</g>
		</g>
		<g>
			<g>
				<path fill="#525252" d="M132.888,60.362c-0.697-0.104-1.408-0.205-2.129-0.301c-0.363-1.205-0.848-2.375-1.443-3.482
					c0.439-0.578,0.873-1.154,1.293-1.721c0.93-1.26,0.797-3.045-0.313-4.154l-2.779-2.777c-1.111-1.111-2.895-1.246-4.154-0.314
					c-0.568,0.422-1.145,0.854-1.719,1.293c-1.109-0.596-2.277-1.08-3.486-1.443c-0.096-0.721-0.195-1.436-0.299-2.129
					c-0.234-1.547-1.59-2.717-3.158-2.717h-3.932c-1.566,0-2.928,1.17-3.158,2.717c-0.104,0.691-0.205,1.408-0.303,2.129
					c-1.203,0.363-2.371,0.848-3.48,1.443c-0.574-0.439-1.152-0.871-1.721-1.293c-1.26-0.932-3.045-0.797-4.154,0.314l-2.781,2.777
					c-1.107,1.109-1.242,2.895-0.311,4.154c0.42,0.566,0.854,1.143,1.293,1.721c-0.598,1.107-1.082,2.277-1.443,3.482
					c-0.721,0.098-1.436,0.197-2.129,0.301c-1.549,0.23-2.717,1.588-2.717,3.16v3.928c0,1.57,1.168,2.928,2.717,3.158
					c0.693,0.104,1.408,0.207,2.129,0.303c0.361,1.205,0.846,2.373,1.443,3.484c-0.439,0.574-0.873,1.15-1.293,1.719
					c-0.932,1.26-0.797,3.045,0.311,4.154l2.781,2.779c1.109,1.109,2.895,1.244,4.154,0.313c0.568-0.422,1.146-0.855,1.719-1.295
					c1.111,0.6,2.279,1.082,3.482,1.445c0.098,0.721,0.199,1.434,0.303,2.129c0.23,1.549,1.592,2.717,3.158,2.717h3.932
					c1.568,0,2.924-1.168,3.158-2.717c0.104-0.695,0.203-1.408,0.299-2.129c1.207-0.363,2.377-0.848,3.486-1.445
					c0.574,0.439,1.15,0.873,1.719,1.295c1.26,0.932,3.043,0.797,4.154-0.313l2.777-2.779c1.111-1.109,1.244-2.895,0.314-4.154
					c-0.42-0.568-0.854-1.145-1.293-1.719c0.596-1.111,1.08-2.279,1.443-3.484c0.721-0.096,1.432-0.197,2.129-0.303
					c1.549-0.23,2.717-1.588,2.717-3.158v-3.928C135.604,61.952,134.437,60.592,132.888,60.362z M131.774,66.905
					c-0.629,0.09-1.275,0.18-1.92,0.266c-1.281,0.166-2.326,1.072-2.666,2.311c-0.328,1.186-0.801,2.328-1.41,3.396
					c-0.633,1.117-0.537,2.5,0.252,3.523c0.396,0.518,0.789,1.033,1.172,1.547l-2.006,2.006c-0.514-0.383-1.031-0.777-1.547-1.174
					c-1.025-0.787-2.404-0.883-3.521-0.25c-1.072,0.607-2.215,1.082-3.398,1.41c-1.24,0.34-2.145,1.387-2.313,2.666
					c-0.084,0.646-0.176,1.291-0.266,1.922h-2.834c-0.094-0.631-0.18-1.275-0.266-1.922c-0.166-1.279-1.072-2.326-2.311-2.666
					c-1.186-0.328-2.328-0.803-3.4-1.41c-1.117-0.633-2.502-0.535-3.521,0.25c-0.516,0.396-1.033,0.791-1.547,1.174l-2.006-2.006
					c0.383-0.514,0.777-1.031,1.172-1.549c0.785-1.021,0.883-2.404,0.25-3.521c-0.607-1.068-1.08-2.213-1.406-3.398
					c-0.344-1.238-1.389-2.145-2.668-2.309c-0.646-0.088-1.293-0.176-1.924-0.268v-2.836c0.631-0.092,1.277-0.18,1.924-0.264
					c1.279-0.168,2.324-1.076,2.668-2.313c0.326-1.184,0.799-2.328,1.406-3.398c0.633-1.117,0.535-2.498-0.25-3.521
					c-0.395-0.516-0.789-1.035-1.172-1.547l2.006-2.006c0.514,0.383,1.031,0.777,1.547,1.174c1.02,0.785,2.404,0.885,3.521,0.25
					c1.07-0.607,2.215-1.084,3.396-1.41c1.242-0.34,2.148-1.387,2.314-2.666c0.086-0.646,0.172-1.291,0.266-1.922h2.834
					c0.09,0.631,0.182,1.275,0.266,1.922c0.168,1.279,1.072,2.326,2.313,2.666c1.184,0.326,2.326,0.803,3.398,1.408
					c1.117,0.637,2.5,0.535,3.521-0.248c0.516-0.396,1.033-0.791,1.547-1.174l2.006,2.006c-0.381,0.512-0.775,1.031-1.174,1.547
					c-0.787,1.023-0.883,2.404-0.25,3.521c0.609,1.07,1.082,2.215,1.41,3.398c0.34,1.236,1.385,2.145,2.666,2.313
					c0.645,0.086,1.291,0.172,1.92,0.266V66.905L131.774,66.905z"/>
			</g>
		</g>
		<g>
			<g>
				<path fill="#525252" d="M112.735,57.327c-4.498,0-8.158,3.66-8.158,8.158c0,4.5,3.66,8.158,8.158,8.158s8.158-3.658,8.158-8.158
					C120.894,60.987,117.233,57.327,112.735,57.327z M112.735,70.016c-2.498,0-4.533-2.031-4.533-4.531
					c0-2.498,2.033-4.533,4.533-4.533c2.498,0,4.531,2.035,4.531,4.533C117.267,67.985,115.233,70.016,112.735,70.016z"/>
			</g>
		</g>
	</g>
</g>
</svg>
