<?xml version="1.0" encoding="utf-8"?>
<!-- Generator: Adobe Illustrator 16.0.0, SVG Export Plug-In . SVG Version: 6.00 Build 0)  -->
<!DOCTYPE svg PUBLIC "-//W3C//DTD SVG 1.1//EN" "http://www.w3.org/Graphics/SVG/1.1/DTD/svg11.dtd">
<svg version="1.1" id="Layer_1" xmlns="http://www.w3.org/2000/svg" xmlns:xlink="http://www.w3.org/1999/xlink" x="0px" y="0px"
	 width="100.171px" height="129.971px" viewBox="0 0 100.171 129.971" enable-background="new 0 0 100.171 129.971"
	 xml:space="preserve">
<g>
	<path fill-rule="evenodd" clip-rule="evenodd" fill="#FFFFFF" d="M39.059,110.633c-1.043,0-1.893-0.85-1.893-1.887
		c0-1.043,0.85-1.896,1.893-1.896h22.055c1.043,0,1.893,0.854,1.893,1.896c0,1.037-0.85,1.887-1.893,1.887H39.059z M39.059,110.633"
		/>
	<path fill-rule="evenodd" clip-rule="evenodd" fill="#FFFFFF" d="M41.508,118.178c-1.041,0-1.891-0.869-1.891-1.91
		c0-1.043,0.85-1.893,1.891-1.893h17.156c1.041,0,1.91,0.85,1.91,1.893c0,1.041-0.869,1.91-1.91,1.91H41.508z M41.508,118.178"/>
	<path fill-rule="evenodd" clip-rule="evenodd" fill="#FFFFFF" d="M48.301,91.934c0,1.061-0.85,1.891-1.891,1.891
		c-1.043,0-1.891-0.83-1.891-1.891c0-7.969-0.232-13.951-1.332-19.471c-1.1-5.461-3.049-10.518-6.504-16.77
		c-0.52-0.906-0.193-2.064,0.734-2.566c0.906-0.502,2.045-0.174,2.566,0.734c3.686,6.619,5.77,12.021,6.928,17.869
		C48.051,77.48,48.301,83.674,48.301,91.934L48.301,91.934z M48.301,91.934"/>
	<path fill-rule="evenodd" clip-rule="evenodd" fill="#FFFFFF" d="M55.652,91.934c0,1.061-0.848,1.891-1.891,1.891
		c-1.041,0-1.891-0.83-1.891-1.891c0.02-8.26,0.25-14.434,1.408-20.203c1.158-5.848,3.242-11.25,6.928-17.869
		c0.502-0.928,1.66-1.254,2.566-0.734c0.906,0.502,1.234,1.66,0.732,2.566c-3.473,6.252-5.422,11.309-6.521,16.77
		C55.885,77.982,55.652,83.965,55.652,91.934L55.652,91.934z M55.652,91.934"/>
	<path fill-rule="evenodd" clip-rule="evenodd" fill="#FFFFFF" d="M37.746,56.582c-0.984-0.328-1.525-1.391-1.217-2.393
		c0.328-0.984,1.391-1.525,2.373-1.217c1.332,0.426,2.471,1.004,3.514,1.525l0.115,0.057c1.641,0.83,3.01,1.486,4.033,0.656
		l2.334-1.91c0.811-0.656,2.008-0.539,2.664,0.271c0.656,0.809,0.521,2.006-0.289,2.662l-2.316,1.91
		c-2.914,2.354-5.287,1.217-8.143-0.23l-0.098-0.039C39.791,57.412,38.787,56.91,37.746,56.582L37.746,56.582z M37.746,56.582"/>
	<path fill-rule="evenodd" clip-rule="evenodd" fill="#FFFFFF" d="M51.986,13.531c0,1.061-0.85,1.91-1.891,1.91
		c-1.043,0-1.91-0.85-1.91-1.91V6.178c0-1.041,0.867-1.891,1.91-1.891c1.041,0,1.891,0.85,1.891,1.891V13.531z M51.986,13.531"/>
	<path fill-rule="evenodd" clip-rule="evenodd" fill="#FFFFFF" d="M61.268,52.973c1.004-0.328,2.066,0.232,2.395,1.217
		c0.309,1.002-0.232,2.064-1.236,2.393c-1.041,0.328-2.045,0.83-2.971,1.293l-0.078,0.057c-2.855,1.43-5.248,2.586-8.143,0.213
		l-2.336-1.891c-0.811-0.656-0.926-1.854-0.27-2.664s1.834-0.945,2.645-0.289l2.334,1.91c1.023,0.83,2.393,0.174,4.053-0.656
		l0.096-0.057C58.818,53.977,59.957,53.398,61.268,52.973L61.268,52.973z M61.268,52.973"/>
	<path fill-rule="evenodd" clip-rule="evenodd" fill="#FFFFFF" d="M73.965,33.773c6.1,6.098,9.881,14.549,9.881,23.869
		c0,3.648-0.578,7.16-1.66,10.459c-1.119,3.416-2.758,6.6-4.824,9.436c-3.492,4.768-6.309,7.893-8.51,10.305
		c-3.955,4.381-5.672,6.291-5.672,12.68c0,1.041-0.85,1.891-1.912,1.891H39.076c-1.061,0-1.91-0.85-1.91-1.891
		c0-6.33-1.756-8.256-5.691-12.563c-2.221-2.412-5.076-5.539-8.646-10.422c-2.064-2.836-3.723-6.02-4.824-9.436
		c-1.08-3.299-1.658-6.83-1.658-10.459c0-4.572,0.906-8.934,2.566-12.91l0.039-0.076c1.697-4.109,4.205-7.814,7.273-10.883
		c3.107-3.107,6.832-5.598,10.961-7.314c3.994-1.66,8.355-2.566,12.91-2.566s8.914,0.906,12.91,2.566
		C67.135,28.158,70.859,30.666,73.965,33.773L73.965,33.773z M80.045,57.643c0-8.277-3.357-15.766-8.762-21.188
		c-2.779-2.76-6.078-4.998-9.725-6.504c-3.531-1.465-7.391-2.275-11.463-2.275s-7.951,0.811-11.463,2.275
		c-3.646,1.506-6.947,3.744-9.725,6.504c-2.74,2.74-4.961,6.021-6.465,9.629l-0.039,0.096c-1.467,3.514-2.277,7.393-2.277,11.463
		c0,3.242,0.521,6.369,1.467,9.281c1.004,3.031,2.451,5.867,4.283,8.375c3.436,4.689,6.234,7.738,8.395,10.113v0.018
		c4.207,4.613,6.311,6.908,6.639,13.199h18.506c0.328-6.328,2.393-8.605,6.619-13.295c2.123-2.354,4.844-5.365,8.258-10.035
		c1.834-2.508,3.301-5.324,4.285-8.35C79.523,64.012,80.045,60.885,80.045,57.643L80.045,57.643z M80.045,57.643"/>
	<path fill-rule="evenodd" clip-rule="evenodd" fill="#FFFFFF" d="M43.959,125.684c-1.041,0-1.891-0.85-1.891-1.891
		c0-1.043,0.85-1.887,1.891-1.887h12.254c1.061,0,1.91,0.844,1.91,1.887c0,1.041-0.85,1.891-1.91,1.891H43.959z M43.959,125.684"/>
	<path fill-rule="evenodd" clip-rule="evenodd" fill="#FFFFFF" d="M73.367,20.266c-0.521,0.906-1.678,1.215-2.586,0.693
		c-0.906-0.502-1.215-1.658-0.693-2.566l3.686-6.367c0.502-0.906,1.658-1.217,2.566-0.695c0.906,0.521,1.215,1.68,0.693,2.566
		L73.367,20.266z M73.367,20.266"/>
	<path fill-rule="evenodd" clip-rule="evenodd" fill="#FFFFFF" d="M30.084,18.393c0.521,0.908,0.213,2.064-0.693,2.566
		c-0.889,0.521-2.047,0.213-2.566-0.693l-3.686-6.369c-0.521-0.887-0.193-2.045,0.693-2.566c0.908-0.521,2.064-0.211,2.586,0.695
		L30.084,18.393z M30.084,18.393"/>
	<path fill-rule="evenodd" clip-rule="evenodd" fill="#FFFFFF" d="M13.566,33.541c0.889,0.502,1.197,1.66,0.695,2.566
		c-0.521,0.906-1.68,1.217-2.586,0.695l-6.369-3.666c-0.906-0.521-1.215-1.68-0.693-2.586c0.52-0.908,1.678-1.217,2.586-0.695
		L13.566,33.541z M13.566,33.541"/>
	<path fill-rule="evenodd" clip-rule="evenodd" fill="#FFFFFF" d="M88.496,36.803c-0.887,0.521-2.045,0.211-2.566-0.695
		s-0.213-2.064,0.695-2.566l6.367-3.686c0.908-0.521,2.064-0.213,2.566,0.695c0.521,0.906,0.213,2.064-0.693,2.586L88.496,36.803z
		 M88.496,36.803"/>
	<path fill-rule="evenodd" clip-rule="evenodd" fill="#FFFFFF" d="M30.375,65.131c0.404,0.965-0.039,2.084-1.004,2.488
		c-0.965,0.387-2.064-0.053-2.471-1.021c-0.637-1.525-1.139-3.127-1.486-4.787c-0.328-1.641-0.502-3.318-0.502-4.998
		c0-1.041,0.85-1.91,1.912-1.91c1.041,0,1.891,0.869,1.891,1.91c0,1.486,0.135,2.914,0.424,4.266
		C29.41,62.467,29.834,63.838,30.375,65.131L30.375,65.131z M30.375,48.477c-0.387,0.965-1.506,1.408-2.471,1.004
		c-0.965-0.406-1.408-1.506-1.004-2.471c0.637-1.504,1.408-2.932,2.297-4.244l0.02-0.02h-0.02c0.926-1.352,1.949-2.605,3.088-3.744
		c1.119-1.119,2.373-2.16,3.742-3.068v-0.02c1.313-0.867,2.76-1.658,4.266-2.295c1.523-0.637,3.125-1.139,4.805-1.486
		c1.641-0.328,3.318-0.502,4.998-0.502c1.041,0,1.891,0.85,1.891,1.91c0,1.043-0.85,1.891-1.891,1.891
		c-1.486,0-2.914,0.135-4.266,0.406c-1.408,0.289-2.777,0.713-4.07,1.254c-1.254,0.541-2.451,1.197-3.609,1.969
		c-1.119,0.752-2.18,1.641-3.184,2.623c-0.965,0.984-1.854,2.047-2.625,3.186S30.914,47.223,30.375,48.477L30.375,48.477z
		 M30.375,48.477"/>
</g>
</svg>
