<?xml version="1.0" encoding="utf-8"?>
<!-- Generator: Adobe Illustrator 16.0.0, SVG Export Plug-In . SVG Version: 6.00 Build 0)  -->
<!DOCTYPE svg PUBLIC "-//W3C//DTD SVG 1.1//EN" "http://www.w3.org/Graphics/SVG/1.1/DTD/svg11.dtd">
<svg version="1.1" id="Layer_1" xmlns="http://www.w3.org/2000/svg" xmlns:xlink="http://www.w3.org/1999/xlink" x="0px" y="0px"
	 width="50px" height="50px" viewBox="0 0 50 50" enable-background="new 0 0 50 50" xml:space="preserve">
<g>
	<linearGradient id="SVGID_1_" gradientUnits="userSpaceOnUse" x1="3.1035" y1="25" x2="46.8965" y2="25">
		<stop  offset="0" style="stop-color:#675ADF"/>
		<stop  offset="1" style="stop-color:#3ABCFF"/>
	</linearGradient>
	<circle fill="url(#SVGID_1_)" cx="25" cy="25" r="21.896"/>
	<g>
		<path fill-rule="evenodd" clip-rule="evenodd" fill="#FFFFFF" d="M22.194,36.958c-0.276,0-0.501-0.224-0.501-0.498
			c0-0.276,0.225-0.501,0.501-0.501h5.829c0.276,0,0.5,0.225,0.5,0.501c0,0.274-0.224,0.498-0.5,0.498H22.194z M22.194,36.958"/>
		<path fill-rule="evenodd" clip-rule="evenodd" fill="#FFFFFF" d="M22.842,38.953c-0.275,0-0.5-0.23-0.5-0.506s0.225-0.5,0.5-0.5
			h4.535c0.274,0,0.504,0.225,0.504,0.5s-0.229,0.506-0.504,0.506H22.842z M22.842,38.953"/>
		<path fill-rule="evenodd" clip-rule="evenodd" fill="#FFFFFF" d="M24.637,32.016c0,0.28-0.225,0.5-0.5,0.5s-0.499-0.22-0.499-0.5
			c0-2.106-0.062-3.688-0.353-5.146c-0.291-1.443-0.807-2.78-1.719-4.434c-0.137-0.238-0.051-0.545,0.194-0.678
			c0.239-0.133,0.54-0.046,0.677,0.193c0.976,1.75,1.526,3.178,1.832,4.725C24.57,28.195,24.637,29.832,24.637,32.016L24.637,32.016
			z M24.637,32.016"/>
		<path fill-rule="evenodd" clip-rule="evenodd" fill="#FFFFFF" d="M26.58,32.016c0,0.28-0.224,0.5-0.5,0.5
			c-0.275,0-0.499-0.22-0.499-0.5c0.005-2.184,0.065-3.815,0.372-5.34c0.307-1.547,0.857-2.975,1.831-4.725
			c0.133-0.244,0.438-0.33,0.679-0.193c0.239,0.133,0.326,0.439,0.193,0.678c-0.918,1.653-1.434,2.99-1.725,4.434
			C26.642,28.328,26.58,29.909,26.58,32.016L26.58,32.016z M26.58,32.016"/>
		<path fill-rule="evenodd" clip-rule="evenodd" fill="#FFFFFF" d="M21.848,22.671c-0.261-0.087-0.404-0.368-0.322-0.633
			c0.086-0.26,0.367-0.403,0.627-0.321c0.353,0.113,0.653,0.266,0.929,0.403l0.03,0.015c0.434,0.22,0.796,0.394,1.066,0.174
			l0.617-0.505c0.215-0.173,0.531-0.143,0.704,0.071c0.173,0.215,0.138,0.531-0.076,0.704l-0.612,0.505
			c-0.771,0.622-1.397,0.321-2.152-0.061l-0.025-0.011C22.388,22.891,22.123,22.758,21.848,22.671L21.848,22.671z M21.848,22.671"/>
		<path fill-rule="evenodd" clip-rule="evenodd" fill="#FFFFFF" d="M25.611,11.291c0,0.281-0.225,0.505-0.5,0.505
			s-0.505-0.224-0.505-0.505V9.348c0-0.275,0.229-0.5,0.505-0.5s0.5,0.225,0.5,0.5V11.291z M25.611,11.291"/>
		<path fill-rule="evenodd" clip-rule="evenodd" fill="#FFFFFF" d="M28.064,21.717c0.266-0.086,0.547,0.062,0.633,0.321
			c0.082,0.265-0.061,0.546-0.326,0.633c-0.275,0.087-0.541,0.22-0.785,0.342l-0.021,0.015c-0.754,0.378-1.387,0.684-2.152,0.057
			l-0.617-0.5c-0.214-0.174-0.244-0.49-0.071-0.703c0.173-0.215,0.484-0.25,0.699-0.077l0.617,0.505
			c0.271,0.22,0.632,0.046,1.071-0.174l0.025-0.015C27.417,21.982,27.719,21.83,28.064,21.717L28.064,21.717z M28.064,21.717"/>
		<path fill-rule="evenodd" clip-rule="evenodd" fill="#FFFFFF" d="M31.421,16.643c1.612,1.611,2.612,3.846,2.612,6.309
			c0,0.965-0.153,1.893-0.439,2.766c-0.296,0.902-0.729,1.744-1.275,2.493c-0.924,1.261-1.668,2.087-2.249,2.724
			c-1.046,1.158-1.499,1.664-1.499,3.352c0,0.275-0.225,0.5-0.506,0.5h-5.865c-0.281,0-0.506-0.225-0.506-0.5
			c0-1.673-0.465-2.182-1.504-3.32c-0.587-0.638-1.342-1.464-2.285-2.755c-0.547-0.749-0.984-1.591-1.275-2.493
			c-0.285-0.873-0.438-1.807-0.438-2.766c0-1.209,0.239-2.361,0.679-3.412l0.01-0.021c0.449-1.086,1.111-2.065,1.923-2.876
			c0.821-0.822,1.806-1.48,2.897-1.934c1.056-0.439,2.208-0.679,3.412-0.679s2.356,0.239,3.412,0.679
			C29.615,15.157,30.6,15.82,31.421,16.643L31.421,16.643z M33.028,22.951c0-2.188-0.888-4.167-2.316-5.601
			c-0.735-0.729-1.606-1.321-2.57-1.719c-0.934-0.388-1.954-0.603-3.03-0.603s-2.102,0.215-3.03,0.603
			c-0.964,0.397-1.836,0.989-2.57,1.719c-0.724,0.725-1.312,1.592-1.709,2.546l-0.011,0.025c-0.387,0.928-0.602,1.953-0.602,3.029
			c0,0.857,0.139,1.684,0.389,2.453c0.265,0.802,0.646,1.551,1.131,2.215c0.908,1.239,1.648,2.045,2.22,2.673v0.005
			c1.112,1.219,1.668,1.826,1.755,3.488h4.892c0.087-1.673,0.632-2.274,1.749-3.514c0.562-0.623,1.281-1.418,2.184-2.652
			c0.484-0.664,0.872-1.408,1.133-2.207C32.891,24.635,33.028,23.809,33.028,22.951L33.028,22.951z M33.028,22.951"/>
		<path fill-rule="evenodd" clip-rule="evenodd" fill="#FFFFFF" d="M23.489,40.938c-0.275,0-0.499-0.225-0.499-0.5
			s0.224-0.499,0.499-0.499h3.239c0.28,0,0.505,0.224,0.505,0.499s-0.225,0.5-0.505,0.5H23.489z M23.489,40.938"/>
		<path fill-rule="evenodd" clip-rule="evenodd" fill="#FFFFFF" d="M31.264,13.071c-0.139,0.239-0.444,0.321-0.685,0.184
			c-0.239-0.133-0.321-0.438-0.183-0.679l0.974-1.683c0.133-0.24,0.438-0.321,0.679-0.185c0.24,0.139,0.32,0.444,0.184,0.68
			L31.264,13.071z M31.264,13.071"/>
		<path fill-rule="evenodd" clip-rule="evenodd" fill="#FFFFFF" d="M19.822,12.576c0.138,0.24,0.056,0.546-0.184,0.679
			c-0.234,0.138-0.541,0.056-0.679-0.184l-0.974-1.683c-0.139-0.235-0.052-0.541,0.184-0.68c0.239-0.137,0.545-0.056,0.683,0.185
			L19.822,12.576z M19.822,12.576"/>
		<path fill-rule="evenodd" clip-rule="evenodd" fill="#FFFFFF" d="M15.455,16.58c0.235,0.133,0.316,0.439,0.184,0.679
			c-0.137,0.239-0.443,0.321-0.683,0.185l-1.685-0.97c-0.238-0.138-0.32-0.444-0.183-0.684s0.443-0.321,0.684-0.184L15.455,16.58z
			 M15.455,16.58"/>
		<path fill-rule="evenodd" clip-rule="evenodd" fill="#FFFFFF" d="M35.262,17.443c-0.234,0.137-0.54,0.055-0.678-0.185
			c-0.139-0.239-0.057-0.546,0.184-0.679l1.684-0.974c0.239-0.138,0.545-0.056,0.678,0.184c0.138,0.239,0.057,0.546-0.184,0.684
			L35.262,17.443z M35.262,17.443"/>
		<path fill-rule="evenodd" clip-rule="evenodd" fill="#FFFFFF" d="M19.898,24.931c0.107,0.255-0.01,0.551-0.266,0.657
			c-0.254,0.104-0.545-0.014-0.652-0.27c-0.168-0.402-0.301-0.826-0.394-1.266c-0.087-0.434-0.132-0.877-0.132-1.32
			c0-0.275,0.225-0.506,0.505-0.506c0.275,0,0.5,0.23,0.5,0.506c0,0.393,0.036,0.77,0.112,1.127
			C19.644,24.227,19.756,24.589,19.898,24.931L19.898,24.931z M19.898,20.529c-0.102,0.254-0.398,0.371-0.652,0.265
			c-0.256-0.107-0.373-0.397-0.266-0.653c0.168-0.397,0.371-0.775,0.607-1.122l0.004-0.005h-0.004
			c0.244-0.357,0.515-0.688,0.816-0.99c0.295-0.295,0.627-0.57,0.988-0.811v-0.005c0.348-0.229,0.73-0.438,1.127-0.606
			c0.403-0.169,0.827-0.302,1.271-0.393c0.434-0.088,0.876-0.133,1.32-0.133c0.275,0,0.5,0.224,0.5,0.504c0,0.275-0.225,0.5-0.5,0.5
			c-0.393,0-0.771,0.035-1.127,0.107c-0.373,0.076-0.734,0.188-1.076,0.332c-0.332,0.143-0.648,0.316-0.954,0.52
			c-0.296,0.199-0.577,0.434-0.842,0.693c-0.255,0.261-0.489,0.541-0.694,0.842C20.215,19.875,20.041,20.197,19.898,20.529
			L19.898,20.529z M19.898,20.529"/>
	</g>
</g>
</svg>
