<?xml version="1.0" encoding="utf-8"?>
<!-- Generator: Adobe Illustrator 16.0.0, SVG Export Plug-In . SVG Version: 6.00 Build 0)  -->
<!DOCTYPE svg PUBLIC "-//W3C//DTD SVG 1.1//EN" "http://www.w3.org/Graphics/SVG/1.1/DTD/svg11.dtd">
<svg version="1.1" id="Layer_1" xmlns="http://www.w3.org/2000/svg" xmlns:xlink="http://www.w3.org/1999/xlink" x="0px" y="0px"
	 width="21.249px" height="21.349px" viewBox="0 0 21.249 21.349" enable-background="new 0 0 21.249 21.349" xml:space="preserve">
<g>
	<g>
		<g>
			<path fill="#8C96A9" d="M15.131,0.873H6.119c-2.92,0-5.296,2.377-5.296,5.297v9.01c0,2.922,2.376,5.297,5.296,5.297h9.012
				c2.92,0,5.295-2.375,5.295-5.297v-9.01C20.426,3.25,18.051,0.873,15.131,0.873z M18.843,15.179c0,2.049-1.665,3.713-3.712,3.713
				H6.119c-2.047,0-3.712-1.664-3.712-3.713v-9.01c0-2.047,1.665-3.713,3.712-3.713h9.012c2.047,0,3.712,1.666,3.712,3.713V15.179z"
				/>
		</g>
	</g>
	<g>
		<g>
			<path fill="#8C96A9" d="M15.013,9.992c-0.14-0.941-0.569-1.793-1.24-2.465s-1.524-1.1-2.464-1.24
				c-0.428-0.063-0.862-0.063-1.289,0c-1.162,0.172-2.188,0.787-2.887,1.73c-0.697,0.941-0.99,2.102-0.816,3.264
				c0.172,1.16,0.785,2.186,1.729,2.885c0.766,0.568,1.675,0.867,2.609,0.867c0.217,0,0.437-0.018,0.654-0.049
				c1.16-0.172,2.187-0.787,2.887-1.73C14.895,12.312,15.186,11.152,15.013,9.992z M11.076,13.417
				c-0.742,0.109-1.483-0.076-2.088-0.523c-0.604-0.447-0.996-1.104-1.105-1.846c-0.11-0.744,0.075-1.484,0.522-2.088
				c0.448-0.604,1.104-0.996,1.846-1.107c0.138-0.02,0.274-0.029,0.413-0.029s0.275,0.01,0.412,0.029
				c1.234,0.184,2.186,1.137,2.37,2.369C13.673,11.757,12.61,13.189,11.076,13.417z"/>
		</g>
	</g>
	<g>
		<g>
			<path fill="#8C96A9" d="M16.141,5.16c-0.146-0.148-0.352-0.232-0.561-0.232s-0.412,0.084-0.56,0.232
				c-0.147,0.146-0.231,0.352-0.231,0.559c0,0.209,0.084,0.414,0.231,0.561c0.147,0.148,0.351,0.232,0.56,0.232
				s0.414-0.084,0.561-0.232c0.146-0.146,0.23-0.352,0.23-0.561C16.371,5.511,16.287,5.306,16.141,5.16z"/>
		</g>
	</g>
</g>
</svg>
