<?xml version="1.0" encoding="utf-8"?>
<!-- Generator: Adobe Illustrator 16.0.0, SVG Export Plug-In . SVG Version: 6.00 Build 0)  -->
<!DOCTYPE svg PUBLIC "-//W3C//DTD SVG 1.1//EN" "http://www.w3.org/Graphics/SVG/1.1/DTD/svg11.dtd">
<svg version="1.1" id="Layer_1" xmlns="http://www.w3.org/2000/svg" xmlns:xlink="http://www.w3.org/1999/xlink" x="0px" y="0px"
	 width="111.863px" height="112.023px" viewBox="0 0 111.863 112.023" enable-background="new 0 0 111.863 112.023"
	 xml:space="preserve">
<g>
	<path fill="#FFFFFF" d="M102.941,3.813h-7.011c-2.87,0-5.198,2.328-5.198,5.191V91.27l6.957,12.184v3.016
		c0,0.961,0.781,1.742,1.741,1.742c0.962,0,1.743-0.781,1.743-1.742v-3.016l6.957-12.184V9.004
		C108.131,6.141,105.803,3.813,102.941,3.813L102.941,3.813z M94.215,19.471h10.434v3.482H94.215V19.471z M99.431,99.484
		l-3.959-6.932h7.918L99.431,99.484z M104.648,89.068H94.215V26.428h10.434V89.068z M94.215,15.996V9.004
		c0-0.943,0.766-1.709,1.707-1.709h7.009c0.952,0,1.718,0.766,1.718,1.709v6.992H94.215z M94.215,15.996"/>
	<path fill="#FFFFFF" d="M3.732,3.813v104.398h80.041V3.813H3.732z M7.217,104.727V7.295h10.432v97.432H7.217z M80.291,7.295v97.432
		H21.133V7.295H80.291z M80.291,7.295"/>
	<path fill="#FFFFFF" d="M71.59,45.57V21.213H29.832V45.57H71.59z M33.316,24.695h34.799v17.4H33.316V24.695z M33.316,24.695"/>
	<rect x="38.533" y="28.17" fill="#FFFFFF" width="24.356" height="3.484"/>
	<rect x="38.533" y="35.129" fill="#FFFFFF" width="24.356" height="3.482"/>
</g>
</svg>
