<?xml version="1.0" encoding="utf-8"?>
<!-- Generator: Adobe Illustrator 16.0.0, SVG Export Plug-In . SVG Version: 6.00 Build 0)  -->
<!DOCTYPE svg PUBLIC "-//W3C//DTD SVG 1.1//EN" "http://www.w3.org/Graphics/SVG/1.1/DTD/svg11.dtd">
<svg version="1.1" id="Layer_1" xmlns="http://www.w3.org/2000/svg" xmlns:xlink="http://www.w3.org/1999/xlink" x="0px" y="0px"
	 width="50px" height="50px" viewBox="0 0 50 50" enable-background="new 0 0 50 50" xml:space="preserve">
<g>
	<linearGradient id="SVGID_1_" gradientUnits="userSpaceOnUse" x1="3.1045" y1="25" x2="46.8975" y2="25">
		<stop  offset="0" style="stop-color:#675ADF"/>
		<stop  offset="1" style="stop-color:#3ABCFF"/>
	</linearGradient>
	<circle fill="url(#SVGID_1_)" cx="25.001" cy="25.001" r="21.896"/>
	<g>
		<path fill="#FFFFFF" d="M37.382,12.798h-1.697c-0.695,0-1.26,0.563-1.26,1.256v19.917l1.686,2.951v0.73
			c0,0.232,0.189,0.42,0.422,0.42s0.422-0.188,0.422-0.42v-0.73l1.684-2.951V14.054C38.638,13.361,38.075,12.798,37.382,12.798
			L37.382,12.798z M35.269,16.589h2.525v0.842h-2.525V16.589z M36.532,35.961l-0.959-1.68h1.918L36.532,35.961z M37.794,33.438
			h-2.525V18.273h2.525V33.438z M35.269,15.748v-1.693c0-0.229,0.186-0.414,0.414-0.414h1.697c0.23,0,0.414,0.186,0.414,0.414v1.693
			H35.269z M35.269,15.748"/>
		<path fill="#FFFFFF" d="M13.362,12.798v25.274h19.379V12.798H13.362z M14.206,37.229V13.64h2.525v23.589H14.206z M31.897,13.64
			v23.589H17.575V13.64H31.897z M31.897,13.64"/>
		<path fill="#FFFFFF" d="M29.792,22.908v-5.898H19.681v5.898H29.792z M20.524,17.855h8.426v4.211h-8.426V17.855z M20.524,17.855"/>
		<rect x="21.788" y="18.695" fill="#FFFFFF" width="5.896" height="0.844"/>
		<rect x="21.788" y="20.38" fill="#FFFFFF" width="5.896" height="0.842"/>
	</g>
</g>
</svg>
