<?xml version="1.0" encoding="utf-8"?>
<!-- Generator: Adobe Illustrator 16.0.0, SVG Export Plug-In . SVG Version: 6.00 Build 0)  -->
<!DOCTYPE svg PUBLIC "-//W3C//DTD SVG 1.1//EN" "http://www.w3.org/Graphics/SVG/1.1/DTD/svg11.dtd">
<svg version="1.1" id="Layer_1" xmlns="http://www.w3.org/2000/svg" xmlns:xlink="http://www.w3.org/1999/xlink" x="0px" y="0px"
	 width="23.997px" height="22.93px" viewBox="0 0 23.997 22.93" enable-background="new 0 0 23.997 22.93" xml:space="preserve">
<g>
	<path id="LinkedIn_2_" fill="#8C96A9" d="M23.02,13.847v8.148h-4.725v-7.604c0-1.91-0.684-3.213-2.393-3.213
		c-1.307,0-2.082,0.879-2.424,1.729c-0.125,0.303-0.156,0.727-0.156,1.152v7.936H8.596c0,0,0.064-12.877,0-14.211h4.725V9.8
		c-0.01,0.014-0.021,0.029-0.031,0.045h0.031V9.8c0.629-0.967,1.75-2.35,4.26-2.35C20.688,7.45,23.02,9.481,23.02,13.847z
		 M3.652,0.935c-1.617,0-2.674,1.061-2.674,2.455c0,1.363,1.027,2.455,2.611,2.455h0.031c1.648,0,2.674-1.092,2.674-2.455
		C6.264,1.995,5.27,0.935,3.652,0.935z M1.26,21.995h4.723V7.784H1.26V21.995z"/>
</g>
</svg>
