<?xml version="1.0" encoding="utf-8"?>
<!-- Generator: Adobe Illustrator 16.0.0, SVG Export Plug-In . SVG Version: 6.00 Build 0)  -->
<!DOCTYPE svg PUBLIC "-//W3C//DTD SVG 1.1//EN" "http://www.w3.org/Graphics/SVG/1.1/DTD/svg11.dtd">
<svg version="1.1" id="Layer_1" xmlns="http://www.w3.org/2000/svg" xmlns:xlink="http://www.w3.org/1999/xlink" x="0px" y="0px"
	 width="40px" height="40px" viewBox="0 0 40 40" enable-background="new 0 0 40 40" xml:space="preserve">
<g>
	<circle fill="none" stroke="#232E67" stroke-width="1.5" stroke-miterlimit="10" cx="20" cy="20" r="18.091"/>
	<path fill="#232E67" d="M27.159,21.908c-0.461-0.479-1.018-0.736-1.605-0.736c-0.584,0-1.145,0.252-1.623,0.732l-1.5,1.494
		c-0.123-0.066-0.246-0.127-0.365-0.189c-0.172-0.086-0.332-0.166-0.471-0.252c-1.404-0.893-2.682-2.055-3.906-3.561
		c-0.594-0.748-0.992-1.381-1.281-2.021c0.389-0.355,0.75-0.727,1.102-1.082c0.133-0.133,0.266-0.27,0.398-0.402
		c0.996-0.998,0.996-2.289,0-3.285l-1.297-1.297c-0.146-0.146-0.299-0.299-0.441-0.451c-0.283-0.293-0.584-0.598-0.891-0.883
		c-0.461-0.455-1.012-0.697-1.592-0.697c-0.578,0-1.139,0.242-1.613,0.697c-0.004,0.006-0.004,0.006-0.01,0.01l-1.613,1.629
		c-0.607,0.607-0.955,1.348-1.029,2.207c-0.115,1.387,0.293,2.678,0.607,3.521c0.768,2.074,1.918,3.996,3.631,6.057
		c2.078,2.482,4.58,4.443,7.438,5.824c1.092,0.518,2.549,1.131,4.178,1.234c0.1,0.004,0.203,0.01,0.299,0.01
		c1.096,0,2.018-0.395,2.738-1.178c0.004-0.01,0.014-0.014,0.02-0.023c0.246-0.299,0.531-0.57,0.83-0.859
		c0.205-0.193,0.414-0.398,0.617-0.611c0.469-0.49,0.717-1.059,0.717-1.643c0-0.59-0.252-1.154-0.73-1.629L27.159,21.908z
		 M28.856,26.906C28.853,26.906,28.853,26.912,28.856,26.906c-0.184,0.199-0.375,0.381-0.578,0.58
		c-0.309,0.293-0.621,0.602-0.916,0.949c-0.479,0.512-1.045,0.754-1.785,0.754c-0.07,0-0.146,0-0.217-0.004
		c-1.41-0.09-2.721-0.641-3.703-1.111c-2.688-1.301-5.047-3.146-7.006-5.486c-1.619-1.951-2.701-3.756-3.418-5.691
		c-0.441-1.182-0.604-2.104-0.531-2.971c0.047-0.557,0.26-1.018,0.654-1.41l1.619-1.619c0.232-0.219,0.479-0.338,0.721-0.338
		c0.301,0,0.541,0.182,0.693,0.332c0.004,0.006,0.01,0.01,0.014,0.016c0.291,0.27,0.564,0.551,0.855,0.85
		c0.146,0.15,0.299,0.303,0.451,0.461l1.295,1.295c0.504,0.504,0.504,0.969,0,1.471c-0.137,0.139-0.27,0.275-0.408,0.408
		c-0.398,0.408-0.777,0.789-1.191,1.158c-0.01,0.01-0.02,0.016-0.023,0.023c-0.408,0.408-0.332,0.809-0.246,1.078
		c0.004,0.016,0.008,0.029,0.014,0.043c0.336,0.816,0.811,1.586,1.533,2.502l0.004,0.004c1.311,1.615,2.691,2.871,4.217,3.836
		c0.193,0.123,0.393,0.223,0.582,0.318c0.172,0.084,0.332,0.166,0.471,0.25c0.02,0.01,0.037,0.025,0.057,0.035
		c0.162,0.08,0.313,0.117,0.471,0.117c0.393,0,0.641-0.246,0.721-0.328l1.623-1.623c0.162-0.16,0.418-0.355,0.717-0.355
		c0.295,0,0.537,0.186,0.684,0.348c0.006,0.004,0.006,0.004,0.01,0.008l2.615,2.615C29.341,25.904,29.341,26.404,28.856,26.906z"/>
</g>
</svg>
