<?xml version="1.0" encoding="utf-8"?>
<!-- Generator: Adobe Illustrator 16.0.0, SVG Export Plug-In . SVG Version: 6.00 Build 0)  -->
<!DOCTYPE svg PUBLIC "-//W3C//DTD SVG 1.1//EN" "http://www.w3.org/Graphics/SVG/1.1/DTD/svg11.dtd">
<svg version="1.1" id="Layer_1" xmlns="http://www.w3.org/2000/svg" xmlns:xlink="http://www.w3.org/1999/xlink" x="0px" y="0px"
	 width="40px" height="40px" viewBox="0 0 40 40" enable-background="new 0 0 40 40" xml:space="preserve">
<g>
	<path fill="#232E67" d="M38.708,20c0-10.314-8.395-18.709-18.707-18.709C9.687,1.292,1.292,9.686,1.292,20
		c0,5.447,2.342,10.36,6.072,13.781l-0.018,0.018l0.605,0.512c0.039,0.033,0.082,0.059,0.123,0.092
		c0.322,0.266,0.658,0.519,0.996,0.765c0.109,0.079,0.219,0.159,0.332,0.239c0.365,0.249,0.738,0.488,1.119,0.711
		c0.084,0.05,0.166,0.096,0.25,0.146c0.414,0.235,0.844,0.461,1.279,0.664c0.033,0.017,0.063,0.029,0.096,0.047
		c1.422,0.657,2.939,1.143,4.523,1.432c0.045,0.006,0.084,0.013,0.127,0.02c0.492,0.086,0.99,0.152,1.494,0.199
		c0.061,0.007,0.123,0.01,0.184,0.017c0.502,0.04,1.01,0.066,1.525,0.066c0.508,0,1.012-0.026,1.51-0.066
		c0.064-0.007,0.127-0.01,0.189-0.013c0.502-0.047,0.994-0.113,1.482-0.197c0.043-0.006,0.086-0.016,0.129-0.022
		c1.563-0.279,3.057-0.755,4.459-1.398c0.053-0.023,0.105-0.047,0.156-0.069c0.422-0.199,0.83-0.412,1.232-0.639
		c0.1-0.057,0.199-0.113,0.299-0.172c0.365-0.217,0.727-0.439,1.076-0.682c0.125-0.083,0.248-0.176,0.371-0.266
		c0.299-0.213,0.596-0.436,0.877-0.668c0.064-0.05,0.133-0.096,0.197-0.146l0.621-0.521l-0.021-0.016
		C36.343,30.411,38.708,25.477,38.708,20L38.708,20z M2.653,20c0-9.567,7.779-17.348,17.348-17.348
		c9.566,0,17.346,7.78,17.346,17.348c0,5.154-2.262,9.789-5.844,12.968c-0.199-0.136-0.398-0.263-0.607-0.365l-5.76-2.88
		c-0.516-0.26-0.838-0.777-0.838-1.355v-2.014c0.133-0.162,0.277-0.348,0.42-0.555c0.746-1.053,1.344-2.225,1.779-3.484
		c0.865-0.408,1.42-1.269,1.42-2.238v-2.412c0-0.588-0.217-1.159-0.602-1.611v-3.176c0.033-0.352,0.158-2.345-1.283-3.989
		c-1.252-1.429-3.281-2.155-6.031-2.155c-2.752,0-4.781,0.727-6.033,2.155c-1.441,1.645-1.316,3.638-1.283,3.989v3.176
		c-0.385,0.449-0.6,1.023-0.6,1.611v2.412c0,0.75,0.334,1.448,0.91,1.92c0.551,2.159,1.684,3.793,2.105,4.345v1.97
		c0,0.555-0.307,1.066-0.791,1.332l-5.381,2.934c-0.17,0.093-0.342,0.202-0.512,0.325C4.882,29.723,2.653,25.119,2.653,20L2.653,20z
		 M30.179,34.035c-0.24,0.173-0.482,0.343-0.729,0.501c-0.113,0.074-0.225,0.146-0.338,0.22c-0.322,0.199-0.648,0.386-0.984,0.565
		c-0.072,0.036-0.145,0.072-0.219,0.112c-0.768,0.392-1.561,0.731-2.375,1.003c-0.027,0.01-0.057,0.021-0.086,0.03
		c-0.426,0.143-0.857,0.266-1.295,0.376h-0.004c-0.441,0.109-0.887,0.199-1.336,0.275c-0.014,0-0.025,0.003-0.037,0.006
		c-0.422,0.066-0.85,0.117-1.275,0.156c-0.076,0.007-0.152,0.01-0.229,0.018c-0.422,0.029-0.848,0.049-1.271,0.049
		c-0.434,0-0.861-0.02-1.289-0.053c-0.074-0.004-0.15-0.01-0.223-0.017c-0.432-0.036-0.861-0.09-1.285-0.156l-0.057-0.01
		c-0.9-0.153-1.785-0.372-2.648-0.661c-0.027-0.01-0.053-0.02-0.08-0.029c-0.428-0.144-0.85-0.307-1.266-0.486
		c-0.002,0-0.006,0-0.01-0.002c-0.393-0.17-0.777-0.355-1.158-0.556c-0.051-0.026-0.1-0.05-0.15-0.076
		c-0.35-0.187-0.688-0.386-1.023-0.595c-0.1-0.063-0.199-0.126-0.295-0.192c-0.309-0.199-0.615-0.412-0.91-0.635
		c-0.029-0.022-0.061-0.046-0.09-0.069l0.063-0.037l5.383-2.934c0.922-0.504,1.498-1.475,1.498-2.527V25.86l-0.156-0.189
		c-0.018-0.017-1.486-1.804-2.043-4.229l-0.061-0.27l-0.232-0.149c-0.328-0.212-0.525-0.564-0.525-0.946v-2.412
		c0-0.315,0.137-0.611,0.379-0.834l0.227-0.202v-3.787l-0.008-0.089c0-0.018-0.201-1.654,0.951-2.967
		c0.982-1.123,2.67-1.691,5.01-1.691c2.332,0,4.012,0.564,4.996,1.678c1.152,1.299,0.963,2.967,0.963,2.98l-0.008,3.879l0.227,0.203
		c0.242,0.219,0.379,0.515,0.379,0.83v2.412c0,0.484-0.332,0.926-0.805,1.072l-0.338,0.104l-0.109,0.339
		c-0.402,1.245-0.975,2.397-1.697,3.421c-0.18,0.253-0.354,0.476-0.502,0.648L22.94,25.85v2.518c0,1.096,0.607,2.083,1.588,2.574
		l5.76,2.881c0.037,0.016,0.072,0.036,0.109,0.056C30.325,33.932,30.251,33.981,30.179,34.035L30.179,34.035z M30.179,34.035"/>
</g>
</svg>
