<?xml version="1.0" encoding="utf-8"?>
<!-- Generator: Adobe Illustrator 16.0.0, SVG Export Plug-In . SVG Version: 6.00 Build 0)  -->
<!DOCTYPE svg PUBLIC "-//W3C//DTD SVG 1.1//EN" "http://www.w3.org/Graphics/SVG/1.1/DTD/svg11.dtd">
<svg version="1.1" id="Layer_1" xmlns="http://www.w3.org/2000/svg" xmlns:xlink="http://www.w3.org/1999/xlink" x="0px" y="0px"
	 width="40px" height="40px" viewBox="0 0 40 40" enable-background="new 0 0 40 40" xml:space="preserve">
<g>
	<circle fill="none" stroke="#232E67" stroke-width="1.5" stroke-miterlimit="10" cx="20" cy="20" r="18.091"/>
	<g>
		<path fill="#232E67" d="M28.014,12.081H12.29c-1.406,0-2.546,1.142-2.546,2.545v10.749c0,1.403,1.14,2.545,2.546,2.545h15.719
			c1.406,0,2.548-1.142,2.548-2.545V14.63C30.56,13.226,29.42,12.081,28.014,12.081L28.014,12.081z M29.397,25.375
			c0,0.762-0.62,1.381-1.384,1.381H12.29c-0.763,0-1.383-0.619-1.383-1.381V14.63c0-0.762,0.62-1.383,1.383-1.383h15.719
			c0.764,0,1.385,0.621,1.385,1.383v10.744H29.397z M29.397,25.375"/>
		<path fill="#232E67" d="M22.87,19.867l5.09-4.564c0.236-0.215,0.258-0.582,0.043-0.823c-0.215-0.236-0.581-0.259-0.824-0.043
			l-7.019,6.3l-1.367-1.223c-0.006-0.004-0.009-0.009-0.009-0.013c-0.031-0.03-0.063-0.056-0.096-0.081l-5.571-4.988
			c-0.243-0.215-0.607-0.193-0.823,0.048s-0.195,0.608,0.046,0.823l5.151,4.604l-5.129,4.801c-0.233,0.22-0.245,0.586-0.025,0.822
			c0.115,0.121,0.271,0.186,0.427,0.186c0.143,0,0.283-0.051,0.396-0.154l5.206-4.871l1.413,1.262
			c0.111,0.1,0.249,0.146,0.387,0.146c0.139,0,0.28-0.051,0.389-0.15l1.451-1.301l5.174,4.918c0.113,0.107,0.259,0.158,0.402,0.158
			c0.154,0,0.307-0.059,0.422-0.18c0.22-0.233,0.209-0.604-0.021-0.822L22.87,19.867z M22.87,19.867"/>
	</g>
</g>
</svg>
