<?xml version="1.0" encoding="utf-8"?>
<!-- Generator: Adobe Illustrator 16.0.0, SVG Export Plug-In . SVG Version: 6.00 Build 0)  -->
<!DOCTYPE svg PUBLIC "-//W3C//DTD SVG 1.1//EN" "http://www.w3.org/Graphics/SVG/1.1/DTD/svg11.dtd">
<svg version="1.1" id="Layer_1" xmlns="http://www.w3.org/2000/svg" xmlns:xlink="http://www.w3.org/1999/xlink" x="0px" y="0px"
	 width="40px" height="40px" viewBox="0 0 40 40" enable-background="new 0 0 40 40" xml:space="preserve">
<g>
	<circle fill="none" stroke="#232E67" stroke-width="1.5" stroke-miterlimit="10" cx="20" cy="20" r="18.091"/>
	<path fill="#232E67" stroke="#F1F1F2" stroke-miterlimit="10" d="M19.946,8.325c-3.387,0-6.141,2.753-6.141,6.142v2.961h-1.91
		c-0.574,0-1.043,0.469-1.043,1.043v10.396c0,0.574,0.469,1.043,1.043,1.043h16.113c0.572,0,1.041-0.469,1.041-1.043V18.479
		c0-0.574-0.469-1.043-1.041-1.043h-1.912v-2.961C26.097,11.088,23.335,8.325,19.946,8.325z M15.89,14.475
		c0-2.24,1.824-4.057,4.057-4.057s4.057,1.824,4.057,4.057v2.961H15.89V14.475L15.89,14.475z M26.966,27.826H12.937v-8.313h14.029
		V27.826z"/>
</g>
</svg>
