<?xml version="1.0" encoding="utf-8"?>
<!-- Generator: Adobe Illustrator 16.0.0, SVG Export Plug-In . SVG Version: 6.00 Build 0)  -->
<!DOCTYPE svg PUBLIC "-//W3C//DTD SVG 1.1//EN" "http://www.w3.org/Graphics/SVG/1.1/DTD/svg11.dtd">
<svg version="1.1" id="Layer_1" xmlns="http://www.w3.org/2000/svg" xmlns:xlink="http://www.w3.org/1999/xlink" x="0px" y="0px"
	 width="203px" height="46px" viewBox="0 0 203 46" enable-background="new 0 0 203 46" xml:space="preserve">
<g>
	<path fill-rule="evenodd" clip-rule="evenodd" fill="#F6F6F6" d="M184.946,41.411c0-0.443,0-0.78,0-1.117
		c0-6.471,0.01-12.941-0.014-19.413c-0.004-0.699,0.172-0.976,0.909-0.933c1.147,0.066,2.302,0.006,3.45,0.061
		c3.334,0.162,4.903,1.625,5.313,4.929c0.063,0.511,0.057,1.033,0.058,1.551c0.004,4.602,0.003,9.203,0.003,13.806
		c0,0.337,0,0.674,0,1.132c1.231,0,2.375-0.044,3.513,0.016c0.767,0.04,0.978-0.22,0.972-0.976c-0.03-4.688,0-9.375-0.024-14.064
		c-0.007-1.203-0.082-2.413-0.224-3.609c-0.447-3.787-2.463-6.114-6.031-6.963c-0.805-0.191-1.648-0.295-2.475-0.299
		c-7.535-0.036-15.069-0.029-22.604-0.074c-0.833-0.004-1.065,0.236-1.063,1.065c0.029,7.966,0.017,15.934,0.019,23.899
		c0,0.308,0.028,0.615,0.045,0.945c1.512,0,2.936,0,4.477,0c0-7.143,0-14.227,0-21.404c0.423,0,0.732,0,1.042,0
		c2.358,0,4.718,0.041,7.073-0.022c0.885-0.023,1.115,0.23,1.11,1.104c-0.036,6.385-0.021,12.77-0.021,19.154
		c0,0.259-0.043,0.533,0.027,0.771c0.053,0.172,0.259,0.42,0.4,0.423C182.215,41.425,183.528,41.411,184.946,41.411z"/>
	<path fill-rule="evenodd" clip-rule="evenodd" fill="#F6F6F6" d="M89.43,19.536c-0.135,1.155-0.27,2.232-0.387,3.311
		c-0.347,3.186-1.044,6.286-2.257,9.259c-0.53,1.299-1.254,2.478-2.247,3.595c-1.065-1.402-1.639-2.893-2.101-4.432
		c-1.032-3.445-1.226-7.004-1.394-10.566c-0.081-1.741-0.194-3.48-0.294-5.23c-1.543,0-2.963,0-4.378,0
		c-0.029,0.146-0.065,0.23-0.06,0.313c0.221,3.699,0.338,7.41,0.702,11.096c0.349,3.536,1.28,6.947,3.091,10.057
		c0.983,1.689,2.229,3.147,3.932,4.146c0.25,0.146,0.766,0.189,0.957,0.033c2.376-1.939,4.42-4.17,5.16-7.24
		c0.556-2.311,0.877-4.678,1.326-7.015c0.046-0.229,0.265-0.427,0.402-0.638c0.105,0.21,0.271,0.41,0.308,0.632
		c0.178,1.105,0.33,2.216,0.476,3.325c0.575,4.33,2.295,8.033,5.797,10.801c0.466,0.368,0.779,0.411,1.271,0.088
		c1.447-0.945,2.606-2.162,3.527-3.611c1.533-2.41,2.559-5.053,2.943-7.854c0.492-3.579,0.729-7.194,1.023-10.798
		c0.091-1.102,0.015-2.216,0.015-3.399c-1.117,0-2.236,0.05-3.347-0.017c-0.797-0.049-1.008,0.227-1.05,1.004
		c-0.188,3.5-0.376,7.003-0.708,10.49c-0.252,2.67-0.92,5.262-2.219,7.646c-0.21,0.386-0.481,0.738-0.791,1.209
		c-0.395-0.537-0.709-0.941-1-1.363c-1.33-1.928-2.054-4.13-2.547-6.363c-0.568-2.573-0.828-5.213-1.252-7.818
		c-0.039-0.238-0.293-0.624-0.457-0.629C92.415,19.515,90.955,19.536,89.43,19.536z"/>
	<path fill-rule="evenodd" clip-rule="evenodd" fill="#F6F6F6" d="M113.311,4.559c-0.019,0.406-0.051,0.772-0.051,1.14
		c-0.003,11.502-0.002,23.003-0.002,34.505c0,0.259-0.045,0.532,0.026,0.771c0.051,0.172,0.258,0.42,0.4,0.424
		c1.34,0.031,2.68,0.018,4.121,0.018c0-7.205,0-14.289,0-21.391c2.455,0,4.821-0.162,7.152,0.049c2.111,0.19,3.609,1.457,4.09,3.63
		c0.203,0.919,0.34,1.871,0.348,2.81c0.035,4.6,0.016,9.201,0.016,13.802c0,0.335,0,0.669,0,1.111c1.262,0,2.406-0.037,3.546,0.013
		c0.706,0.031,0.943-0.182,0.931-0.912c-0.043-2.53,0.006-5.061-0.021-7.592c-0.035-3.217,0.004-6.441-0.195-9.65
		c-0.256-4.148-2.555-6.733-6.668-7.345c-2.6-0.386-5.265-0.326-7.9-0.466c-0.419-0.021-0.838-0.043-1.348-0.068
		c0-3.665,0-7.244,0-10.847C116.231,4.559,114.806,4.559,113.311,4.559z"/>
	<path fill-rule="evenodd" clip-rule="evenodd" fill="#F6F6F6" d="M154.354,30.956c0-1.58,0.013-2.978-0.018-4.375
		c-0.003-0.164-0.218-0.421-0.382-0.469c-3.779-1.111-7.447-1.121-10.98,0.943c-4.408,2.576-4.413,10.756,0.582,13.149
		c1.809,0.866,3.689,1.228,5.671,1.223c3.564-0.008,7.129-0.001,10.693-0.005c0.308,0,0.613-0.031,1.002-0.053
		c0-0.898,0.006-1.725-0.001-2.551c-0.039-4.973,0.045-9.949-0.16-14.912c-0.185-4.478-3.104-7.678-7.559-8.142
		c-3.529-0.367-7.113-0.22-10.674-0.255c-0.188-0.002-0.532,0.402-0.547,0.634c-0.063,0.974,0.014,1.956-0.043,2.93
		c-0.043,0.745,0.258,0.911,0.948,0.901c2.443-0.036,4.888-0.018,7.329-0.014c3.908,0.008,6.02,1.949,6.146,5.86
		c0.112,3.503,0.056,7.013,0.065,10.519c0.001,0.189-0.065,0.381-0.113,0.641c-2.126,0-4.221,0.02-6.314-0.01
		c-0.887-0.012-1.787-0.047-2.655-0.211c-2.151-0.406-3.167-1.803-2.965-3.938c0.146-1.54,1.302-2.765,3.107-3.146
		C149.853,29.176,152.118,29.428,154.354,30.956z"/>
	<path fill-rule="evenodd" clip-rule="evenodd" fill="#F6F6F6" d="M67.222,35.755c-1.51,0.482-2.755,1.028-4.057,1.268
		c-4.242,0.78-8.09-1.471-9.352-5.376c-0.51-1.583-0.569-3.208-0.374-4.856c0.541-4.563,3.94-7.533,8.464-7.301
		c1.48,0.076,2.881,0.497,3.537,2.025c0.979,2.285-0.334,5.047-2.758,5.562c-1.47,0.313-3.019,0.275-4.533,0.382
		c-0.385,0.027-0.773,0.004-1.153,0.004c0,1.377,0,2.602,0,3.988c1.802-0.087,3.557-0.055,5.279-0.278
		c4.095-0.531,7.881-2.306,8.198-7.994c0.196-3.474-1.436-6.046-4.732-7.134c-2.056-0.678-4.178-0.816-6.306-0.617
		c-4.032,0.375-7.092,2.333-9.078,5.885c-1.599,2.859-2.009,5.964-1.705,9.174c0.417,4.408,2.567,7.741,6.575,9.631
		c3.75,1.768,7.682,1.821,11.566,0.354c1.146-0.434,2.182-1.162,3.193-1.715C68.915,37.593,67.984,36.581,67.222,35.755z"/>
	<path fill-rule="evenodd" clip-rule="evenodd" fill="#F6F6F6" d="M4.822,15.411c1.096,4.566,2.098,9.012,3.239,13.422
		c1.044,4.037,2.988,7.635,5.75,10.773c0.544,0.618,1.117,1.209,1.7,1.838c3.13-3.09,5.594-6.523,6.821-10.646
		c1.218-4.091,2.126-8.274,3.146-12.424c0.234-0.956,0.365-1.938,0.55-2.934c-1.619,0-3.098,0-4.572,0
		c-1.167,6.697-2.487,13.277-5.933,19.441c-3.452-6.207-4.767-12.807-5.941-19.471C8.054,15.411,6.596,15.411,4.822,15.411z"/>
	<path fill-rule="evenodd" clip-rule="evenodd" fill="#F6F6F6" d="M36.394,15.364c-2.56,2.377-5.096,4.67-7.536,7.059
		c-0.423,0.414-0.624,1.24-0.612,1.87c0.019,1.089,0.633,1.987,1.447,2.828c1.391-1.28,2.75-2.53,4.306-3.961
		c0,0.563,0,0.864,0,1.165c0,4.427,0.05,8.854-0.027,13.279c-0.029,1.705,0.841,2.733,2.096,3.6c0.145,0.1,0.467,0.123,0.599,0.029
		c1.193-0.854,2.165-1.777,2.138-3.478c-0.076-4.483-0.027-8.968-0.023-13.452c0-0.299,0.025-0.598,0.049-1.119
		c1.521,1.396,2.883,2.646,4.428,4.066c0.453-0.914,0.91-1.693,1.23-2.523c0.369-0.957,0.055-1.826-0.674-2.506
		C41.376,19.948,38.919,17.696,36.394,15.364z"/>
	<path fill-rule="evenodd" clip-rule="evenodd" fill="#F6F6F6" d="M184.946,41.411c-1.418,0-2.731,0.014-4.045-0.019
		c-0.142-0.003-0.348-0.251-0.4-0.423c-0.07-0.238-0.027-0.513-0.027-0.771c0-6.385-0.016-12.77,0.021-19.154
		c0.005-0.874-0.226-1.128-1.11-1.104c-2.355,0.063-4.715,0.022-7.073,0.022c-0.31,0-0.619,0-1.042,0c0,7.178,0,14.262,0,21.404
		c-1.541,0-2.965,0-4.477,0c-0.017-0.33-0.045-0.638-0.045-0.945c-0.002-7.966,0.011-15.934-0.019-23.899
		c-0.003-0.829,0.229-1.069,1.063-1.065c7.535,0.045,15.069,0.038,22.604,0.074c0.826,0.004,1.67,0.107,2.475,0.299
		c3.568,0.849,5.584,3.176,6.031,6.963c0.142,1.196,0.217,2.406,0.224,3.609c0.024,4.689-0.006,9.377,0.024,14.064
		c0.006,0.756-0.205,1.016-0.972,0.976c-1.138-0.06-2.281-0.016-3.513-0.016c0-0.458,0-0.795,0-1.132
		c0-4.603,0.001-9.204-0.003-13.806c-0.001-0.518,0.005-1.04-0.058-1.551c-0.409-3.304-1.979-4.767-5.313-4.929
		c-1.148-0.055-2.303,0.006-3.45-0.061c-0.737-0.043-0.913,0.233-0.909,0.933c0.023,6.472,0.014,12.942,0.014,19.413
		C184.946,40.631,184.946,40.968,184.946,41.411z"/>
	<path fill-rule="evenodd" clip-rule="evenodd" fill="#F6F6F6" d="M89.43,19.536c1.525,0,2.985-0.021,4.444,0.029
		c0.164,0.005,0.418,0.391,0.457,0.629c0.424,2.605,0.684,5.245,1.252,7.818c0.493,2.233,1.217,4.436,2.547,6.363
		c0.291,0.422,0.605,0.826,1,1.363c0.31-0.471,0.581-0.823,0.791-1.209c1.299-2.385,1.967-4.977,2.219-7.646
		c0.331-3.487,0.519-6.99,0.708-10.49c0.042-0.777,0.253-1.053,1.05-1.004c1.11,0.066,2.229,0.017,3.347,0.017
		c0,1.184,0.076,2.298-0.015,3.399c-0.295,3.604-0.531,7.219-1.023,10.798c-0.385,2.802-1.41,5.444-2.943,7.854
		c-0.921,1.449-2.081,2.666-3.527,3.611c-0.492,0.323-0.805,0.28-1.271-0.088c-3.502-2.768-5.222-6.471-5.797-10.801
		c-0.146-1.109-0.298-2.22-0.476-3.325c-0.036-0.222-0.202-0.422-0.308-0.632c-0.138,0.211-0.356,0.408-0.402,0.638
		c-0.449,2.337-0.771,4.704-1.326,7.015c-0.74,3.07-2.784,5.301-5.16,7.24c-0.191,0.156-0.707,0.113-0.957-0.033
		c-1.703-0.999-2.948-2.457-3.932-4.146c-1.812-3.109-2.742-6.521-3.091-10.057c-0.364-3.686-0.481-7.396-0.702-11.096
		c-0.006-0.082,0.03-0.166,0.06-0.313c1.415,0,2.835,0,4.378,0c0.1,1.75,0.213,3.489,0.294,5.23
		c0.168,3.563,0.361,7.121,1.394,10.566c0.462,1.539,1.036,3.029,2.101,4.432c0.993-1.117,1.717-2.296,2.247-3.595
		c1.213-2.973,1.91-6.073,2.257-9.259C89.16,21.769,89.295,20.691,89.43,19.536z"/>
	<path fill-rule="evenodd" clip-rule="evenodd" fill="#F6F6F6" d="M113.311,4.559c1.495,0,2.921,0,4.444,0c0,3.603,0,7.182,0,10.847
		c0.51,0.025,0.929,0.047,1.348,0.068c2.636,0.14,5.301,0.08,7.9,0.466c4.113,0.611,6.412,3.196,6.668,7.345
		c0.199,3.209,0.16,6.434,0.195,9.65c0.027,2.531-0.021,5.062,0.021,7.592c0.013,0.73-0.225,0.943-0.931,0.912
		c-1.14-0.05-2.284-0.013-3.546-0.013c0-0.442,0-0.776,0-1.111c0-4.601,0.02-9.202-0.016-13.802
		c-0.008-0.938-0.145-1.891-0.348-2.81c-0.48-2.173-1.979-3.439-4.09-3.63c-2.331-0.211-4.697-0.049-7.152-0.049
		c0,7.102,0,14.186,0,21.391c-1.441,0-2.781,0.014-4.121-0.018c-0.143-0.004-0.35-0.252-0.4-0.424
		c-0.071-0.238-0.026-0.512-0.026-0.771c0-11.502-0.001-23.003,0.002-34.505C113.26,5.331,113.292,4.965,113.311,4.559z"/>
	<path fill-rule="evenodd" clip-rule="evenodd" fill="#F6F6F6" d="M154.354,30.956c-2.235-1.528-4.501-1.78-6.867-1.279
		c-1.806,0.382-2.962,1.606-3.107,3.146c-0.202,2.135,0.813,3.531,2.965,3.938c0.868,0.164,1.769,0.199,2.655,0.211
		c2.094,0.029,4.188,0.01,6.314,0.01c0.048-0.26,0.114-0.451,0.113-0.641c-0.01-3.506,0.047-7.016-0.065-10.519
		c-0.126-3.911-2.237-5.853-6.146-5.86c-2.441-0.004-4.886-0.022-7.329,0.014c-0.69,0.01-0.991-0.156-0.948-0.901
		c0.057-0.974-0.02-1.956,0.043-2.93c0.015-0.231,0.358-0.636,0.547-0.634c3.561,0.035,7.145-0.112,10.674,0.255
		c4.455,0.464,7.374,3.664,7.559,8.142c0.205,4.963,0.121,9.939,0.16,14.912c0.007,0.826,0.001,1.652,0.001,2.551
		c-0.389,0.021-0.694,0.053-1.002,0.053c-3.564,0.004-7.129-0.003-10.693,0.005c-1.981,0.005-3.862-0.356-5.671-1.223
		c-4.995-2.394-4.99-10.573-0.582-13.149c3.533-2.064,7.201-2.055,10.98-0.943c0.164,0.048,0.379,0.305,0.382,0.469
		C154.366,27.979,154.354,29.376,154.354,30.956z"/>
	<path fill-rule="evenodd" clip-rule="evenodd" fill="#F6F6F6" d="M67.222,35.755c0.762,0.826,1.693,1.838,2.765,3
		c-1.012,0.553-2.047,1.281-3.193,1.715c-3.885,1.468-7.816,1.414-11.566-0.354c-4.008-1.89-6.158-5.223-6.575-9.631
		c-0.304-3.21,0.106-6.314,1.705-9.174c1.986-3.552,5.046-5.51,9.078-5.885c2.128-0.199,4.25-0.061,6.306,0.617
		c3.296,1.088,4.928,3.66,4.732,7.134c-0.317,5.688-4.103,7.463-8.198,7.994c-1.723,0.224-3.478,0.191-5.279,0.278
		c0-1.387,0-2.611,0-3.988c0.38,0,0.768,0.023,1.153-0.004c1.514-0.106,3.063-0.068,4.533-0.382
		c2.424-0.515,3.738-3.276,2.758-5.562c-0.656-1.528-2.057-1.949-3.537-2.025c-4.523-0.232-7.923,2.737-8.464,7.301
		c-0.195,1.648-0.136,3.273,0.374,4.856c1.262,3.905,5.109,6.156,9.352,5.376C64.467,36.783,65.712,36.237,67.222,35.755z"/>
	<path fill-rule="evenodd" clip-rule="evenodd" fill="#F6F6F6" d="M4.822,15.411c1.774,0,3.231,0,4.76,0
		c1.175,6.664,2.489,13.264,5.941,19.471c3.445-6.164,4.766-12.744,5.933-19.441c1.474,0,2.953,0,4.572,0
		c-0.185,0.996-0.315,1.978-0.55,2.934c-1.02,4.149-1.928,8.333-3.146,12.424c-1.228,4.123-3.691,7.557-6.821,10.646
		c-0.583-0.629-1.156-1.22-1.7-1.838c-2.762-3.139-4.706-6.736-5.75-10.773C6.92,24.423,5.918,19.978,4.822,15.411z"/>
	<path fill-rule="evenodd" clip-rule="evenodd" fill="#F6F6F6" d="M36.394,15.364c2.525,2.332,4.982,4.584,7.42,6.857
		c0.729,0.68,1.043,1.549,0.674,2.506c-0.32,0.83-0.777,1.609-1.23,2.523c-1.545-1.42-2.906-2.67-4.428-4.066
		c-0.024,0.521-0.049,0.82-0.049,1.119c-0.004,4.484-0.053,8.969,0.023,13.452c0.027,1.7-0.944,2.624-2.138,3.478
		c-0.132,0.094-0.454,0.07-0.599-0.029c-1.255-0.866-2.125-1.895-2.096-3.6c0.077-4.425,0.027-8.853,0.027-13.279
		c0-0.301,0-0.602,0-1.165c-1.556,1.431-2.915,2.681-4.306,3.961c-0.814-0.841-1.428-1.739-1.447-2.828
		c-0.012-0.63,0.189-1.456,0.612-1.87C31.298,20.034,33.834,17.741,36.394,15.364z"/>
	<circle fill-rule="evenodd" clip-rule="evenodd" fill="#F6F6F6" cx="36.202" cy="8.749" r="3.766"/>
</g>
</svg>
