<?xml version="1.0" encoding="utf-8"?>
<!-- Generator: Adobe Illustrator 16.0.0, SVG Export Plug-In . SVG Version: 6.00 Build 0)  -->
<!DOCTYPE svg PUBLIC "-//W3C//DTD SVG 1.1//EN" "http://www.w3.org/Graphics/SVG/1.1/DTD/svg11.dtd">
<svg version="1.1" id="Layer_1" xmlns="http://www.w3.org/2000/svg" xmlns:xlink="http://www.w3.org/1999/xlink" x="0px" y="0px"
	 width="65px" height="65px" viewBox="0 0 65 65" enable-background="new 0 0 65 65" xml:space="preserve">
<g>
	<circle fill="#22C9FF" stroke="#FFFFFF" stroke-miterlimit="10" cx="32.5" cy="32.5" r="30"/>
	<g>
		<g>
			<g>
				<path fill="#FFFFFF" stroke="#22C9FF" stroke-width="0.8" stroke-miterlimit="10" d="M42.352,32.037l-2.965,3.183
					c-0.383-1.232-1.533-2.13-2.889-2.13h-5.291c-0.465,0-0.67-0.253-1.141-0.668c-1.518-1.335-3.543-1.958-5.551-1.702
					c-1.744,0.218-3.291,1.052-4.441,2.37h-5.898c-0.559,0-1.01,0.453-1.01,1.009v10.087c0,0.557,0.451,1.008,1.01,1.008
					c0.68,0,22.008,0,22.322,0c2.209,0,4.32-1.055,5.646-2.824l4.842-6.456c0.395-0.525,0.605-1.153,0.605-1.814
					C47.592,31.352,44.211,30.041,42.352,32.037z M19.352,43.177h-4.168v-8.067h4.168V43.177z M45.373,34.702l-4.842,6.456
					c-0.947,1.264-2.455,2.019-4.033,2.019H21.369v-8.485c0.846-1.103,2.041-1.801,3.398-1.972c1.436-0.182,2.881,0.262,3.967,1.217
					l0.473,0.417c0.555,0.486,1.264,0.756,2,0.756h5.291c0.555,0,1.008,0.451,1.008,1.007s-0.453,1.009-1.008,1.009h-6.139
					c-0.557,0-1.008,0.451-1.008,1.008s0.451,1.008,1.008,1.008h6.814c0.836,0,1.643-0.35,2.213-0.961l4.439-4.768
					c0.621-0.666,1.748-0.229,1.748,0.687C45.574,34.319,45.504,34.527,45.373,34.702z"/>
			</g>
		</g>
		<g>
			<g>
				<path fill="#FFFFFF" stroke="#22C9FF" stroke-width="0.8" stroke-miterlimit="10" d="M44.518,19.637
					c-0.117-0.367-0.436-0.636-0.818-0.69l-4.357-0.617l-1.945-3.847c-0.172-0.34-0.52-0.555-0.898-0.555
					c-0.381,0-0.729,0.215-0.9,0.555l-1.945,3.847l-4.357,0.617c-0.381,0.055-0.699,0.323-0.818,0.69
					c-0.117,0.369-0.016,0.771,0.266,1.039l3.139,2.986l-0.74,4.211c-0.066,0.378,0.086,0.76,0.395,0.986
					c0.309,0.228,0.719,0.26,1.059,0.086l3.904-2.004l3.902,2.004c0.34,0.174,0.75,0.142,1.059-0.086s0.461-0.608,0.395-0.986
					l-0.74-4.211l3.139-2.986C44.533,20.408,44.635,20.006,44.518,19.637z M39.332,22.574c-0.244,0.232-0.357,0.572-0.299,0.903
					l0.482,2.747l-2.559-1.314c-0.289-0.147-0.631-0.147-0.92,0l-2.559,1.314l0.482-2.747c0.059-0.331-0.055-0.671-0.299-0.903
					l-2.02-1.924l2.814-0.398c0.326-0.047,0.609-0.25,0.76-0.545l1.281-2.534l1.281,2.534c0.148,0.295,0.432,0.498,0.758,0.545
					l2.814,0.398L39.332,22.574z"/>
			</g>
		</g>
	</g>
</g>
</svg>
