<?xml version="1.0" encoding="utf-8"?>
<!-- Generator: Adobe Illustrator 16.0.0, SVG Export Plug-In . SVG Version: 6.00 Build 0)  -->
<!DOCTYPE svg PUBLIC "-//W3C//DTD SVG 1.1//EN" "http://www.w3.org/Graphics/SVG/1.1/DTD/svg11.dtd">
<svg version="1.1" id="Layer_1" xmlns="http://www.w3.org/2000/svg" xmlns:xlink="http://www.w3.org/1999/xlink" x="0px" y="0px"
	 width="165px" height="165px" viewBox="0 0 165 165" enable-background="new 0 0 165 165" xml:space="preserve">
<g>
	<linearGradient id="SVGID_1_" gradientUnits="userSpaceOnUse" x1="3.8389" y1="82.5" x2="161.1611" y2="82.5">
		<stop  offset="0" style="stop-color:#675ADF"/>
		<stop  offset="0.1898" style="stop-color:#6166E3"/>
		<stop  offset="0.5359" style="stop-color:#5287EE"/>
		<stop  offset="0.9964" style="stop-color:#3ABCFF"/>
		<stop  offset="1" style="stop-color:#3ABCFF"/>
	</linearGradient>
	<path fill="none" stroke="url(#SVGID_1_)" stroke-width="5" stroke-miterlimit="10" d="M158.661,82.5
		c0,42.063-34.102,76.161-76.16,76.161c-42.063,0-76.162-34.098-76.162-76.161c0-42.062,34.1-76.16,76.162-76.16
		C124.56,6.34,158.661,40.438,158.661,82.5z"/>
	<g>
		<g>
			<g>
				<linearGradient id="SVGID_2_" gradientUnits="userSpaceOnUse" x1="73.5107" y1="69.2334" x2="114.9277" y2="69.2334">
					<stop  offset="0" style="stop-color:#675ADF"/>
					<stop  offset="0.1898" style="stop-color:#6166E3"/>
					<stop  offset="0.5359" style="stop-color:#5287EE"/>
					<stop  offset="0.9964" style="stop-color:#3ABCFF"/>
					<stop  offset="1" style="stop-color:#3ABCFF"/>
				</linearGradient>
				<path fill="url(#SVGID_2_)" d="M114.803,64.471c-0.3-0.942-1.119-1.631-2.101-1.773l-11.182-1.583l-4.991-9.873
					c-0.439-0.872-1.333-1.424-2.306-1.424c-0.981,0-1.872,0.552-2.313,1.424l-4.993,9.873l-11.185,1.583
					c-0.979,0.142-1.795,0.831-2.1,1.773c-0.302,0.948-0.038,1.98,0.684,2.667l8.055,7.664l-1.9,10.81
					c-0.171,0.969,0.222,1.949,1.014,2.531c0.791,0.583,1.846,0.667,2.718,0.22l10.021-5.144l10.011,5.144
					c0.873,0.447,1.928,0.363,2.72-0.22c0.791-0.585,1.184-1.562,1.012-2.531l-1.896-10.81l8.054-7.664
					C114.846,66.452,115.106,65.419,114.803,64.471z M104.688,72.47c-0.903,0.855-1.315,2.113-1.104,3.335l1.783,10.144
					l-9.451-4.852c-1.068-0.544-2.327-0.544-3.403,0l-9.441,4.852l1.78-10.144c0.217-1.223-0.199-2.48-1.103-3.335l-7.461-7.107
					l10.394-1.471c1.211-0.173,2.255-0.923,2.805-2.012l4.736-9.359l4.73,9.359c0.548,1.089,1.592,1.839,2.8,2.012l10.397,1.471
					L104.688,72.47z"/>
			</g>
		</g>
		<linearGradient id="SVGID_3_" gradientUnits="userSpaceOnUse" x1="43.0908" y1="101.936" x2="121.9102" y2="101.936">
			<stop  offset="0" style="stop-color:#675ADF"/>
			<stop  offset="0.1898" style="stop-color:#6166E3"/>
			<stop  offset="0.5359" style="stop-color:#5287EE"/>
			<stop  offset="0.9964" style="stop-color:#3ABCFF"/>
			<stop  offset="1" style="stop-color:#3ABCFF"/>
		</linearGradient>
		<path fill="url(#SVGID_3_)" d="M43.105,100.087c0,0.05,0.017,0.098,0.017,0.146c0,0.046,0,0.095,0.014,0.146
			c0.016,0.031,0.037,0.079,0.052,0.128c0.017,0.048,0.03,0.079,0.052,0.13l6.424,13.695c0.017,0.045,0.049,0.095,0.066,0.127
			c0,0,0.016,0.016,0.016,0.034c0.015,0,0.015,0.015,0.015,0.015c0.019,0.015,0.032,0.048,0.048,0.063
			c0.015,0.034,0.033,0.065,0.066,0.098c0.029,0.032,0.045,0.047,0.066,0.063c0.028,0.033,0.045,0.05,0.08,0.079
			c0.016,0.018,0.045,0.036,0.063,0.051c0.03,0.015,0.061,0.049,0.098,0.064c0.015,0,0.045,0.015,0.064,0.031
			c0.047,0.033,0.08,0.051,0.113,0.065c0.014,0.016,0.046,0.016,0.061,0.034c0.029,0.015,0.082,0.031,0.112,0.046
			c0.015,0,0.05,0.015,0.065,0.015c0.052,0.018,0.08,0.034,0.129,0.034c0.016,0.018,0.045,0.018,0.059,0.018
			c0.068,0.015,0.134,0.015,0.198,0.015l0,0l0,0l0,0l0,0c0.064,0,0.108-0.015,0.175-0.015c0.015-0.018,0.052-0.018,0.066-0.018
			c0.035-0.016,0.08-0.016,0.113-0.034c0.015,0,0.049-0.015,0.06-0.015c0.038-0.015,0.082-0.032,0.118-0.046
			c0.031,0,0.05,0,0.065-0.018h0.015c0.016,0,0.016-0.016,0.03-0.016c0.048-0.014,0.08-0.032,0.128-0.065l9.033-5.688
			c1.43-0.917,3.183-1.141,4.809-0.659l17.709,5.32c2.85,0.867,5.982,0.546,8.605-0.885l27.758-15.076
			c1.96-1.079,2.748-3.264,1.912-5.336c-0.823-2.059-2.892-3.089-5.035-2.51c-0.029,0-0.046,0-0.078,0.015l-21.6,7.22
			c-0.759,0.258-1.175,1.078-0.92,1.85c0.258,0.752,1.095,1.172,1.854,0.913l21.553-7.186c1.014-0.271,1.428,0.532,1.524,0.79
			c0.08,0.191,0.401,1.142-0.591,1.688l-27.748,15.027c-1.945,1.063-4.277,1.304-6.379,0.66l-17.712-5.318
			c-2.413-0.723-5.021-0.37-7.154,0.947l-4.342-10.238l7.892-3.89c0.728-0.227,6.767-2.121,11.397-0.019
			c0.048,0.019,0.082,0.033,0.112,0.051l13.183,4.775c0.753,0.369,0.915,1.091,0.803,1.639c-0.063,0.255-0.305,1.107-1.317,1.188
			c-0.531-0.032-3.681-0.241-6.491-0.416C74.9,99.46,74.9,99.46,74.818,99.46c-0.817,0.015-1.445,0.692-1.429,1.497
			c0.014,0.769,0.641,1.382,1.4,1.414c0.239,0.018,2.94,0.193,5.559,0.354c6.016,0.386,6.59,0.418,6.723,0.418
			c0.016,0,0.016,0,0.03,0c2.052-0.098,3.699-1.527,4.101-3.552c0.4-2.042-0.598-3.988-2.491-4.857
			c-0.037-0.015-0.082-0.031-0.118-0.045L75.4,89.914c-5.981-2.685-13.295-0.13-13.601-0.015c-0.067,0.015-0.113,0.031-0.158,0.061
			L43.91,98.703c-0.044,0.019-0.08,0.052-0.112,0.066c-0.05,0.035-0.095,0.049-0.132,0.082c-0.028,0.03-0.063,0.063-0.091,0.096
			c-0.053,0.033-0.08,0.064-0.118,0.098c-0.03,0.033-0.044,0.078-0.08,0.109c-0.03,0.032-0.062,0.066-0.079,0.114
			c-0.028,0.046-0.044,0.079-0.059,0.129c-0.035,0.047-0.052,0.077-0.066,0.128c-0.021,0.032-0.021,0.079-0.037,0.126
			c-0.014,0.049-0.03,0.097-0.03,0.145c-0.015,0.048-0.015,0.096-0.015,0.144C43.091,99.992,43.091,100.039,43.105,100.087z
			 M52.428,96.834l5.086,11.993l-5.925,3.741l-5.852-12.454L52.428,96.834z"/>
	</g>
</g>
</svg>
