<?xml version="1.0" encoding="utf-8"?>
<!-- Generator: Adobe Illustrator 16.0.0, SVG Export Plug-In . SVG Version: 6.00 Build 0)  -->
<!DOCTYPE svg PUBLIC "-//W3C//DTD SVG 1.1//EN" "http://www.w3.org/Graphics/SVG/1.1/DTD/svg11.dtd">
<svg version="1.1" id="Layer_1" xmlns="http://www.w3.org/2000/svg" xmlns:xlink="http://www.w3.org/1999/xlink" x="0px" y="0px"
	 width="65px" height="65px" viewBox="0 0 65 65" enable-background="new 0 0 65 65" xml:space="preserve">
<g>
	<circle fill="#22C9FF" stroke="#FFFFFF" stroke-miterlimit="10" cx="32.5" cy="32.5" r="30"/>
	<g>
		<path fill="#FFFFFF" stroke="#22C9FF" stroke-miterlimit="10" d="M34.391,33.006h2.021c0-1.809-1.232-3.333-2.9-3.779v-0.848
			H31.49v0.848c-1.67,0.446-2.902,1.971-2.902,3.779c0,1.848,0.971,3.173,2.732,3.729l0.17,0.054v3.897
			c-0.529-0.334-0.881-0.924-0.881-1.596h-2.021c0,1.808,1.232,3.332,2.902,3.779v0.848h2.021V42.87
			c1.668-0.447,2.9-1.972,2.9-3.779c0-1.849-0.969-3.174-2.732-3.73l-0.168-0.053v-3.898C34.039,31.745,34.391,32.335,34.391,33.006
			L34.391,33.006z M30.609,33.006c0-0.671,0.352-1.261,0.881-1.597v3.22C30.879,34.311,30.609,33.805,30.609,33.006L30.609,33.006z
			 M34.391,39.091c0,0.672-0.352,1.262-0.879,1.598v-3.221C34.123,37.785,34.391,38.291,34.391,39.091L34.391,39.091z
			 M34.391,39.091"/>
		<path fill="#FFFFFF" stroke="#22C9FF" stroke-miterlimit="10" d="M42.756,28.286c-1.24-1.789-2.902-3.209-4.842-4.145l2.225-8.279
			h-1.693l-0.256,0.173c-0.473,0.318-0.787,0.53-1.52,0.53c-0.734,0-1.047-0.212-1.52-0.53c-0.58-0.39-1.299-0.875-2.65-0.875
			s-2.07,0.485-2.648,0.875c-0.475,0.318-0.787,0.529-1.521,0.529c-0.732,0-1.045-0.211-1.52-0.53l-0.256-0.172h-1.695l2.229,8.279
			c-1.941,0.936-3.604,2.355-4.842,4.145c-1.447,2.088-2.211,4.539-2.211,7.089V47.84h24.93V35.375
			C44.965,32.825,44.201,30.374,42.756,28.286L42.756,28.286z M28.33,18.586c1.352,0,2.072-0.485,2.65-0.874
			c0.475-0.32,0.785-0.53,1.52-0.53s1.047,0.21,1.52,0.53c0.578,0.389,1.299,0.874,2.65,0.874c0.236,0,0.455-0.015,0.656-0.042
			l-1.389,5.164h-6.873l-1.391-5.164C27.877,18.571,28.094,18.586,28.33,18.586L28.33,18.586z M42.943,45.819H22.057V35.375
			c0-4.255,2.521-8.02,6.434-9.646h8.02c3.914,1.626,6.434,5.391,6.434,9.646V45.819z M42.943,45.819"/>
	</g>
</g>
</svg>
