<?xml version="1.0" encoding="utf-8"?>
<!-- Generator: Adobe Illustrator 16.0.0, SVG Export Plug-In . SVG Version: 6.00 Build 0)  -->
<!DOCTYPE svg PUBLIC "-//W3C//DTD SVG 1.1//EN" "http://www.w3.org/Graphics/SVG/1.1/DTD/svg11.dtd">
<svg version="1.1" id="Layer_1" xmlns="http://www.w3.org/2000/svg" xmlns:xlink="http://www.w3.org/1999/xlink" x="0px" y="0px"
	 width="65px" height="65px" viewBox="0 0 65 65" enable-background="new 0 0 65 65" xml:space="preserve">
<g>
	<circle fill="#22C9FF" stroke="#FFFFFF" stroke-miterlimit="10" cx="32.5" cy="32.5" r="30"/>
	<g>
		<g>
			<path fill="#FFFFFF" stroke="#22C9FF" stroke-width="0.2" stroke-miterlimit="10" d="M52.318,26.652l-8.008-8.008
				c-0.258-0.256-0.676-0.256-0.934,0l-4.004,4.004c-0.123,0.123-0.191,0.293-0.191,0.467c0,0.176,0.068,0.342,0.191,0.465l0.4,0.4
				l-0.918,0.918c-0.596,0.596-1.521,0.758-2.301,0.404c-0.732-0.332-1.545-0.508-2.352-0.508c-0.957,0-1.895,0.24-2.727,0.695
				c-0.348-0.086-0.703-0.129-1.063-0.129c-0.521,0-1.031,0.09-1.52,0.268c-0.777,0.283-1.613,0.107-2.178-0.457l-1.646-1.648
				l0.195-0.197c0.123-0.123,0.193-0.291,0.193-0.465c0-0.176-0.07-0.344-0.193-0.465l-4.004-4.006
				c-0.258-0.258-0.676-0.258-0.934,0l-8.914,8.914c-0.256,0.258-0.256,0.676,0,0.934l4.004,4.002
				c0.125,0.123,0.293,0.193,0.467,0.193c0.176,0,0.344-0.07,0.467-0.193l0.238-0.238l1.162,1.162
				c0.295,0.293,0.488,0.66,0.563,1.059c0.387,2.072,1.379,3.957,2.869,5.445l0.219,0.221c-0.42,0.441-0.652,1.02-0.652,1.633
				c0,0.633,0.248,1.229,0.695,1.678c0.463,0.463,1.07,0.693,1.678,0.693c0.041,0,0.08,0,0.119-0.004
				c-0.031,0.646,0.199,1.305,0.691,1.799c0.449,0.447,1.045,0.695,1.678,0.695c0.018,0,0.035-0.002,0.055-0.002
				c-0.016,0.625,0.217,1.254,0.691,1.73c0.449,0.449,1.045,0.693,1.678,0.693c0.635,0,1.23-0.246,1.68-0.693
				c0.037-0.039,0.072-0.078,0.107-0.117c0.234,0.082,0.48,0.125,0.73,0.125c0.592,0,1.15-0.232,1.566-0.65
				c0.223-0.223,0.393-0.484,0.502-0.77l0.068,0.068c0.432,0.434,0.998,0.648,1.566,0.648s1.135-0.215,1.566-0.648
				c0.23-0.229,0.404-0.5,0.512-0.797c0.389,0.281,0.846,0.422,1.305,0.422c0.568,0,1.135-0.215,1.568-0.646
				c0.418-0.42,0.648-0.977,0.648-1.566c0-0.182-0.021-0.357-0.063-0.527c0.422-0.086,0.811-0.291,1.123-0.604
				c0.418-0.418,0.648-0.977,0.648-1.568c0-0.467-0.145-0.91-0.41-1.283l0.529-0.529c1.508-1.508,2.504-3.414,2.881-5.514
				c0.064-0.352,0.238-0.678,0.504-0.943l1.969-1.967l0.346,0.346c0.129,0.127,0.297,0.191,0.465,0.191
				c0.17,0,0.338-0.064,0.467-0.191l4.004-4.004c0.123-0.123,0.193-0.291,0.193-0.467C52.512,26.945,52.441,26.775,52.318,26.652z
				 M15.885,30.844l-3.07-3.074l7.98-7.98l3.072,3.072L15.885,30.844z M23.869,42.268c-0.41,0.408-1.08,0.412-1.49,0
				c-0.199-0.199-0.309-0.465-0.309-0.746c0-0.283,0.109-0.547,0.309-0.746c0.205-0.207,0.475-0.309,0.744-0.309
				c0.271,0,0.541,0.102,0.746,0.309C24.281,41.186,24.281,41.855,23.869,42.268z M26.357,44.754
				c-0.199,0.199-0.465,0.311-0.746,0.311s-0.547-0.111-0.744-0.311c-0.412-0.41-0.412-1.08,0-1.49
				c0.205-0.207,0.475-0.309,0.744-0.309c0.271,0,0.541,0.102,0.746,0.309C26.77,43.674,26.77,44.344,26.357,44.754z M28.781,47.178
				c-0.199,0.201-0.463,0.309-0.746,0.309c-0.281,0-0.545-0.107-0.746-0.309c-0.41-0.412-0.41-1.08,0-1.49
				c0.207-0.207,0.477-0.309,0.746-0.309c0.271,0,0.541,0.102,0.746,0.309C29.193,46.098,29.193,46.766,28.781,47.178z
				 M39.982,42.115c-0.17,0.17-0.396,0.264-0.635,0.264c-0.24,0-0.465-0.094-0.635-0.264l-6.398-6.396
				c-0.258-0.256-0.674-0.256-0.932,0c-0.258,0.258-0.258,0.678,0,0.934l6.891,6.891c0.17,0.168,0.264,0.395,0.264,0.637
				c0,0.238-0.094,0.465-0.264,0.633c-0.35,0.35-0.92,0.352-1.27,0l-1.162-1.162c-0.008-0.006-0.014-0.014-0.02-0.02
				c-0.002-0.002-0.006-0.004-0.008-0.006l-5.344-5.344c-0.258-0.258-0.674-0.258-0.932,0c-0.258,0.256-0.258,0.674,0,0.932
				l5.361,5.361c0.162,0.168,0.254,0.391,0.254,0.627c0,0.238-0.094,0.465-0.264,0.635c-0.35,0.35-0.92,0.35-1.27,0l-5.813-5.814
				c-0.258-0.258-0.676-0.258-0.934,0s-0.258,0.676,0,0.934l4.309,4.309c0.002,0.002,0.002,0.004,0.002,0.004
				c0.172,0.17,0.266,0.393,0.266,0.633c0,0.242-0.094,0.467-0.264,0.635c-0.17,0.172-0.395,0.266-0.635,0.266
				c-0.059,0-0.115-0.006-0.17-0.018c0.105-0.719-0.117-1.477-0.668-2.029c-0.449-0.449-1.045-0.693-1.68-0.693
				c-0.018,0-0.035,0-0.053,0c0.014-0.627-0.217-1.254-0.693-1.73c-0.447-0.449-1.043-0.695-1.678-0.695
				c-0.039,0-0.078,0.002-0.117,0.002c0.031-0.645-0.199-1.303-0.691-1.795c-0.6-0.6-1.443-0.809-2.213-0.633l-0.475-0.473
				c-1.301-1.303-2.166-2.947-2.504-4.756c-0.123-0.662-0.443-1.268-0.926-1.748l-1.162-1.164l6.613-6.613l1.648,1.648
				c0.633,0.635,1.496,0.973,2.379,0.973c0.396,0,0.797-0.066,1.182-0.207c0.188-0.068,0.381-0.119,0.576-0.148l-4.084,4.084
				c-0.498,0.498-0.773,1.162-0.773,1.869s0.275,1.371,0.773,1.871c0.516,0.516,1.193,0.773,1.871,0.771
				c0.678,0,1.354-0.256,1.869-0.771l2.051-2.053l0.557,0.557c0,0,0,0,0,0.002l0.023,0.021l0.021,0.023l0,0l0,0
				c0.008,0.006,0.014,0.012,0.02,0.018l7.732,7.734c0.17,0.168,0.262,0.393,0.262,0.633S40.152,41.947,39.982,42.115z
				 M44.135,32.279c-0.457,0.457-0.758,1.025-0.867,1.643c-0.33,1.832-1.199,3.496-2.516,4.814l-0.508,0.506l-4.172-4.172
				c0.092,0.008,0.182,0.012,0.273,0.012c0.424,0,0.855-0.072,1.285-0.25c0.338-0.139,0.498-0.521,0.361-0.859
				c-0.139-0.338-0.523-0.5-0.859-0.359c-1.699,0.691-3.732-1.221-3.959-1.441c-0.004-0.004-0.008-0.008-0.012-0.012l-0.023-0.023
				l0,0l-0.021-0.02l0,0l-0.555-0.557l0.629-0.629c0.258-0.258,0.258-0.676,0-0.932c-0.258-0.258-0.676-0.258-0.932,0l-1.096,1.094
				l0,0l-0.002,0.002l-2.516,2.518c-0.518,0.516-1.357,0.516-1.875,0c-0.25-0.252-0.389-0.584-0.389-0.939
				c0-0.354,0.139-0.686,0.389-0.938l4.342-4.342c0.242-0.242,0.512-0.455,0.799-0.633c0.686-0.424,1.479-0.648,2.291-0.648
				c0.621,0,1.244,0.137,1.807,0.389c1.277,0.582,2.797,0.311,3.777-0.672l0.92-0.918l5.396,5.4L44.135,32.279z M47.848,30.189
				l-7.074-7.074l3.07-3.072l7.076,7.076L47.848,30.189z"/>
		</g>
	</g>
</g>
</svg>
