<?xml version="1.0" encoding="UTF-8"?>
<svg width="156px" height="97px" viewBox="0 0 156 97" version="1.1" xmlns="http://www.w3.org/2000/svg" xmlns:xlink="http://www.w3.org/1999/xlink">
    <!-- Generator: Sketch 49.2 (51160) - http://www.bohemiancoding.com/sketch -->
    <title>mediator</title>
    <desc>Created with Sketch.</desc>
    <defs>
        <linearGradient x1="-0.811379453%" y1="49.9300777%" x2="101.011044%" y2="49.9300777%" id="linearGradient-1">
            <stop stop-color="#675ADF" offset="0%"></stop>
            <stop stop-color="#3ABCFF" offset="100%"></stop>
        </linearGradient>
    </defs>
    <g id="Page-1" stroke="none" stroke-width="1" fill="none" fill-rule="evenodd">
        <g id="Artboard" transform="translate(-1405.000000, -211.000000)" fill="#FFFFFF" stroke="url(#linearGradient-1)">
            <g id="mediator" transform="translate(1406.000000, 212.000000)">
                <g id="Group-2">
                    <path d="M75.3945903,77.2360684 C73.5530699,74.0856058 71.2408553,71.574612 68.82175,69.1630078 C67.1471291,67.495888 65.3637422,65.9394094 63.6722438,64.2872918 C63.224053,63.8484774 62.9221336,63.9422411 62.4551901,64.1954033 C57.0712744,67.1470868 51.6967351,70.1156477 46.2809398,73.0091977 C40.5801025,76.0565202 34.7798757,78.921941 29.129671,82.061152 C24.9065508,84.4071215 20.8484548,87.0531351 16.7265995,89.5810064 C14.2887415,91.0812267 11.7683713,92.3451623 8.85044283,92.4970596 C6.36382765,92.6283289 4.07036584,92.0451182 2.18758934,90.3329918 C-0.233391195,88.1276679 -0.30465166,84.7953035 1.91754969,82.0273971 C3.46465189,80.099614 5.56120978,78.8713086 7.54337588,77.5023575 C14.0005742,73.0392021 20.4708994,68.5954245 26.9543515,64.1710247 C32.8439664,60.1404328 38.7392072,56.1185922 44.6400738,52.1055028 C52.7662672,46.5671895 60.8968362,41.0338769 69.0317809,35.505565 C75.6027459,31.0511608 82.1912134,26.6223855 88.7971836,22.2192388 C92.3602068,19.8488907 95.9232301,17.4710415 99.606271,15.2975973 C103.289312,13.1241531 107.2949,11.4214031 111.551775,10.6600413 C113.393296,10.3299928 115.345457,10.4818901 117.235735,10.6094088 C118.979741,10.7256759 119.951134,11.9914868 120.311187,13.5629676 C120.873769,16.0177031 121.271328,18.5099441 121.691389,20.994684 C122.154582,23.7363366 122.565268,26.5117442 124.279269,28.7995802 C125.123143,29.9247454 126.265186,30.8323787 127.259082,31.8506533 C127.449191,32.0173225 127.592661,32.2305895 127.675393,32.4694941 C128.153588,34.65419 128.408626,36.908271 129.100602,39.0198311 C130.583945,43.5354943 132.117921,48.0492821 133.944439,52.433676 C136.112257,57.6450663 138.553866,62.7476907 140.982347,67.842814 C142.355049,70.7213617 144.114057,73.4217583 145.377993,76.3415621 C146.6213,79.2163592 146.441274,82.1924213 144.389723,84.73717 C142.071882,87.6119672 138.000659,87.6794771 135.013346,85.0559668 C133.243086,83.5032388 132.159177,81.468565 131.075267,79.4582698 C128.862442,75.3626683 126.598985,71.282069 124.626195,67.0702005 C122.812804,63.1940062 121.239448,59.1940438 119.776733,55.1697028 C118.535301,51.7548263 117.590162,48.2311839 116.538133,44.7469222 C116.28122,43.8955471 116.119946,43.016043 115.915541,42.1496657 C115.049164,47.6142182 114.484706,53.0581427 114.195914,58.5151941 C113.910872,63.9028603 113.75226,66.6040064 113.704591,74.6838186 C113.697877,75.8219227 114.087148,76.9510266 114.087148,76.9510266 C114.087148,76.9510266 114.779124,82.5505989 114.64973,85.3316323 C114.525962,88.0282783 113.190766,90.2636066 110.711652,91.5988027 C107.666205,93.2359181 104.223199,92.1951403 102.338547,89.2397062 C101.035231,87.1956561 100.787694,84.8721898 100.44827,82.5581 C99.1116888,73.3403128 98.6383168,64.0178993 99.034312,54.7121356 C99.0999466,53.1237774 99.3099774,51.5391697 99.4468725,49.9526867 C99.5031308,49.3038414 99.5425116,48.6549961 99.6081462,47.7548639 C99.2068373,48.0605338 98.9649268,48.2199322 98.7511454,48.409335 C94.5824082,52.1261309 90.4249226,55.8541783 85.8117451,59.025269 C85.6092154,59.1621641 85.5154516,59.7753792 85.6410951,60.0247908 C87.1563176,63.11712 88.7296736,66.18132 90.2767758,69.2586469 C92.7146339,74.0949821 95.2162512,78.8956871 97.5172142,83.7920312 C98.4942326,85.8717116 98.6817602,88.1783004 97.2678025,90.2373528 C96.0976307,91.9363523 94.2898652,92.7239679 92.354581,93.2171654 C87.7845348,94.3835867 83.1113486,94.2410657 78.4681667,94.1229234 C68.7842445,93.8772623 59.1040729,93.5190847 49.4257766,93.1440296 C46.3503249,93.024012 43.3705123,92.4764316 40.8388906,90.4642611 C37.1502238,87.5350809 37.5984147,82.449334 41.7427733,80.229008 C43.8149526,79.1207202 46.0465303,78.7869212 48.3249899,78.6687788 C56.9043749,78.2262138 65.4856351,77.8267802 74.06502,77.4029679 C74.4438257,77.3842152 74.8357582,77.3073289 75.3945903,77.2360684 Z" id="Shape" stroke-width="2" fill-rule="nonzero"></path>
                    <circle id="Oval-2" stroke-width="2" cx="138.02963" cy="15.9703704" r="15.9703704"></circle>
                </g>
            </g>
        </g>
    </g>
</svg>