<?xml version="1.0" encoding="utf-8"?>
<!-- Generator: Adobe Illustrator 16.0.0, SVG Export Plug-In . SVG Version: 6.00 Build 0)  -->
<!DOCTYPE svg PUBLIC "-//W3C//DTD SVG 1.1//EN" "http://www.w3.org/Graphics/SVG/1.1/DTD/svg11.dtd">
<svg version="1.1" id="Layer_1" xmlns="http://www.w3.org/2000/svg" xmlns:xlink="http://www.w3.org/1999/xlink" x="0px" y="0px"
	 width="39.606px" height="39.606px" viewBox="0 0 39.606 39.606" enable-background="new 0 0 39.606 39.606" xml:space="preserve">
<path fill="#FFFFFF" d="M33.332,29.755c-3.331-1.506-3.457-7.963-3.462-8.125v-4.333c0-4.17-2.547-7.756-6.167-9.283
	c-0.009-2.143-1.754-3.885-3.899-3.885s-3.892,1.742-3.898,3.885c-3.621,1.527-6.17,5.113-6.17,9.281v4.335
	c-0.002,0.162-0.13,6.619-3.46,8.125c-0.379,0.17-0.59,0.584-0.5,0.992c0.087,0.406,0.447,0.697,0.863,0.697h8.446
	c0.173,0.953,0.623,1.838,1.313,2.557c0.915,0.953,2.125,1.477,3.406,1.477s2.491-0.523,3.407-1.477
	c0.688-0.719,1.139-1.604,1.312-2.557h8.445c0.416,0,0.777-0.291,0.864-0.697C33.92,30.339,33.711,29.925,33.332,29.755
	L33.332,29.755z M28.943,26.661c0.35,1.061,0.847,2.127,1.549,3.016H9.114c0.703-0.889,1.198-1.955,1.549-3.016H28.943z
	 M19.804,5.896c0.97,0,1.79,0.652,2.048,1.541c-0.662-0.137-1.348-0.209-2.048-0.209c-0.701,0-1.386,0.072-2.048,0.209
	C18.013,6.549,18.833,5.896,19.804,5.896L19.804,5.896z M11.503,21.634v-4.339c0-4.574,3.724-8.299,8.301-8.299
	c4.576,0,8.3,3.725,8.3,8.299v4.347c0.001,0.133,0.022,1.531,0.373,3.25H11.13C11.482,23.171,11.503,21.771,11.503,21.634
	L11.503,21.634z M19.804,33.71c-1.35,0-2.526-0.973-2.905-2.266h5.809C22.33,32.737,21.152,33.71,19.804,33.71L19.804,33.71z
	 M19.804,33.71"/>
</svg>
