<?xml version="1.0" encoding="utf-8"?>
<!-- Generator: Adobe Illustrator 16.0.0, SVG Export Plug-In . SVG Version: 6.00 Build 0)  -->
<!DOCTYPE svg PUBLIC "-//W3C//DTD SVG 1.1//EN" "http://www.w3.org/Graphics/SVG/1.1/DTD/svg11.dtd">
<svg version="1.1" id="Layer_1" xmlns="http://www.w3.org/2000/svg" xmlns:xlink="http://www.w3.org/1999/xlink" x="0px" y="0px"
	 width="65px" height="65px" viewBox="0 0 65 65" enable-background="new 0 0 65 65" xml:space="preserve">
<g>
	<circle fill="#22C9FF" stroke="#FFFFFF" stroke-miterlimit="10" cx="32.5" cy="32.5" r="30"/>
	<g>
		<path fill="#FFFFFF" stroke="#22C9FF" stroke-width="0.1" stroke-miterlimit="10" d="M49.416,39.997c0-0.018,0-0.037-0.006-0.055
			c0-0.02-0.006-0.038-0.013-0.058c-0.006-0.019-0.006-0.037-0.013-0.05c-0.006-0.02-0.012-0.031-0.025-0.051
			c-0.006-0.019-0.012-0.03-0.024-0.05c-0.007-0.019-0.019-0.031-0.031-0.044c-0.013-0.012-0.019-0.031-0.031-0.043
			c-0.013-0.013-0.025-0.025-0.044-0.038c-0.013-0.013-0.025-0.025-0.037-0.037c-0.014-0.013-0.031-0.018-0.051-0.032
			c-0.012-0.006-0.025-0.019-0.043-0.025l-6.908-3.406c-0.019-0.012-0.037-0.019-0.063-0.024c-0.119-0.045-2.969-1.04-5.299,0.006
			l-5.141,1.86c-0.014,0.006-0.031,0.012-0.045,0.018c-0.738,0.339-1.127,1.097-0.971,1.893c0.156,0.789,0.796,1.346,1.598,1.384
			c0.006,0,0.006,0,0.012,0c0.051,0,0.275-0.013,2.618-0.163c1.021-0.063,2.073-0.131,2.167-0.137
			c0.295-0.014,0.539-0.252,0.545-0.552c0.006-0.313-0.238-0.577-0.558-0.583c-0.031,0-0.031,0-2.224,0.139
			c-1.096,0.068-2.322,0.149-2.529,0.162c-0.395-0.031-0.488-0.363-0.514-0.463c-0.044-0.214,0.019-0.495,0.313-0.639l5.136-1.86
			c0.013-0.007,0.025-0.013,0.044-0.019c1.804-0.82,4.158-0.082,4.44,0.006l3.075,1.516l-1.691,3.99
			c-0.832-0.515-1.848-0.652-2.787-0.37l-6.901,2.072c-0.819,0.251-1.728,0.157-2.485-0.257l-10.811-5.855
			c-0.388-0.213-0.263-0.583-0.23-0.656c0.037-0.102,0.199-0.414,0.594-0.309l8.398,2.8c0.295,0.101,0.621-0.063,0.721-0.356
			c0.1-0.301-0.063-0.62-0.357-0.721l-8.417-2.813c-0.013-0.006-0.019-0.006-0.031-0.006c-0.833-0.226-1.641,0.176-1.96,0.978
			c-0.326,0.808-0.02,1.659,0.745,2.079l10.815,5.874c1.021,0.558,2.242,0.683,3.352,0.345l6.9-2.073
			c0.633-0.188,1.315-0.1,1.873,0.257l3.52,2.217c0.019,0.014,0.031,0.02,0.05,0.025c0.007,0,0.007,0.006,0.013,0.006h0.006
			c0.006,0.007,0.013,0.007,0.025,0.007c0.013,0.007,0.031,0.013,0.044,0.02c0.007,0,0.019,0.005,0.024,0.005
			c0.014,0.007,0.031,0.007,0.045,0.013c0.006,0,0.019,0,0.024,0.007c0.025,0,0.044,0.006,0.069,0.006l0,0l0,0l0,0l0,0
			c0.025,0,0.05,0,0.075-0.006c0.007,0,0.019,0,0.024-0.007c0.02,0,0.031-0.006,0.051-0.013c0.006,0,0.019-0.005,0.025-0.005
			c0.012-0.007,0.031-0.013,0.043-0.02c0.006-0.007,0.02-0.007,0.025-0.013c0.012-0.006,0.025-0.012,0.043-0.025
			c0.007-0.006,0.02-0.012,0.025-0.012c0.013-0.006,0.025-0.02,0.037-0.025c0.007-0.006,0.02-0.013,0.025-0.02
			c0.014-0.012,0.02-0.019,0.031-0.031c0.007-0.005,0.014-0.012,0.025-0.024c0.013-0.013,0.02-0.024,0.025-0.038
			c0.006-0.006,0.012-0.018,0.019-0.024c0,0,0-0.006,0.007-0.006c0-0.007,0.006-0.013,0.006-0.013
			c0.006-0.012,0.019-0.032,0.025-0.05l2.504-5.336c0.007-0.02,0.014-0.032,0.02-0.051s0.013-0.037,0.019-0.05
			c0.007-0.02,0.007-0.037,0.007-0.057c0-0.018,0.006-0.037,0.006-0.056C49.416,40.034,49.416,40.017,49.416,39.997z M48.102,40.284
			l-1.998,4.254l-2.023-1.277l1.735-4.096L48.102,40.284z"/>
		<path fill="#FFFFFF" stroke="#22C9FF" stroke-width="0.1" stroke-miterlimit="10" d="M28.343,27.196h1.591
			c0.65,0,1.178,0.526,1.178,1.178s-0.527,1.178-1.178,1.178h-2.862c-0.313,0-0.57,0.258-0.57,0.569c0,0.313,0.257,0.571,0.57,0.571
			h1.497v1.12c0,0.313,0.256,0.57,0.569,0.57s0.569-0.257,0.569-0.57v-1.12h0.232c1.277,0,2.316-1.041,2.316-2.318
			s-1.039-2.316-2.316-2.316h-1.59c-0.652,0-1.178-0.527-1.178-1.178c0-0.652,0.525-1.178,1.178-1.178h2.811
			c0.314,0,0.57-0.257,0.57-0.57c0-0.312-0.256-0.568-0.57-0.568h-1.446v-1.098c0-0.313-0.257-0.569-0.569-0.569
			c-0.313,0-0.57,0.257-0.57,0.569v1.104h-0.231c-1.278,0-2.317,1.039-2.317,2.316C26.031,26.157,27.071,27.196,28.343,27.196z"/>
		<path fill="#FFFFFF" stroke="#22C9FF" stroke-width="0.1" stroke-miterlimit="10" d="M29.145,35.776
			c5.047,0,9.149-4.108,9.149-9.149s-4.108-9.156-9.149-9.156s-9.156,4.108-9.156,9.156S24.097,35.776,29.145,35.776z M29.145,18.61
			c4.421,0,8.016,3.595,8.016,8.017c0,4.421-3.595,8.017-8.016,8.017c-4.422,0-8.017-3.596-8.017-8.017
			C21.128,22.205,24.723,18.61,29.145,18.61z"/>
	</g>
</g>
</svg>
