<?xml version="1.0" encoding="utf-8"?>
<!-- Generator: Adobe Illustrator 16.0.0, SVG Export Plug-In . SVG Version: 6.00 Build 0)  -->
<!DOCTYPE svg PUBLIC "-//W3C//DTD SVG 1.1//EN" "http://www.w3.org/Graphics/SVG/1.1/DTD/svg11.dtd">
<svg version="1.1" id="Layer_1" xmlns="http://www.w3.org/2000/svg" xmlns:xlink="http://www.w3.org/1999/xlink" x="0px" y="0px"
	 width="165px" height="165px" viewBox="0 0 165 165" enable-background="new 0 0 165 165" xml:space="preserve">
<g>
	<g>
		<linearGradient id="SVGID_1_" gradientUnits="userSpaceOnUse" x1="43.3115" y1="104.4712" x2="117.6885" y2="104.4712">
			<stop  offset="0" style="stop-color:#675ADF"/>
			<stop  offset="0.1898" style="stop-color:#6166E3"/>
			<stop  offset="0.5359" style="stop-color:#5287EE"/>
			<stop  offset="0.9964" style="stop-color:#3ABCFF"/>
			<stop  offset="1" style="stop-color:#3ABCFF"/>
		</linearGradient>
		<path fill="url(#SVGID_1_)" d="M43.321,102.726c0,0.048,0.016,0.093,0.016,0.138c0,0.044,0,0.091,0.018,0.137
			c0.014,0.031,0.031,0.076,0.045,0.121s0.029,0.077,0.049,0.122l6.063,12.924c0.016,0.042,0.047,0.09,0.063,0.122
			c0,0,0.014,0.013,0.014,0.029c0.012,0,0.012,0.016,0.012,0.016c0.023,0.012,0.037,0.044,0.047,0.057
			c0.018,0.032,0.035,0.063,0.066,0.093c0.025,0.031,0.041,0.045,0.061,0.06c0.027,0.031,0.041,0.047,0.072,0.075
			c0.018,0.018,0.047,0.034,0.064,0.048c0.029,0.014,0.055,0.047,0.092,0.061c0.012,0,0.043,0.016,0.059,0.028
			c0.041,0.032,0.08,0.048,0.104,0.063c0.018,0.014,0.049,0.014,0.063,0.031c0.027,0.014,0.074,0.031,0.105,0.045
			c0.012,0,0.047,0.014,0.061,0.014c0.049,0.017,0.074,0.03,0.121,0.03c0.016,0.016,0.043,0.016,0.059,0.016
			c0.061,0.016,0.121,0.016,0.184,0.016l0,0l0,0l0,0l0,0c0.063,0,0.104-0.016,0.164-0.016c0.016-0.016,0.051-0.016,0.063-0.016
			c0.035-0.014,0.074-0.014,0.113-0.03c0.01,0,0.041-0.014,0.055-0.014c0.031-0.014,0.074-0.031,0.107-0.045
			c0.031,0,0.047,0,0.063-0.017h0.014c0.014,0,0.014-0.014,0.029-0.014c0.049-0.015,0.074-0.031,0.121-0.063l8.525-5.368
			c1.348-0.864,3-1.076,4.535-0.622l16.713,5.021c2.686,0.818,5.643,0.515,8.119-0.834l26.195-14.227
			c1.852-1.017,2.592-3.08,1.807-5.036c-0.777-1.942-2.73-2.914-4.754-2.369c-0.027,0-0.043,0-0.074,0.016l-20.385,6.811
			c-0.713,0.245-1.105,1.018-0.865,1.746c0.24,0.713,1.031,1.106,1.748,0.863l20.336-6.781c0.957-0.256,1.352,0.502,1.443,0.746
			c0.076,0.18,0.379,1.076-0.559,1.593l-26.188,14.181c-1.834,1.002-4.033,1.23-6.02,0.621l-16.715-5.018
			c-2.273-0.684-4.732-0.351-6.746,0.895l-4.096-9.663l7.441-3.671c0.688-0.212,6.389-2.001,10.758-0.016
			c0.043,0.016,0.074,0.031,0.104,0.047l12.441,4.504c0.711,0.348,0.861,1.031,0.758,1.547c-0.061,0.241-0.289,1.046-1.244,1.122
			c-0.5-0.03-3.473-0.228-6.123-0.393c-5.314-0.336-5.314-0.336-5.393-0.336c-0.768,0.016-1.361,0.654-1.344,1.413
			c0.014,0.726,0.604,1.304,1.316,1.335c0.227,0.017,2.779,0.183,5.248,0.333c5.678,0.365,6.221,0.394,6.342,0.394
			c0.016,0,0.016,0,0.027,0c1.943-0.09,3.494-1.439,3.871-3.351c0.377-1.926-0.564-3.762-2.348-4.583
			c-0.033-0.015-0.076-0.029-0.113-0.043l-12.449-4.504c-5.646-2.534-12.545-0.125-12.83-0.015c-0.063,0.015-0.113,0.032-0.154,0.06
			l-16.732,8.25c-0.043,0.016-0.074,0.048-0.105,0.062c-0.047,0.032-0.088,0.047-0.121,0.078c-0.029,0.029-0.061,0.06-0.092,0.09
			c-0.045,0.03-0.074,0.062-0.107,0.091c-0.027,0.031-0.041,0.075-0.076,0.105c-0.029,0.03-0.057,0.062-0.076,0.106
			c-0.027,0.045-0.043,0.076-0.055,0.124c-0.035,0.045-0.049,0.073-0.063,0.121c-0.018,0.029-0.018,0.075-0.031,0.12
			c-0.018,0.045-0.033,0.093-0.033,0.138c-0.01,0.044-0.01,0.089-0.01,0.134C43.312,102.636,43.312,102.681,43.321,102.726z
			 M52.026,100.574l4.205,9.92l-4.898,3.093l-4.838-10.301L52.026,100.574z"/>
		<linearGradient id="SVGID_2_" gradientUnits="userSpaceOnUse" x1="84.874" y1="70.2368" x2="99.9619" y2="70.2368">
			<stop  offset="0" style="stop-color:#675ADF"/>
			<stop  offset="0.1898" style="stop-color:#6166E3"/>
			<stop  offset="0.5359" style="stop-color:#5287EE"/>
			<stop  offset="0.9964" style="stop-color:#3ABCFF"/>
			<stop  offset="1" style="stop-color:#3ABCFF"/>
		</linearGradient>
		<path fill="url(#SVGID_2_)" d="M90.489,71.585h3.85c1.576,0,2.846,1.276,2.846,2.854c0,1.577-1.27,2.852-2.846,2.852h-6.93
			c-0.762,0-1.385,0.623-1.385,1.38c0,0.757,0.623,1.38,1.385,1.38h3.621v2.715c0,0.76,0.623,1.382,1.381,1.382
			s1.377-0.622,1.377-1.382v-2.715h0.563c3.094,0,5.611-2.519,5.611-5.612s-2.518-5.612-5.611-5.612h-3.85
			c-1.578,0-2.854-1.276-2.854-2.852c0-1.58,1.275-2.853,2.854-2.853h6.809c0.762,0,1.381-0.622,1.381-1.381
			c0-0.757-0.619-1.378-1.381-1.378h-3.502v-2.657c0-0.757-0.623-1.379-1.381-1.379s-1.381,0.623-1.381,1.379v2.673h-0.557
			c-3.104,0-5.615,2.516-5.615,5.61C84.884,69.069,87.409,71.585,90.489,71.585z"/>
		<linearGradient id="SVGID_3_" gradientUnits="userSpaceOnUse" x1="70.2471" y1="70.1982" x2="114.583" y2="70.1982">
			<stop  offset="0" style="stop-color:#675ADF"/>
			<stop  offset="0.1898" style="stop-color:#6166E3"/>
			<stop  offset="0.5359" style="stop-color:#5287EE"/>
			<stop  offset="0.9964" style="stop-color:#3ABCFF"/>
			<stop  offset="1" style="stop-color:#3ABCFF"/>
		</linearGradient>
		<path fill="url(#SVGID_3_)" d="M114.583,70.208c0-12.228-9.965-22.178-22.174-22.178c-12.211,0-22.162,9.967-22.162,22.178
			c0,12.209,9.938,22.159,22.162,22.159C104.632,92.367,114.583,82.433,114.583,70.208z M111.821,70.208
			c0,10.708-8.703,19.413-19.412,19.413c-10.711,0-19.412-8.705-19.412-19.413c0-10.711,8.701-19.417,19.412-19.417
			C103.118,50.791,111.821,59.497,111.821,70.208z"/>
	</g>
	<linearGradient id="SVGID_4_" gradientUnits="userSpaceOnUse" x1="3.8389" y1="82.5" x2="161.1611" y2="82.5">
		<stop  offset="0" style="stop-color:#675ADF"/>
		<stop  offset="0.1898" style="stop-color:#6166E3"/>
		<stop  offset="0.5359" style="stop-color:#5287EE"/>
		<stop  offset="0.9964" style="stop-color:#3ABCFF"/>
		<stop  offset="1" style="stop-color:#3ABCFF"/>
	</linearGradient>
	<path fill="none" stroke="url(#SVGID_4_)" stroke-width="5" stroke-miterlimit="10" d="M158.661,82.5
		c0,42.063-34.1,76.161-76.162,76.161c-42.059,0-76.16-34.098-76.16-76.161c0-42.062,34.102-76.16,76.16-76.16
		C124.562,6.34,158.661,40.438,158.661,82.5z"/>
</g>
</svg>
