<?xml version="1.0" encoding="utf-8"?>
<!-- Generator: Adobe Illustrator 16.0.0, SVG Export Plug-In . SVG Version: 6.00 Build 0)  -->
<!DOCTYPE svg PUBLIC "-//W3C//DTD SVG 1.1//EN" "http://www.w3.org/Graphics/SVG/1.1/DTD/svg11.dtd">
<svg version="1.1" id="Layer_1" xmlns="http://www.w3.org/2000/svg" xmlns:xlink="http://www.w3.org/1999/xlink" x="0px" y="0px"
	 width="162.708px" height="162.708px" viewBox="0 0 162.708 162.708" enable-background="new 0 0 162.708 162.708"
	 xml:space="preserve">
<g>
	<linearGradient id="SVGID_1_" gradientUnits="userSpaceOnUse" x1="5.4893" y1="81.3545" x2="157.2197" y2="81.3545">
		<stop  offset="0" style="stop-color:#385CAA"/>
		<stop  offset="1" style="stop-color:#49BDEA"/>
	</linearGradient>
	<path fill="none" stroke="url(#SVGID_1_)" stroke-width="3" stroke-miterlimit="10" d="M155.72,81.354
		c0,41.07-33.299,74.365-74.366,74.365c-41.07,0-74.364-33.295-74.364-74.365S40.283,6.99,81.354,6.99
		C122.421,6.99,155.72,40.283,155.72,81.354z"/>
	<g>
		<g>
			<g>
				<linearGradient id="SVGID_2_" gradientUnits="userSpaceOnUse" x1="64.4814" y1="75.5273" x2="101.5654" y2="75.5273">
					<stop  offset="0" style="stop-color:#385CAA"/>
					<stop  offset="1" style="stop-color:#49BDEA"/>
				</linearGradient>
				<path fill="url(#SVGID_2_)" d="M83.024,54.051c-10.205,0-18.543,8.338-18.543,18.543c0,5.336,2.336,10.471,6.27,13.939
					c2.936,2.936,2.668,9.205,2.602,9.271c0,0.334,0.066,0.6,0.334,0.867c0.199,0.199,0.533,0.332,0.801,0.332h17.008
					c0.334,0,0.6-0.133,0.801-0.332c0.2-0.201,0.333-0.533,0.333-0.867c0-0.066-0.333-6.336,2.603-9.271
					c0.066-0.066,0.133-0.133,0.199-0.201c3.869-3.533,6.135-8.537,6.135-13.738C101.565,62.389,93.229,54.051,83.024,54.051z
					 M93.696,84.799c-0.066,0.066-0.199,0.201-0.199,0.266c-2.602,2.803-3.068,7.406-3.136,9.605H75.62
					c-0.064-2.199-0.533-7.004-3.334-9.871c-3.535-3.068-5.602-7.537-5.602-12.273c0-9.004,7.27-16.273,16.273-16.273
					s16.274,7.27,16.274,16.273C99.232,77.262,97.231,81.73,93.696,84.799z"/>
				<linearGradient id="SVGID_3_" gradientUnits="userSpaceOnUse" x1="81.8232" y1="66.5566" x2="97.3647" y2="66.5566">
					<stop  offset="0" style="stop-color:#385CAA"/>
					<stop  offset="1" style="stop-color:#49BDEA"/>
				</linearGradient>
				<path fill="url(#SVGID_3_)" d="M82.958,58.787c-0.602,0-1.135,0.533-1.135,1.133s0.533,1.135,1.135,1.135
					c6.736,0,12.139,5.469,12.139,12.139c0,0.6,0.534,1.133,1.135,1.133c0.6,0,1.133-0.533,1.133-1.133
					C97.431,65.256,90.961,58.787,82.958,58.787z"/>
				<linearGradient id="SVGID_4_" gradientUnits="userSpaceOnUse" x1="72.7529" y1="101.0732" x2="93.1631" y2="101.0732">
					<stop  offset="0" style="stop-color:#385CAA"/>
					<stop  offset="1" style="stop-color:#49BDEA"/>
				</linearGradient>
				<path fill="url(#SVGID_4_)" d="M90.361,98.271H75.556c-1.535,0-2.803,1.268-2.803,2.801c0,1.535,1.268,2.803,2.803,2.803h14.74
					c1.601-0.066,2.867-1.268,2.867-2.803C93.163,99.539,91.896,98.271,90.361,98.271z M90.361,101.541H75.556
					c-0.268,0-0.535-0.201-0.535-0.535c0-0.332,0.201-0.533,0.535-0.533h14.74c0.266,0,0.531,0.201,0.531,0.533
					C90.827,101.34,90.63,101.541,90.361,101.541z"/>
				<linearGradient id="SVGID_5_" gradientUnits="userSpaceOnUse" x1="74.9541" y1="107.8105" x2="90.9609" y2="107.8105">
					<stop  offset="0" style="stop-color:#385CAA"/>
					<stop  offset="1" style="stop-color:#49BDEA"/>
				</linearGradient>
				<path fill="url(#SVGID_5_)" d="M88.161,105.01H77.755c-1.533,0-2.801,1.266-2.801,2.799c0,1.535,1.268,2.803,2.801,2.803h10.406
					c1.533,0,2.8-1.268,2.8-2.803C90.961,106.209,89.694,105.01,88.161,105.01z M88.161,108.275H77.755
					c-0.268,0-0.533-0.199-0.533-0.533c0-0.332,0.201-0.533,0.533-0.533h10.406c0.266,0,0.533,0.201,0.533,0.533
					C88.694,108.076,88.427,108.275,88.161,108.275z"/>
				<linearGradient id="SVGID_6_" gradientUnits="userSpaceOnUse" x1="81.8232" y1="43.5127" x2="84.0908" y2="43.5127">
					<stop  offset="0" style="stop-color:#385CAA"/>
					<stop  offset="1" style="stop-color:#49BDEA"/>
				</linearGradient>
				<path fill="url(#SVGID_6_)" d="M82.958,48.516c0.666,0,1.133-0.535,1.133-1.135v-7.738c0-0.6-0.533-1.133-1.133-1.133
					c-0.602,0-1.135,0.533-1.135,1.133v7.738C81.823,47.98,82.356,48.516,82.958,48.516z"/>
				<linearGradient id="SVGID_7_" gradientUnits="userSpaceOnUse" x1="95.7988" y1="48.374" x2="102.333" y2="48.374">
					<stop  offset="0" style="stop-color:#385CAA"/>
					<stop  offset="1" style="stop-color:#49BDEA"/>
				</linearGradient>
				<path fill="url(#SVGID_7_)" d="M101.834,44.246c-0.534-0.4-1.201-0.201-1.535,0.266l-4.268,6.404
					c-0.4,0.533-0.267,1.268,0.267,1.6c0.2,0.135,0.399,0.201,0.6,0.201c0.4,0,0.734-0.201,0.934-0.533l4.27-6.404
					C102.501,45.313,102.366,44.58,101.834,44.246z"/>
				<linearGradient id="SVGID_8_" gradientUnits="userSpaceOnUse" x1="64.1006" y1="48.0566" x2="70.5337" y2="48.0566">
					<stop  offset="0" style="stop-color:#385CAA"/>
					<stop  offset="1" style="stop-color:#49BDEA"/>
				</linearGradient>
				<path fill="url(#SVGID_8_)" d="M69.417,52.449c0.2,0,0.4-0.066,0.602-0.199c0.533-0.334,0.666-1.066,0.334-1.602l-4.135-6.471
					c-0.334-0.531-1.068-0.666-1.604-0.332c-0.531,0.332-0.665,1.068-0.332,1.602l4.135,6.469
					C68.685,52.316,69.018,52.449,69.417,52.449z"/>
				<linearGradient id="SVGID_9_" gradientUnits="userSpaceOnUse" x1="52.915" y1="58.6934" x2="61.9321" y2="58.6934">
					<stop  offset="0" style="stop-color:#385CAA"/>
					<stop  offset="1" style="stop-color:#49BDEA"/>
				</linearGradient>
				<path fill="url(#SVGID_9_)" d="M61.348,59.52l-6.736-3.668c-0.534-0.268-1.269-0.066-1.535,0.467
					c-0.334,0.533-0.134,1.268,0.467,1.533l6.737,3.67c0.199,0.066,0.334,0.133,0.533,0.133c0.4,0,0.801-0.199,1.001-0.6
					C62.081,60.52,61.881,59.787,61.348,59.52z"/>
				<linearGradient id="SVGID_10_" gradientUnits="userSpaceOnUse" x1="103.9839" y1="58.6934" x2="113.0234" y2="58.6934">
					<stop  offset="0" style="stop-color:#385CAA"/>
					<stop  offset="1" style="stop-color:#49BDEA"/>
				</linearGradient>
				<path fill="url(#SVGID_10_)" d="M112.905,56.318c-0.266-0.533-1-0.734-1.533-0.467l-6.803,3.668
					c-0.535,0.268-0.735,1-0.467,1.535c0.198,0.4,0.6,0.6,0.998,0.6c0.201,0,0.402-0.066,0.535-0.133l6.803-3.67
					C112.972,57.586,113.173,56.852,112.905,56.318z"/>
			</g>
		</g>
	</g>
</g>
</svg>
