<?xml version="1.0" encoding="utf-8"?>
<!-- Generator: Adobe Illustrator 16.0.0, SVG Export Plug-In . SVG Version: 6.00 Build 0)  -->
<!DOCTYPE svg PUBLIC "-//W3C//DTD SVG 1.1//EN" "http://www.w3.org/Graphics/SVG/1.1/DTD/svg11.dtd">
<svg version="1.1" id="Layer_1" xmlns="http://www.w3.org/2000/svg" xmlns:xlink="http://www.w3.org/1999/xlink" x="0px" y="0px"
	 width="26.178px" height="27.113px" viewBox="0 0 26.178 27.113" enable-background="new 0 0 26.178 27.113" xml:space="preserve">
<path fill="#FFFFFF" d="M24.117,23.238l-5.607-5.832c1.442-1.715,2.232-3.871,2.232-6.117c0-5.246-4.269-9.514-9.516-9.514
	c-5.246,0-9.514,4.268-9.514,9.514s4.268,9.516,9.514,9.516c1.971,0,3.848-0.596,5.452-1.723l5.651,5.877
	c0.236,0.246,0.553,0.381,0.895,0.381c0.322,0,0.628-0.123,0.859-0.346C24.577,24.52,24.594,23.732,24.117,23.238z M11.227,4.256
	c3.879,0,7.033,3.156,7.033,7.033c0,3.879-3.154,7.033-7.033,7.033c-3.877,0-7.031-3.154-7.031-7.033
	C4.195,7.412,7.35,4.256,11.227,4.256z"/>
</svg>
