<?xml version="1.0" encoding="utf-8"?>
<!-- Generator: Adobe Illustrator 16.0.0, SVG Export Plug-In . SVG Version: 6.00 Build 0)  -->
<!DOCTYPE svg PUBLIC "-//W3C//DTD SVG 1.1//EN" "http://www.w3.org/Graphics/SVG/1.1/DTD/svg11.dtd">
<svg version="1.1" id="Layer_1" xmlns="http://www.w3.org/2000/svg" xmlns:xlink="http://www.w3.org/1999/xlink" x="0px" y="0px"
	 width="165px" height="165px" viewBox="0 0 165 165" enable-background="new 0 0 165 165" xml:space="preserve">
<g>
	<linearGradient id="SVGID_1_" gradientUnits="userSpaceOnUse" x1="3.8398" y1="82.5" x2="161.1602" y2="82.5">
		<stop  offset="0" style="stop-color:#675ADF"/>
		<stop  offset="0.1898" style="stop-color:#6166E3"/>
		<stop  offset="0.5359" style="stop-color:#5287EE"/>
		<stop  offset="0.9964" style="stop-color:#3ABCFF"/>
		<stop  offset="1" style="stop-color:#3ABCFF"/>
	</linearGradient>
	<path fill="none" stroke="url(#SVGID_1_)" stroke-width="5" stroke-miterlimit="10" d="M158.66,82.5
		c0,42.062-34.102,76.16-76.16,76.16c-42.063,0-76.16-34.098-76.16-76.16C6.34,40.438,40.438,6.34,82.5,6.34
		C124.559,6.34,158.66,40.438,158.66,82.5z"/>
	<g>
		<linearGradient id="SVGID_2_" gradientUnits="userSpaceOnUse" x1="45.9893" y1="102.4199" x2="118.5928" y2="102.4199">
			<stop  offset="0" style="stop-color:#675ADF"/>
			<stop  offset="0.1898" style="stop-color:#6166E3"/>
			<stop  offset="0.5359" style="stop-color:#5287EE"/>
			<stop  offset="0.9964" style="stop-color:#3ABCFF"/>
			<stop  offset="1" style="stop-color:#3ABCFF"/>
		</linearGradient>
		<path fill="none" stroke="url(#SVGID_2_)" stroke-width="3" stroke-miterlimit="10" d="M112.525,91.151
			c-4.083,0.228-9.49,4.276-14.686,6.595c-6.371,2.833-16.25,0.462-16.25,0.462c1.529-0.707,7.742-2.147,8.995-2.689
			c6.654-2.875,6.125-8.967,2.962-8.936c-4.171,0.044-6.635,1.055-14.968,2.14c-6.325,0.82-13.79,0.462-17.382,1.807
			c-5.068,1.9-13.291,14.847-13.291,14.847l12.514,12.282c0,0,7.85-7.631,11.641-7.609c8.643,0.053,8.997-0.061,17.024-0.447
			c3.414-0.161,4.126-0.299,6.087-0.943c10.424-3.456,21.654-12.754,21.865-13.881C117.525,92.174,114.68,91.032,112.525,91.151
			L112.525,91.151z M112.525,91.151"/>
		<linearGradient id="SVGID_3_" gradientUnits="userSpaceOnUse" x1="58.5977" y1="64.8984" x2="106.8125" y2="64.8984">
			<stop  offset="0" style="stop-color:#675ADF"/>
			<stop  offset="0.1898" style="stop-color:#6166E3"/>
			<stop  offset="0.5359" style="stop-color:#5287EE"/>
			<stop  offset="0.9964" style="stop-color:#3ABCFF"/>
			<stop  offset="1" style="stop-color:#3ABCFF"/>
		</linearGradient>
		<path fill="none" stroke="url(#SVGID_3_)" stroke-width="3" stroke-miterlimit="10" d="M60.647,81.995
			c0.343,0.223,0.774,0.262,1.15,0.097c6.752-2.987,13.589-2.945,20.31,0.125c0.313,0.14,0.68,0.141,0.998,0.004
			c6.757-2.985,13.593-2.942,20.309,0.125c0.158,0.071,0.325,0.109,0.497,0.109c0.229,0.002,0.46-0.065,0.658-0.191
			c0.345-0.22,0.56-0.601,0.562-1.011l0.182-30.148c0.008-0.828-0.691-1.105-0.715-1.114c-3.604-1.648-7.305-2.496-11.006-2.518
			c-3.253-0.021-6.519,0.603-9.73,1.845l-0.09,14.8c-0.002,0.581-0.477,1.05-1.062,1.047c-0.58-0.003-1.055-0.477-1.05-1.061
			l0.092-14.8c-3.192-1.282-6.448-1.945-9.706-1.963c-3.691-0.024-7.41,0.778-11.038,2.379c-0.018,0.012-0.723,0.366-0.726,1.108
			l-0.185,30.147C60.094,81.389,60.3,81.77,60.647,81.995L60.647,81.995z"/>
		<g>
			<linearGradient id="SVGID_4_" gradientUnits="userSpaceOnUse" x1="61.8633" y1="76.1401" x2="103.1543" y2="76.1401">
				<stop  offset="0" style="stop-color:#675ADF"/>
				<stop  offset="0.1898" style="stop-color:#6166E3"/>
				<stop  offset="0.5359" style="stop-color:#5287EE"/>
				<stop  offset="0.9964" style="stop-color:#3ABCFF"/>
				<stop  offset="1" style="stop-color:#3ABCFF"/>
			</linearGradient>
			<path fill="url(#SVGID_4_)" d="M62.406,76.503c0,0,0.57-0.33,1.587-0.851c0.497-0.28,1.149-0.532,1.921-0.806
				c0.384-0.131,0.794-0.311,1.234-0.427c0.444-0.107,0.912-0.219,1.399-0.336c0.246-0.058,0.498-0.116,0.754-0.176
				c0.26-0.036,0.524-0.072,0.794-0.109c0.271-0.032,0.548-0.064,0.827-0.097c0.308-0.028,0.507-0.065,0.917-0.086
				c0.556-0.003,1.128-0.007,1.712-0.01c0.291,0,0.586,0.001,0.885,0.002c0.316,0.038,0.637,0.075,0.96,0.114
				c0.648,0.079,1.313,0.167,1.979,0.272c0.637,0.163,1.28,0.327,1.93,0.493c0.657,0.151,1.291,0.379,1.918,0.637l0.947,0.371
				l0.475,0.187l0.118,0.047l0.06,0.023l0.029,0.012l0.016,0.006c0.269,0.091-0.35-0.117-0.281-0.095l0.237,0.051
				c-0.186-0.083-0.478-0.072-0.663,0.03l0.262-0.097l0.453-0.171l0.904-0.341c0.592-0.235,1.196-0.449,1.89-0.604
				c0.667-0.174,1.329-0.336,1.984-0.486c0.653-0.094,1.299-0.173,1.934-0.243c0.316-0.035,0.631-0.069,0.942-0.103
				c0.313,0.001,0.625,0.002,0.933,0.004c0.612,0.01,1.211,0.02,1.794,0.03c1.229,0.154,2.146,0.208,3.196,0.504
				c0.495,0.124,0.97,0.243,1.421,0.356c0.446,0.123,0.84,0.305,1.223,0.441c0.76,0.281,1.409,0.541,1.915,0.833
				c1.024,0.539,1.581,0.874,1.581,0.874s-0.661-0.094-1.768-0.308c-0.546-0.133-1.236-0.18-2.002-0.284
				c-0.769-0.127-1.631-0.148-2.544-0.198c-0.228-0.013-0.46-0.026-0.697-0.04c-0.253,0.01-0.511,0.02-0.772,0.029
				c-0.506,0.01-1.028,0.021-1.565,0.032c-0.525,0.064-1.065,0.129-1.618,0.197c-0.273,0.035-0.551,0.065-0.83,0.09
				c-0.277,0.059-0.556,0.118-0.837,0.177c-0.56,0.115-1.13,0.231-1.706,0.35c-0.548,0.177-1.102,0.346-1.662,0.506
				c-0.283,0.09-0.554,0.142-0.85,0.263l-0.895,0.357l-0.899,0.354l-0.45,0.177c-0.061,0.022-0.184,0.074-0.191,0.073
				c-0.344,0.134-0.794,0.179-1.137,0.126l-0.236-0.054l-0.322-0.109l-0.027-0.011l-0.053-0.021l-0.105-0.043l-0.426-0.172
				l-0.848-0.345c-0.563-0.234-1.119-0.482-1.701-0.632c-0.572-0.183-1.142-0.364-1.703-0.543c-0.559-0.123-1.111-0.245-1.653-0.365
				c-0.274-0.063-0.546-0.125-0.814-0.188c-0.296-0.036-0.589-0.071-0.878-0.106c-0.58-0.075-1.146-0.148-1.698-0.22
				c-0.51-0.017-1.007-0.034-1.487-0.05c-0.252-0.014-0.5-0.027-0.743-0.04c-0.243,0.011-0.481,0.021-0.715,0.032
				c-0.938,0.041-1.81,0.054-2.564,0.168c-0.76,0.092-1.45,0.13-2.01,0.261C63.06,76.419,62.406,76.503,62.406,76.503z"/>
		</g>
		<g>
			<path fill="none" d="M62.555,75.265"/>
		</g>
	</g>
</g>
</svg>
