<?xml version="1.0" encoding="utf-8"?>
<!-- Generator: Adobe Illustrator 16.0.0, SVG Export Plug-In . SVG Version: 6.00 Build 0)  -->
<!DOCTYPE svg PUBLIC "-//W3C//DTD SVG 1.1//EN" "http://www.w3.org/Graphics/SVG/1.1/DTD/svg11.dtd">
<svg version="1.1" id="Layer_1" xmlns="http://www.w3.org/2000/svg" xmlns:xlink="http://www.w3.org/1999/xlink" x="0px" y="0px"
	 width="65px" height="65px" viewBox="0 0 65 65" enable-background="new 0 0 65 65" xml:space="preserve">
<g>
	<circle fill="#22C9FF" stroke="#FFFFFF" stroke-miterlimit="10" cx="32.5" cy="32.5" r="30"/>
	<g>
		<path fill="#FFFFFF" stroke="#22C9FF" stroke-width="0.2" stroke-miterlimit="10" d="M42.684,37.425l-2.756,3.958l-1.945-1.594
			c-0.209-0.174-0.52-0.143-0.691,0.066c-0.174,0.209-0.143,0.521,0.066,0.693l2.359,1.936c0.086,0.072,0.197,0.111,0.311,0.111
			c0.023,0,0.045,0,0.066-0.006c0.139-0.02,0.26-0.094,0.34-0.207l3.059-4.395c0.156-0.225,0.1-0.532-0.123-0.685
			C43.146,37.146,42.84,37.202,42.684,37.425L42.684,37.425z M42.684,37.425"/>
		<path fill="#FFFFFF" stroke="#22C9FF" stroke-width="0.2" stroke-miterlimit="10" d="M45.057,36.047V24.462
			c0-3.307-2.688-5.998-5.994-5.998h-14.6c-3.307,0-5.998,2.691-5.998,5.998v14.6c0,3.307,2.691,5.994,5.998,5.994h11.584
			c1.111,0.924,2.535,1.479,4.086,1.479c3.529,0,6.404-2.873,6.404-6.402C46.537,38.582,45.98,37.158,45.057,36.047L45.057,36.047z
			 M24.463,44.074c-2.764,0-5.012-2.248-5.012-5.012v-14.6c0-2.766,2.248-5.011,5.012-5.011h14.6c2.764,0,5.012,2.246,5.012,5.011
			v10.633c-0.039-0.028-0.078-0.056-0.115-0.082c-0.104-0.079-0.207-0.157-0.316-0.229c-0.008-0.008-0.023-0.012-0.033-0.019
			c-0.254-0.166-0.52-0.311-0.795-0.438c-0.039-0.018-0.076-0.039-0.113-0.056c-0.109-0.046-0.219-0.087-0.33-0.13
			c-0.068-0.026-0.143-0.054-0.211-0.077c-0.104-0.033-0.205-0.064-0.311-0.095c-0.086-0.023-0.176-0.048-0.264-0.066
			c-0.096-0.021-0.189-0.044-0.285-0.063c-0.111-0.02-0.229-0.037-0.34-0.051c-0.078-0.01-0.154-0.021-0.23-0.031
			c-0.197-0.017-0.398-0.028-0.598-0.028c-3.02,0-5.553,2.106-6.223,4.924h-2.148c-0.271,0-0.492,0.219-0.492,0.492
			c0,0.271,0.221,0.49,0.492,0.49h1.994c-0.012,0.164-0.023,0.328-0.023,0.494c0,0.199,0.012,0.398,0.027,0.596
			c0.008,0.078,0.02,0.154,0.031,0.232c0.016,0.111,0.029,0.227,0.051,0.338c0.02,0.096,0.039,0.191,0.064,0.287
			c0.018,0.088,0.041,0.176,0.066,0.262c0.029,0.105,0.061,0.211,0.094,0.313c0.023,0.068,0.051,0.139,0.074,0.207
			c0.043,0.113,0.084,0.225,0.133,0.336c0.014,0.031,0.033,0.063,0.047,0.096c0.131,0.287,0.281,0.561,0.453,0.824
			c0.004,0.006,0.006,0.014,0.012,0.02c0.072,0.109,0.148,0.213,0.229,0.316c0.025,0.039,0.053,0.076,0.078,0.115H24.463z
			 M40.133,45.551c-1.391,0-2.654-0.533-3.613-1.395c-0.117-0.107-0.234-0.217-0.342-0.336c-0.023-0.023-0.045-0.051-0.07-0.076
			c-0.104-0.115-0.201-0.232-0.293-0.355c-0.021-0.027-0.043-0.055-0.066-0.084c-0.088-0.125-0.174-0.256-0.254-0.389
			c-0.016-0.027-0.033-0.051-0.047-0.08c-0.082-0.141-0.158-0.281-0.225-0.428c-0.01-0.021-0.021-0.047-0.035-0.07
			c-0.066-0.152-0.127-0.309-0.18-0.465c-0.006-0.02-0.016-0.039-0.02-0.057c-0.055-0.162-0.098-0.326-0.135-0.492
			c-0.006-0.018-0.014-0.037-0.016-0.057c-0.037-0.164-0.061-0.33-0.082-0.496c-0.002-0.021-0.008-0.045-0.01-0.068
			c-0.02-0.188-0.031-0.379-0.031-0.57c0-2.987,2.432-5.417,5.418-5.417c0.191,0,0.383,0.012,0.572,0.03
			c0.021,0.003,0.043,0.008,0.064,0.013c0.168,0.019,0.334,0.046,0.498,0.08c0.02,0.004,0.039,0.012,0.057,0.015
			c0.166,0.038,0.33,0.081,0.492,0.134c0.02,0.007,0.035,0.015,0.055,0.021c0.158,0.053,0.314,0.115,0.469,0.183
			c0.021,0.011,0.043,0.022,0.066,0.031c0.146,0.07,0.291,0.145,0.432,0.225c0.027,0.015,0.051,0.031,0.078,0.048
			c0.131,0.079,0.264,0.166,0.391,0.26c0.025,0.019,0.055,0.039,0.08,0.057c0.125,0.095,0.244,0.195,0.361,0.299
			c0.023,0.021,0.049,0.043,0.074,0.067c0.115,0.108,0.229,0.224,0.338,0.346c0.861,0.96,1.391,2.223,1.391,3.61
			C45.551,43.119,43.119,45.551,40.133,45.551L40.133,45.551z M40.133,45.551"/>
		<path fill="#FFFFFF" stroke="#22C9FF" stroke-width="0.2" stroke-miterlimit="10" d="M31.762,25.359h8.863
			c0.273,0,0.494-0.218,0.494-0.493c0-0.272-0.221-0.49-0.494-0.49h-8.863c-0.271,0-0.492,0.218-0.492,0.49
			C31.27,25.141,31.49,25.359,31.762,25.359L31.762,25.359z M31.762,25.359"/>
		<path fill="#FFFFFF" stroke="#22C9FF" stroke-width="0.2" stroke-miterlimit="10" d="M31.762,32.252h8.863
			c0.273,0,0.494-0.218,0.494-0.49c0-0.274-0.221-0.493-0.494-0.493h-8.863c-0.271,0-0.492,0.219-0.492,0.493
			C31.27,32.034,31.49,32.252,31.762,32.252L31.762,32.252z M31.762,32.252"/>
		<path fill="#FFFFFF" stroke="#22C9FF" stroke-width="0.2" stroke-miterlimit="10" d="M27.904,22.084l-3.076,3.59l-1.881-1.412
			c-0.219-0.164-0.527-0.12-0.691,0.099c-0.162,0.217-0.119,0.524,0.1,0.688l2.252,1.688c0.088,0.067,0.191,0.099,0.295,0.099
			c0.139,0,0.275-0.058,0.375-0.171l3.375-3.941c0.176-0.204,0.154-0.517-0.053-0.692C28.393,21.853,28.084,21.877,27.904,22.084
			L27.904,22.084z M27.904,22.084"/>
		<path fill="#FFFFFF" stroke="#22C9FF" stroke-width="0.2" stroke-miterlimit="10" d="M27.904,28.978l-3.076,3.59l-1.881-1.411
			c-0.219-0.164-0.527-0.12-0.691,0.098c-0.162,0.218-0.119,0.527,0.1,0.688l2.252,1.69c0.088,0.064,0.191,0.099,0.295,0.099
			c0.139,0,0.275-0.061,0.375-0.173l3.375-3.939c0.176-0.207,0.154-0.52-0.053-0.694C28.393,28.749,28.084,28.771,27.904,28.978
			L27.904,28.978z M27.904,28.978"/>
		<path fill="#FFFFFF" stroke="#22C9FF" stroke-width="0.2" stroke-miterlimit="10" d="M27.904,36.365l-3.076,3.59l-1.881-1.412
			c-0.219-0.162-0.527-0.121-0.691,0.1c-0.162,0.217-0.119,0.525,0.1,0.688l2.252,1.689c0.088,0.064,0.191,0.1,0.295,0.1
			c0.139,0,0.275-0.061,0.375-0.174l3.375-3.939c0.176-0.207,0.154-0.517-0.053-0.694C28.393,36.136,28.084,36.158,27.904,36.365
			L27.904,36.365z M27.904,36.365"/>
	</g>
</g>
</svg>
