<?xml version="1.0" encoding="utf-8"?>
<!-- Generator: Adobe Illustrator 16.0.0, SVG Export Plug-In . SVG Version: 6.00 Build 0)  -->
<!DOCTYPE svg PUBLIC "-//W3C//DTD SVG 1.1//EN" "http://www.w3.org/Graphics/SVG/1.1/DTD/svg11.dtd">
<svg version="1.1" id="Layer_1" xmlns="http://www.w3.org/2000/svg" xmlns:xlink="http://www.w3.org/1999/xlink" x="0px" y="0px"
	 width="65px" height="65px" viewBox="0 0 65 65" enable-background="new 0 0 65 65" xml:space="preserve">
<g>
	<circle fill="#22C9FF" stroke="#FFFFFF" stroke-miterlimit="10" cx="32.501" cy="32.5" r="30"/>
	<g>
		<g>
			<g>
				<path fill="#FFFFFF" stroke="#22C9FF" stroke-width="0.6" stroke-miterlimit="10" d="M47.452,43.48L42.87,38.9
					c-0.844-0.846-2.09-1.008-3.084-0.531l-1.717-1.717c1.762-2.055,2.83-4.723,2.83-7.637c0-6.477-5.27-11.744-11.744-11.744
					c-6.477,0-11.744,5.268-11.744,11.744c0,6.475,5.268,11.744,11.744,11.744c2.912,0,5.58-1.066,7.637-2.83l1.717,1.717
					c-0.477,0.994-0.316,2.24,0.529,3.086c0.428,0.428,4.127,4.127,4.582,4.58c1.057,1.057,2.775,1.057,3.832,0
					C48.511,46.254,48.511,44.539,47.452,43.48z M29.155,38.953c-5.48,0-9.938-4.459-9.938-9.938s4.457-9.938,9.938-9.938
					c5.479,0,9.936,4.459,9.936,9.938C39.091,34.496,34.634,38.953,29.155,38.953z M40.315,41.455c-0.354-0.354-0.354-0.926,0-1.279
					c0.354-0.352,0.926-0.352,1.277,0l0.639,0.641l-1.277,1.277L40.315,41.455z M46.175,46.037c-0.352,0.352-0.926,0.35-1.277,0
					l-2.666-2.666l1.279-1.277l2.664,2.664C46.526,45.109,46.526,45.684,46.175,46.037z"/>
			</g>
		</g>
		<g>
			<g>
				<path fill="#FFFFFF" stroke="#22C9FF" stroke-width="0.6" stroke-miterlimit="10" d="M31.774,27.887
					c0.615-0.648,0.994-1.523,0.994-2.484c0-1.992-1.621-3.613-3.613-3.613c-1.994,0-3.615,1.621-3.615,3.613
					c0,0.961,0.379,1.836,0.994,2.484c-1.668,0.924-2.801,2.703-2.801,4.742v1.807c0,0.5,0.404,0.904,0.904,0.904h9.033
					c0.5,0,0.904-0.404,0.904-0.904v-1.807C34.575,30.59,33.442,28.811,31.774,27.887z M29.155,23.594
					c0.996,0,1.807,0.813,1.807,1.809s-0.811,1.807-1.807,1.807c-0.998,0-1.809-0.811-1.809-1.807S28.157,23.594,29.155,23.594z
					 M32.769,33.533H25.54v-0.904c0-1.992,1.621-3.613,3.615-3.613c1.992,0,3.613,1.621,3.613,3.613V33.533z"/>
			</g>
		</g>
	</g>
</g>
</svg>
