<?xml version="1.0" encoding="utf-8"?>
<!-- Generator: Adobe Illustrator 16.0.0, SVG Export Plug-In . SVG Version: 6.00 Build 0)  -->
<!DOCTYPE svg PUBLIC "-//W3C//DTD SVG 1.1//EN" "http://www.w3.org/Graphics/SVG/1.1/DTD/svg11.dtd">
<svg version="1.1" id="Layer_1" xmlns="http://www.w3.org/2000/svg" xmlns:xlink="http://www.w3.org/1999/xlink" x="0px" y="0px"
	 width="22.551px" height="18.944px" viewBox="0 0 22.551 18.944" enable-background="new 0 0 22.551 18.944" xml:space="preserve">
<g>
	<g>
		<path fill="#8C96A9" d="M21.957,2.847c-0.785,0.35-1.629,0.586-2.516,0.691c0.904-0.543,1.6-1.402,1.926-2.424
			c-0.85,0.502-1.787,0.867-2.783,1.064c-0.801-0.854-1.938-1.385-3.199-1.385C12.965,0.794,11,2.757,11,5.175
			c0,0.344,0.041,0.68,0.115,1C7.473,5.992,4.244,4.248,2.08,1.595C1.703,2.242,1.488,2.994,1.488,3.798
			c0,1.521,0.773,2.863,1.949,3.646C2.721,7.421,2.045,7.224,1.451,6.896v0.055c0,2.123,1.514,3.895,3.518,4.297
			c-0.367,0.1-0.756,0.154-1.154,0.154c-0.283,0-0.559-0.029-0.826-0.082c0.557,1.742,2.176,3.01,4.092,3.045
			c-1.498,1.174-3.389,1.873-5.441,1.873c-0.355,0-0.703-0.021-1.045-0.061c1.938,1.246,4.242,1.973,6.717,1.973
			c8.063,0,12.469-6.68,12.469-12.471l-0.014-0.566C20.627,4.498,21.373,3.726,21.957,2.847z"/>
	</g>
</g>
</svg>
