<?xml version="1.0" encoding="utf-8"?>
<!-- Generator: Adobe Illustrator 16.0.0, SVG Export Plug-In . SVG Version: 6.00 Build 0)  -->
<!DOCTYPE svg PUBLIC "-//W3C//DTD SVG 1.1//EN" "http://www.w3.org/Graphics/SVG/1.1/DTD/svg11.dtd">
<svg version="1.1" id="Layer_1" xmlns="http://www.w3.org/2000/svg" xmlns:xlink="http://www.w3.org/1999/xlink" x="0px" y="0px"
	 width="65px" height="65px" viewBox="0 0 65 65" enable-background="new 0 0 65 65" xml:space="preserve">
<g>
	<circle fill="#22C9FF" stroke="#FFFFFF" stroke-miterlimit="10" cx="32.5" cy="32.5" r="30"/>
	<g>
		<g>
			<g>
				<g>
					<path fill="#FFFFFF" stroke="#22C9FF" stroke-width="0.5" stroke-miterlimit="10" d="M53.64,25.421l-8.276-8.278
						c-0.267-0.267-0.696-0.267-0.966,0l-4.139,4.139c-0.129,0.127-0.198,0.3-0.198,0.481s0.069,0.354,0.198,0.482l0.414,0.414
						l-0.949,0.948c-0.618,0.616-1.57,0.785-2.377,0.417c-0.758-0.343-1.597-0.526-2.434-0.526c-0.989,0-1.957,0.251-2.815,0.722
						c-0.36-0.088-0.729-0.134-1.1-0.134c-0.538,0-1.064,0.092-1.57,0.275c-0.804,0.292-1.667,0.111-2.251-0.472l-1.702-1.704
						l0.204-0.203c0.127-0.127,0.197-0.301,0.197-0.481c0-0.182-0.07-0.354-0.197-0.483l-4.141-4.138
						c-0.266-0.266-0.699-0.266-0.963,0l-9.215,9.214c-0.267,0.266-0.267,0.698,0,0.963l4.139,4.139
						c0.126,0.127,0.304,0.2,0.483,0.2c0.181,0,0.353-0.073,0.481-0.2l0.245-0.246l1.204,1.201c0.299,0.303,0.503,0.682,0.578,1.094
						c0.401,2.141,1.426,4.088,2.967,5.631l0.229,0.225c-0.438,0.458-0.678,1.053-0.678,1.687c0,0.656,0.258,1.272,0.721,1.735
						c0.479,0.479,1.104,0.717,1.734,0.717c0.04,0,0.08,0,0.121-0.002c-0.033,0.668,0.207,1.347,0.715,1.857
						c0.465,0.463,1.081,0.719,1.737,0.719c0.016,0,0.035-0.002,0.054-0.002c-0.016,0.646,0.226,1.297,0.715,1.789
						c0.463,0.463,1.078,0.717,1.734,0.717s1.27-0.254,1.734-0.717c0.038-0.039,0.076-0.08,0.113-0.12
						c0.239,0.083,0.498,0.129,0.756,0.129c0.61,0,1.186-0.239,1.619-0.673c0.229-0.23,0.405-0.5,0.519-0.795l0.067,0.069
						c0.446,0.448,1.035,0.67,1.621,0.67s1.173-0.222,1.619-0.67c0.239-0.236,0.419-0.517,0.529-0.823
						c0.4,0.293,0.874,0.436,1.348,0.436c0.586,0,1.175-0.223,1.621-0.669c0.434-0.433,0.67-1.009,0.67-1.618
						c0-0.188-0.021-0.369-0.064-0.544c0.438-0.089,0.842-0.302,1.161-0.626c0.431-0.432,0.673-1.009,0.673-1.619
						c0-0.482-0.15-0.941-0.428-1.326l0.549-0.549c1.557-1.559,2.589-3.529,2.979-5.697c0.063-0.363,0.242-0.701,0.52-0.976
						l2.033-2.034l0.357,0.358c0.135,0.132,0.309,0.2,0.484,0.2c0.172,0,0.35-0.067,0.48-0.2l4.139-4.139
						c0.127-0.128,0.199-0.301,0.199-0.482C53.839,25.722,53.767,25.549,53.64,25.421z M15.982,29.751l-3.176-3.174l8.25-8.249
						l3.173,3.174L15.982,29.751z M24.232,41.561c-0.422,0.424-1.113,0.424-1.54,0c-0.205-0.207-0.318-0.479-0.318-0.772
						c0-0.29,0.113-0.564,0.318-0.769c0.212-0.214,0.491-0.32,0.771-0.32c0.279,0,0.559,0.106,0.769,0.32
						C24.66,40.444,24.66,41.135,24.232,41.561z M26.806,44.133c-0.207,0.205-0.48,0.318-0.769,0.318
						c-0.293,0-0.567-0.113-0.774-0.318c-0.422-0.427-0.422-1.118,0-1.543c0.212-0.213,0.492-0.318,0.774-0.318
						c0.279,0,0.557,0.105,0.769,0.318C27.231,43.015,27.231,43.706,26.806,44.133z M29.31,46.637
						c-0.204,0.206-0.479,0.32-0.77,0.32c-0.29,0-0.564-0.114-0.771-0.32c-0.422-0.425-0.422-1.115,0-1.541
						c0.215-0.212,0.492-0.32,0.771-0.32c0.28,0,0.56,0.108,0.77,0.32C29.737,45.521,29.737,46.212,29.31,46.637z M40.889,41.404
						c-0.175,0.175-0.409,0.271-0.653,0.271c-0.25,0-0.484-0.097-0.659-0.271l-6.615-6.611c-0.263-0.266-0.696-0.266-0.96,0
						c-0.266,0.267-0.266,0.697,0,0.965l7.123,7.119c0.175,0.178,0.27,0.41,0.27,0.66c0,0.246-0.095,0.479-0.27,0.654
						c-0.362,0.361-0.951,0.361-1.314,0l-1.202-1.201c-0.005-0.008-0.014-0.015-0.019-0.021c-0.003,0-0.006-0.002-0.008-0.005
						l-5.523-5.524c-0.267-0.266-0.699-0.266-0.963,0c-0.267,0.266-0.267,0.697,0,0.964l5.542,5.542
						c0.167,0.175,0.261,0.403,0.261,0.648c0,0.247-0.097,0.48-0.271,0.656c-0.363,0.359-0.949,0.359-1.313,0l-6.01-6.011
						c-0.266-0.267-0.696-0.267-0.965,0c-0.264,0.268-0.264,0.699,0,0.966l4.458,4.453c0,0.001,0,0.002,0,0.004
						c0.178,0.174,0.271,0.407,0.271,0.654c0,0.249-0.094,0.481-0.271,0.656c-0.175,0.176-0.406,0.273-0.653,0.273
						c-0.063,0-0.121-0.008-0.178-0.018c0.11-0.742-0.121-1.526-0.691-2.098c-0.465-0.463-1.078-0.719-1.734-0.719
						c-0.019,0-0.037,0-0.057,0c0.02-0.645-0.223-1.295-0.715-1.786c-0.463-0.464-1.078-0.72-1.731-0.72
						c-0.043,0-0.083,0.003-0.124,0.003c0.032-0.667-0.204-1.346-0.715-1.855c-0.621-0.618-1.49-0.836-2.289-0.653l-0.489-0.488
						c-1.342-1.348-2.237-3.047-2.587-4.915c-0.129-0.685-0.459-1.311-0.96-1.809l-1.199-1.202l6.836-6.836l1.704,1.704
						c0.656,0.655,1.544,1.005,2.458,1.005c0.411,0,0.823-0.069,1.222-0.215c0.193-0.069,0.395-0.12,0.597-0.152l-4.22,4.221
						c-0.519,0.516-0.801,1.203-0.801,1.933c0,0.729,0.282,1.417,0.799,1.933c0.532,0.533,1.234,0.799,1.934,0.799
						c0.701,0,1.4-0.266,1.933-0.799l2.119-2.12l0.575,0.574l0,0l0.024,0.024l0.021,0.023c0,0,0,0,0,0.001h0.003
						c0.006,0.006,0.014,0.012,0.019,0.019l7.992,7.992c0.175,0.175,0.271,0.406,0.271,0.656
						C41.16,40.995,41.063,41.229,40.889,41.404z M45.183,31.236c-0.473,0.473-0.785,1.06-0.9,1.698
						c-0.342,1.894-1.237,3.615-2.598,4.978l-0.524,0.523l-4.313-4.313c0.094,0.006,0.188,0.012,0.279,0.012
						c0.441,0,0.888-0.077,1.332-0.259c0.35-0.142,0.516-0.54,0.373-0.889s-0.54-0.516-0.89-0.373
						c-1.756,0.718-3.856-1.261-4.093-1.488c0-0.005-0.008-0.008-0.008-0.012l-0.027-0.024l0,0l-0.019-0.021v-0.001l-0.575-0.573
						l0.65-0.652c0.266-0.267,0.266-0.698,0-0.964c-0.267-0.266-0.696-0.266-0.963,0l-1.135,1.131c0,0,0,0,0,0.001v0l-2.6,2.601
						c-0.535,0.535-1.404,0.535-1.939,0c-0.261-0.258-0.403-0.604-0.403-0.969c0-0.366,0.143-0.71,0.403-0.969l4.488-4.489
						c0.25-0.25,0.527-0.469,0.825-0.653c0.71-0.438,1.527-0.671,2.366-0.671c0.643,0,1.288,0.14,1.872,0.403
						c1.317,0.6,2.885,0.32,3.904-0.694l0.946-0.95l5.58,5.58L45.183,31.236z M49.021,29.077l-7.314-7.313l3.176-3.174l7.314,7.313
						L49.021,29.077z"/>
				</g>
			</g>
			<g>
				<g>
					<path fill="#FFFFFF" stroke="#22C9FF" stroke-width="0.5" stroke-miterlimit="10" d="M49.706,25.743
						c0.376,0,0.683,0.304,0.683,0.682c0,0.376-0.307,0.681-0.683,0.681c-0.374,0-0.684-0.305-0.684-0.681
						C49.022,26.047,49.332,25.743,49.706,25.743z"/>
				</g>
			</g>
		</g>
		<g>
			<g>
				<circle fill="#FFFFFF" stroke="#22C9FF" stroke-width="0.5" stroke-miterlimit="10" cx="15.625" cy="27.097" r="0.682"/>
			</g>
		</g>
	</g>
</g>
</svg>
