<?xml version="1.0" encoding="utf-8"?>
<!-- Generator: Adobe Illustrator 16.0.0, SVG Export Plug-In . SVG Version: 6.00 Build 0)  -->
<!DOCTYPE svg PUBLIC "-//W3C//DTD SVG 1.1//EN" "http://www.w3.org/Graphics/SVG/1.1/DTD/svg11.dtd">
<svg version="1.1" id="Layer_1" xmlns="http://www.w3.org/2000/svg" xmlns:xlink="http://www.w3.org/1999/xlink" x="0px" y="0px"
	 width="65px" height="65px" viewBox="0 0 65 65" enable-background="new 0 0 65 65" xml:space="preserve">
<g>
	<circle fill="#22C9FF" stroke="#FFFFFF" stroke-miterlimit="10" cx="32.5" cy="32.5" r="30"/>
	<g>
		<g>
			<g>
				<path fill="#FFFFFF" stroke="#22C9FF" stroke-width="0.5" stroke-miterlimit="10" d="M46.545,22.667h-7.021v-1.404
					c0-1.551-1.263-2.81-2.812-2.81h-8.43c-1.548,0-2.808,1.259-2.808,2.81v1.404h-7.024c-1.548,0-2.808,1.26-2.808,2.809v18.261
					c0,1.549,1.26,2.811,2.808,2.811h28.094c1.552,0,2.812-1.262,2.812-2.811V25.476C49.356,23.927,48.097,22.667,46.545,22.667z
					 M26.878,21.263c0-0.774,0.633-1.404,1.405-1.404h8.43c0.773,0,1.406,0.63,1.406,1.404v1.404H26.878V21.263z M35.311,33.904
					h11.234c0.515,0,0.989-0.148,1.406-0.393v10.225l0,0c0,0.775-0.633,1.406-1.406,1.406H18.451c-0.772,0-1.405-0.631-1.405-1.406
					V33.512c0.417,0.244,0.892,0.393,1.405,0.393h11.238 M29.689,32.5H18.451c-0.772,0-1.405-0.631-1.405-1.405v-5.619
					c0-0.772,0.633-1.405,1.405-1.405h28.094c0.773,0,1.406,0.633,1.406,1.405v5.619c0,0.774-0.633,1.405-1.406,1.405H35.311"/>
			</g>
		</g>
		<g>
			<path fill="#FFFFFF" stroke="#22C9FF" stroke-width="2" stroke-miterlimit="10" d="M47.841,20.836
				c-0.679-0.684-1.793-0.684-2.468,0.002l-12.53,12.631l-0.342,0.328l-1.158-1.17l-2.135-2.135l-1.671-1.664
				c-0.679-0.688-1.802-0.688-2.484,0c-0.448,0.453-0.567,1.084-0.429,1.664c0.072,0.297,0.199,0.581,0.429,0.815l1.071,1.067
				l3.274,3.27l1.242,1.249l0.622,0.623c0.346,0.342,0.794,0.51,1.238,0.51c0.452,0,0.901-0.172,1.242-0.51l0.393-0.398
				l13.705-13.804C48.531,22.634,48.531,21.517,47.841,20.836z"/>
		</g>
	</g>
</g>
</svg>
