<?xml version="1.0" encoding="utf-8"?>
<!-- Generator: Adobe Illustrator 16.0.0, SVG Export Plug-In . SVG Version: 6.00 Build 0)  -->
<!DOCTYPE svg PUBLIC "-//W3C//DTD SVG 1.1//EN" "http://www.w3.org/Graphics/SVG/1.1/DTD/svg11.dtd">
<svg version="1.1" id="Layer_1" xmlns="http://www.w3.org/2000/svg" xmlns:xlink="http://www.w3.org/1999/xlink" x="0px" y="0px"
	 width="176.966px" height="176.966px" viewBox="0 0 176.966 176.966" enable-background="new 0 0 176.966 176.966"
	 xml:space="preserve">
<g>
	<g>
		<g>
			<linearGradient id="SVGID_1_" gradientUnits="userSpaceOnUse" x1="8.4824" y1="77.1724" x2="138.0273" y2="77.1724">
				<stop  offset="0" style="stop-color:#385CAA"/>
				<stop  offset="1" style="stop-color:#49BDEA"/>
			</linearGradient>
			<path fill="url(#SVGID_1_)" d="M137.006,24.879c-14.041-10.727-30.82-16.396-48.523-16.396c-21.369,0-41.459,8.322-56.568,23.432
				S8.482,67.114,8.482,88.483c0,21.395,8.34,41.502,23.482,56.619c0.508,0.506,1.174,0.76,1.84,0.76s1.332-0.256,1.842-0.766
				c1.016-1.016,1.014-2.664-0.004-3.68c-14.158-14.133-21.955-32.932-21.955-52.934c0-19.979,7.781-38.762,21.908-52.889
				c14.127-14.125,32.908-21.906,52.887-21.906c16.553,0,32.236,5.301,45.361,15.328c1.145,0.873,2.777,0.654,3.65-0.488
				C138.365,27.385,138.146,25.752,137.006,24.879z"/>
		</g>
	</g>
	<g>
		<g>
			<linearGradient id="SVGID_2_" gradientUnits="userSpaceOnUse" x1="39.0664" y1="99.8501" x2="168.4824" y2="99.8501">
				<stop  offset="0" style="stop-color:#385CAA"/>
				<stop  offset="1" style="stop-color:#49BDEA"/>
			</linearGradient>
			<path fill="url(#SVGID_2_)" d="M145.117,31.981c-1.014-1.016-2.664-1.02-3.68-0.004c-1.02,1.016-1.02,2.664-0.004,3.682
				c14.086,14.121,21.844,32.881,21.844,52.824c0,19.979-7.781,38.76-21.908,52.887s-32.908,21.906-52.887,21.906
				c-16.494,0-32.139-5.268-45.236-15.232c-1.145-0.869-2.777-0.648-3.648,0.496s-0.648,2.777,0.496,3.648
				c14.012,10.658,30.746,16.295,48.389,16.295c21.369,0,41.459-8.322,56.568-23.432c15.109-15.111,23.432-35.199,23.432-56.57
				C168.482,67.149,160.186,47.084,145.117,31.981z"/>
		</g>
	</g>
	<linearGradient id="SVGID_3_" gradientUnits="userSpaceOnUse" x1="46.2744" y1="88.6245" x2="130.6914" y2="88.6245">
		<stop  offset="0" style="stop-color:#385CAA"/>
		<stop  offset="1" style="stop-color:#49BDEA"/>
	</linearGradient>
	<path fill="url(#SVGID_3_)" d="M127.586,59.893c-3.992-3.994-10.975-3.994-14.971,0L77.719,94.78L64.35,81.409
		c-4.008-4.01-10.977-4.01-14.973,0c-4.137,4.123-4.137,10.848,0,14.973l20.855,20.871c2.004,1.986,4.668,3.1,7.486,3.1
		c2.832,0,5.494-1.113,7.5-3.1l42.367-42.375c2.006-2,3.105-4.666,3.105-7.498C130.691,64.561,129.592,61.897,127.586,59.893
		L127.586,59.893z M123.838,71.129l-42.369,42.369c-2.004,2.004-5.482,2.004-7.486,0L53.115,92.643
		c-2.057-2.068-2.057-5.428,0-7.496c1.008-0.998,2.326-1.553,3.748-1.553c1.41,0,2.742,0.555,3.75,1.553l15.244,15.24
		c1.033,1.039,2.703,1.039,3.736,0l36.758-36.744c1.992-2.004,5.482-2.004,7.486,0c0.996,0.996,1.553,2.33,1.553,3.736
		C125.391,68.801,124.834,70.133,123.838,71.129L123.838,71.129z M123.838,71.129"/>
</g>
</svg>
