<?xml version="1.0" encoding="utf-8"?>
<!-- Generator: Adobe Illustrator 16.0.0, SVG Export Plug-In . SVG Version: 6.00 Build 0)  -->
<!DOCTYPE svg PUBLIC "-//W3C//DTD SVG 1.1//EN" "http://www.w3.org/Graphics/SVG/1.1/DTD/svg11.dtd">
<svg version="1.1" id="Layer_1" xmlns="http://www.w3.org/2000/svg" xmlns:xlink="http://www.w3.org/1999/xlink" x="0px" y="0px"
	 width="176.966px" height="176.966px" viewBox="0 0 176.966 176.966" enable-background="new 0 0 176.966 176.966"
	 xml:space="preserve">
<g>
	<g>
		<g>
			<path fill="#525252" d="M137.007,24.879c-14.041-10.727-30.82-16.396-48.523-16.396c-21.369,0-41.459,8.322-56.569,23.432
				C16.805,47.026,8.482,67.114,8.482,88.483c0,21.396,8.34,41.504,23.482,56.619c0.508,0.506,1.174,0.762,1.84,0.762
				s1.332-0.256,1.842-0.766c1.017-1.016,1.015-2.664-0.004-3.68c-14.158-14.133-21.955-32.932-21.955-52.934
				c0-19.98,7.781-38.762,21.908-52.889C49.724,21.469,68.505,13.69,88.483,13.69c16.553,0,32.236,5.299,45.361,15.328
				c1.145,0.873,2.777,0.654,3.65-0.488C138.366,27.387,138.147,25.754,137.007,24.879z"/>
		</g>
	</g>
	<g>
		<g>
			<path fill="#525252" d="M145.118,31.983c-1.014-1.018-2.664-1.02-3.68-0.004c-1.02,1.016-1.02,2.664-0.004,3.682
				c14.086,14.119,21.844,32.879,21.844,52.822c0,19.979-7.781,38.762-21.908,52.889c-14.127,14.125-32.908,21.906-52.887,21.906
				c-16.494,0-32.139-5.268-45.236-15.232c-1.145-0.869-2.777-0.648-3.648,0.496c-0.871,1.143-0.648,2.775,0.496,3.646
				c14.012,10.66,30.746,16.295,48.389,16.295c21.369,0,41.459-8.322,56.568-23.432s23.432-35.199,23.432-56.568
				C168.483,67.151,160.187,47.084,145.118,31.983z"/>
		</g>
	</g>
	<path fill="#525252" d="M127.587,59.895c-3.992-3.996-10.975-3.996-14.971,0L77.72,94.782L64.351,81.409
		c-4.008-4.008-10.977-4.008-14.973,0c-4.137,4.125-4.137,10.848,0,14.973l20.855,20.871c2.004,1.988,4.668,3.1,7.486,3.1
		c2.832,0,5.494-1.111,7.5-3.1l42.367-42.373c2.006-2,3.105-4.666,3.105-7.498C130.692,64.561,129.593,61.899,127.587,59.895
		L127.587,59.895z M123.839,71.131L81.47,113.5c-2.004,2.004-5.482,2.004-7.486,0L53.116,92.645c-2.057-2.068-2.057-5.428,0-7.496
		c1.008-0.998,2.326-1.555,3.748-1.555c1.41,0,2.742,0.557,3.75,1.555l15.244,15.24c1.033,1.037,2.703,1.037,3.736,0l36.758-36.744
		c1.992-2.004,5.482-2.004,7.486,0c0.996,0.994,1.553,2.33,1.553,3.736C125.392,68.803,124.835,70.135,123.839,71.131
		L123.839,71.131z M123.839,71.131"/>
</g>
</svg>
