<?xml version="1.0" encoding="utf-8"?>
<!-- Generator: Adobe Illustrator 16.0.0, SVG Export Plug-In . SVG Version: 6.00 Build 0)  -->
<!DOCTYPE svg PUBLIC "-//W3C//DTD SVG 1.1//EN" "http://www.w3.org/Graphics/SVG/1.1/DTD/svg11.dtd">
<svg version="1.1" id="Layer_1" xmlns="http://www.w3.org/2000/svg" xmlns:xlink="http://www.w3.org/1999/xlink" x="0px" y="0px"
	 width="176.966px" height="176.966px" viewBox="0 0 176.966 176.966" enable-background="new 0 0 176.966 176.966"
	 xml:space="preserve">
<g>
	<g>
		<g>
			<path fill="#525252" d="M137.006,24.879C122.965,14.153,106.187,8.483,88.483,8.483c-21.369,0-41.458,8.322-56.568,23.432
				C16.805,47.025,8.483,67.114,8.483,88.483c0,21.396,8.34,41.503,23.482,56.619c0.509,0.506,1.174,0.761,1.84,0.761
				s1.333-0.256,1.842-0.766c1.016-1.016,1.014-2.664-0.003-3.68c-14.158-14.133-21.955-32.932-21.955-52.934
				c0-19.979,7.78-38.762,21.907-52.889c14.127-14.126,32.909-21.906,52.888-21.906c16.552,0,32.237,5.3,45.361,15.328
				c1.144,0.873,2.776,0.654,3.649-0.488C138.367,27.386,138.148,25.753,137.006,24.879z"/>
		</g>
	</g>
	<g>
		<g>
			<path fill="#525252" d="M145.119,31.982c-1.015-1.017-2.663-1.02-3.681-0.004s-1.02,2.664-0.004,3.682
				c14.086,14.12,21.844,32.88,21.844,52.823c0,19.979-7.78,38.761-21.906,52.888c-14.128,14.126-32.91,21.906-52.889,21.906
				c-16.494,0-32.138-5.268-45.236-15.232c-1.145-0.869-2.777-0.648-3.648,0.496c-0.87,1.144-0.647,2.776,0.496,3.647
				c14.013,10.659,30.746,16.295,48.389,16.295c21.369,0,41.459-8.322,56.568-23.432c15.11-15.11,23.432-35.199,23.432-56.569
				C168.483,67.15,160.186,47.084,145.119,31.982z"/>
		</g>
	</g>
	<g>
		<g>
			<path fill="#525252" d="M90.506,118.519c-5.143,0-9.487,4.344-9.487,9.487v2.528c0,5.232,4.255,9.489,9.487,9.489
				c5.408,0,9.488-4.08,9.488-9.489v-2.528C99.993,122.686,95.827,118.519,90.506,118.519z M94.788,130.535
				c0,2.481-1.801,4.282-4.281,4.282c-2.361,0-4.283-1.921-4.283-4.282v-2.529c0-2.28,2.002-4.282,4.283-4.282
				c2.439,0,4.281,1.841,4.281,4.282V130.535z"/>
		</g>
	</g>
	<g>
		<g>
			<path fill="#525252" d="M122.756,68.572c0-17.706-14.468-32.109-32.25-32.109c-11.378,0-21.985,6.096-27.681,15.903
				c-2.644,4.531-1.2,10.219,3.284,12.95c0.014,0.008,0.027,0.016,0.042,0.023c1.482,0.865,3.16,1.323,4.85,1.323
				c3.426-0.001,6.515-1.791,8.271-4.802c2.282-3.961,6.586-6.423,11.233-6.423c7.523,0,13.415,5.769,13.415,13.134
				c0,7.242-6.019,13.135-13.415,13.135c-5.055,0-9.487,4.433-9.487,9.486c0,0.104,0.004,0.201,0.013,0.295
				c-0.01,0.095-0.013,0.185-0.013,0.268v14.613c0,5.231,4.255,9.487,9.487,9.487c5.408,0,9.488-4.079,9.488-9.487v-7.141h-0.001
				C113.497,95.122,122.756,82.797,122.756,68.572z M96.792,94.702c-1.175,0.278-2.004,1.326-2.004,2.533v9.134
				c0,2.479-1.801,4.281-4.282,4.281c-2.361,0-4.282-1.922-4.282-4.281V92.352c0.108-0.325,0.141-0.63,0.141-0.879
				c0-0.254-0.037-0.506-0.109-0.746c0.266-2.021,2.206-3.816,4.251-3.816c10.268,0,18.621-8.228,18.621-18.339
				c0-4.972-1.944-9.606-5.475-13.052c-3.496-3.41-8.164-5.288-13.146-5.288c-6.504,0-12.537,3.46-15.737,9.02
				c-0.806,1.38-2.214,2.205-3.769,2.205c-0.76,0-1.523-0.208-2.205-0.602c-2.056-1.265-2.689-3.783-1.471-5.87
				c4.77-8.215,13.652-13.317,23.182-13.317c14.912,0,27.045,12.068,27.045,26.904C117.551,81.066,109.014,91.81,96.792,94.702z"/>
		</g>
	</g>
</g>
</svg>
