<?xml version="1.0" encoding="utf-8"?>
<!-- Generator: Adobe Illustrator 16.0.0, SVG Export Plug-In . SVG Version: 6.00 Build 0)  -->
<!DOCTYPE svg PUBLIC "-//W3C//DTD SVG 1.1//EN" "http://www.w3.org/Graphics/SVG/1.1/DTD/svg11.dtd">
<svg version="1.1" id="Layer_1" xmlns="http://www.w3.org/2000/svg" xmlns:xlink="http://www.w3.org/1999/xlink" x="0px" y="0px"
	 width="176.966px" height="176.966px" viewBox="0 0 176.966 176.966" enable-background="new 0 0 176.966 176.966"
	 xml:space="preserve">
<g>
	<g>
		<g>
			<linearGradient id="SVGID_1_" gradientUnits="userSpaceOnUse" x1="8.4829" y1="77.1724" x2="138.0283" y2="77.1724">
				<stop  offset="0" style="stop-color:#385CAA"/>
				<stop  offset="1" style="stop-color:#49BDEA"/>
			</linearGradient>
			<path fill="url(#SVGID_1_)" d="M137.007,24.879C122.965,14.153,106.188,8.483,88.482,8.483c-21.368,0-41.457,8.322-56.568,23.432
				C16.805,47.024,8.483,67.114,8.483,88.483c0,21.395,8.34,41.502,23.482,56.619c0.51,0.506,1.174,0.76,1.84,0.76
				s1.334-0.256,1.842-0.766c1.016-1.016,1.014-2.664-0.002-3.68c-14.158-14.133-21.956-32.932-21.956-52.934
				c0-19.979,7.78-38.762,21.907-52.889c14.127-14.125,32.909-21.906,52.889-21.906c16.551,0,32.236,5.301,45.36,15.328
				c1.145,0.873,2.777,0.654,3.65-0.488C138.366,27.385,138.147,25.752,137.007,24.879z"/>
		</g>
	</g>
	<g>
		<g>
			<linearGradient id="SVGID_2_" gradientUnits="userSpaceOnUse" x1="39.0669" y1="99.8501" x2="168.4834" y2="99.8501">
				<stop  offset="0" style="stop-color:#385CAA"/>
				<stop  offset="1" style="stop-color:#49BDEA"/>
			</linearGradient>
			<path fill="url(#SVGID_2_)" d="M145.118,31.981c-1.014-1.016-2.662-1.02-3.68-0.004s-1.02,2.664-0.004,3.682
				c14.086,14.121,21.844,32.881,21.844,52.824c0,19.979-7.781,38.76-21.906,52.887c-14.129,14.127-32.911,21.906-52.89,21.906
				c-16.493,0-32.138-5.268-45.236-15.232c-1.145-0.869-2.777-0.648-3.648,0.496c-0.869,1.145-0.646,2.777,0.496,3.648
				c14.013,10.658,30.747,16.295,48.389,16.295c21.369,0,41.46-8.322,56.569-23.432c15.109-15.111,23.432-35.199,23.432-56.57
				C168.483,67.149,160.187,47.084,145.118,31.981z"/>
		</g>
	</g>
	<g>
		<g>
			<linearGradient id="SVGID_3_" gradientUnits="userSpaceOnUse" x1="81.0195" y1="129.271" x2="99.9941" y2="129.271">
				<stop  offset="0" style="stop-color:#385CAA"/>
				<stop  offset="1" style="stop-color:#49BDEA"/>
			</linearGradient>
			<path fill="url(#SVGID_3_)" d="M90.506,118.518c-5.143,0-9.486,4.344-9.486,9.488v2.527c0,5.232,4.254,9.49,9.486,9.49
				c5.408,0,9.488-4.08,9.488-9.49v-2.527C99.992,122.686,95.826,118.518,90.506,118.518z M94.787,130.534
				c0,2.482-1.801,4.283-4.281,4.283c-2.361,0-4.283-1.922-4.283-4.283v-2.529c0-2.279,2.002-4.281,4.283-4.281
				c2.439,0,4.281,1.84,4.281,4.281V130.534z"/>
		</g>
	</g>
	<g>
		<g>
			<linearGradient id="SVGID_4_" gradientUnits="userSpaceOnUse" x1="61.5059" y1="76.1587" x2="122.7559" y2="76.1587">
				<stop  offset="0" style="stop-color:#385CAA"/>
				<stop  offset="1" style="stop-color:#49BDEA"/>
			</linearGradient>
			<path fill="url(#SVGID_4_)" d="M122.756,68.571c0-17.705-14.467-32.109-32.25-32.109c-11.377,0-21.985,6.096-27.681,15.904
				c-2.643,4.531-1.199,10.219,3.285,12.949c0.014,0.008,0.027,0.016,0.041,0.023c1.482,0.865,3.16,1.324,4.85,1.324
				c3.427-0.002,6.515-1.791,8.272-4.803c2.281-3.961,6.586-6.422,11.232-6.422c7.523,0,13.416,5.768,13.416,13.133
				c0,7.242-6.02,13.135-13.416,13.135c-5.055,0-9.486,4.434-9.486,9.486c0,0.104,0.004,0.201,0.012,0.295
				c-0.01,0.096-0.012,0.186-0.012,0.268v14.613c0,5.232,4.254,9.488,9.486,9.488c5.408,0,9.488-4.08,9.488-9.488v-7.141l0,0
				C113.496,95.122,122.756,82.797,122.756,68.571z M96.793,94.702c-1.176,0.277-2.004,1.326-2.004,2.533v9.133
				c0,2.48-1.801,4.281-4.283,4.281c-2.361,0-4.281-1.922-4.281-4.281V92.352c0.107-0.326,0.141-0.631,0.141-0.879
				c0-0.254-0.037-0.506-0.109-0.746c0.266-2.021,2.205-3.816,4.25-3.816c10.268,0,18.621-8.229,18.621-18.34
				c0-4.971-1.943-9.605-5.475-13.051c-3.496-3.41-8.164-5.289-13.146-5.289c-6.504,0-12.537,3.461-15.736,9.02
				c-0.807,1.381-2.214,2.205-3.769,2.205c-0.76,0-1.523-0.207-2.205-0.602c-2.057-1.264-2.689-3.783-1.471-5.869
				c4.77-8.215,13.651-13.318,23.181-13.318c14.912,0,27.045,12.068,27.045,26.904C117.551,81.065,109.014,91.809,96.793,94.702z"/>
		</g>
	</g>
</g>
</svg>
