<?xml version="1.0" encoding="utf-8"?>
<!-- Generator: Adobe Illustrator 16.0.0, SVG Export Plug-In . SVG Version: 6.00 Build 0)  -->
<!DOCTYPE svg PUBLIC "-//W3C//DTD SVG 1.1//EN" "http://www.w3.org/Graphics/SVG/1.1/DTD/svg11.dtd">
<svg version="1.1" id="Layer_1" xmlns="http://www.w3.org/2000/svg" xmlns:xlink="http://www.w3.org/1999/xlink" x="0px" y="0px"
	 width="27.713px" height="19.786px" viewBox="0 0 27.713 19.786" enable-background="new 0 0 27.713 19.786" xml:space="preserve">
<g>
	<path fill="#8C96A9" d="M25.866,2.609c-0.711-1.268-1.484-1.5-3.059-1.588c-1.57-0.107-5.523-0.152-8.949-0.152
		c-3.43,0-7.383,0.045-8.955,0.15c-1.568,0.09-2.344,0.322-3.063,1.59C1.108,3.875,0.731,6.052,0.731,9.888v0.006v0.004v0.004
		c0,3.82,0.377,6.016,1.109,7.266c0.719,1.268,1.492,1.498,3.063,1.604c1.572,0.094,5.525,0.146,8.955,0.146
		c3.426,0,7.379-0.053,8.951-0.145c1.574-0.105,2.346-0.336,3.059-1.604c0.74-1.252,1.113-3.445,1.113-7.266v-0.01V9.892
		C26.981,6.052,26.608,3.875,25.866,2.609z"/>
	<polygon fill="#232F67" points="10.575,14.816 10.575,4.972 18.778,9.894 	"/>
</g>
</svg>
